%TF.GenerationSoftware,KiCad,Pcbnew,9.0.4*%
%TF.CreationDate,2026-03-01T14:56:35+01:00*%
%TF.ProjectId,PwmPump,50776d50-756d-4702-9e6b-696361645f70,rev?*%
%TF.SameCoordinates,Original*%
%TF.FileFunction,Soldermask,Top*%
%TF.FilePolarity,Negative*%
%FSLAX46Y46*%
G04 Gerber Fmt 4.6, Leading zero omitted, Abs format (unit mm)*
G04 Created by KiCad (PCBNEW 9.0.4) date 2026-03-01 14:56:35*
%MOMM*%
%LPD*%
G01*
G04 APERTURE LIST*
G04 Aperture macros list*
%AMRoundRect*
0 Rectangle with rounded corners*
0 $1 Rounding radius*
0 $2 $3 $4 $5 $6 $7 $8 $9 X,Y pos of 4 corners*
0 Add a 4 corners polygon primitive as box body*
4,1,4,$2,$3,$4,$5,$6,$7,$8,$9,$2,$3,0*
0 Add four circle primitives for the rounded corners*
1,1,$1+$1,$2,$3*
1,1,$1+$1,$4,$5*
1,1,$1+$1,$6,$7*
1,1,$1+$1,$8,$9*
0 Add four rect primitives between the rounded corners*
20,1,$1+$1,$2,$3,$4,$5,0*
20,1,$1+$1,$4,$5,$6,$7,0*
20,1,$1+$1,$6,$7,$8,$9,0*
20,1,$1+$1,$8,$9,$2,$3,0*%
G04 Aperture macros list end*
%ADD10R,1.800000X1.800000*%
%ADD11C,1.800000*%
%ADD12C,3.000000*%
%ADD13R,2.000000X2.000000*%
%ADD14O,2.000000X1.600000*%
%ADD15R,2.500000X2.500000*%
%ADD16C,2.500000*%
%ADD17C,1.600000*%
%ADD18C,1.728000*%
%ADD19RoundRect,0.102000X0.762000X-0.762000X0.762000X0.762000X-0.762000X0.762000X-0.762000X-0.762000X0*%
G04 APERTURE END LIST*
D10*
%TO.C,D1*%
X109000000Y-106000000D03*
D11*
X106460000Y-106000000D03*
%TD*%
D12*
%TO.C,U1*%
X67390000Y-76820000D03*
X87790000Y-76820000D03*
D13*
X66140000Y-81220000D03*
D14*
X66140000Y-83760000D03*
X66140000Y-86300000D03*
X66140000Y-88840000D03*
X66140000Y-91380000D03*
X66140000Y-93920000D03*
X66140000Y-96460000D03*
X66140000Y-99000000D03*
X89000000Y-99000000D03*
X89000000Y-96460000D03*
X89000000Y-93920000D03*
X89000000Y-91380000D03*
X89000000Y-88840000D03*
X89000000Y-86300000D03*
X89000000Y-83760000D03*
X89000000Y-81220000D03*
%TD*%
D15*
%TO.C,J1*%
X109000000Y-85000000D03*
D16*
X105500000Y-85000000D03*
X102000000Y-85000000D03*
%TD*%
D17*
%TO.C,R1*%
X92920000Y-106000000D03*
X103080000Y-106000000D03*
%TD*%
D18*
%TO.C,U2*%
X103270000Y-90840000D03*
X103270000Y-101000000D03*
X100730000Y-90840000D03*
D19*
X95650000Y-90840000D03*
D18*
X98190000Y-90840000D03*
X105810000Y-90840000D03*
X108350000Y-90840000D03*
X100730000Y-101000000D03*
D19*
X95650000Y-101000000D03*
D18*
X98190000Y-101000000D03*
X105810000Y-101000000D03*
X108350000Y-101000000D03*
%TD*%
D15*
%TO.C,J2*%
X98000000Y-85000000D03*
D16*
X94500000Y-85000000D03*
%TD*%
M02*
