M48
; DRILL file {KiCad 9.0.4} date 2026-03-07T19:03:11+0100
; FORMAT={-:-/ absolute / metric / decimal}
; #@! TF.CreationDate,2026-03-07T19:03:11+01:00
; #@! TF.GenerationSoftware,Kicad,Pcbnew,9.0.4
; #@! TF.FileFunction,Plated,1,2,PTH
FMAT,2
METRIC
; #@! TA.AperFunction,Plated,PTH,ComponentDrill
T1C0.900
; #@! TA.AperFunction,Plated,PTH,ComponentDrill
T2C1.016
; #@! TA.AperFunction,Plated,PTH,ComponentDrill
T3C1.200
%
G90
G05
T1
X66.14Y-81.22
X66.14Y-83.76
X66.14Y-86.3
X66.14Y-88.84
X66.14Y-91.38
X66.14Y-93.92
X66.14Y-96.46
X66.14Y-99.0
X89.0Y-81.22
X89.0Y-83.76
X89.0Y-86.3
X89.0Y-88.84
X89.0Y-91.38
X89.0Y-93.92
X89.0Y-96.46
X89.0Y-99.0
T2
X93.0Y-92.65
X93.0Y-95.19
X93.0Y-97.73
X93.0Y-100.27
X93.0Y-102.81
X93.0Y-105.35
X103.16Y-92.65
X103.16Y-95.19
X103.16Y-97.73
X103.16Y-100.27
X103.16Y-102.81
X103.16Y-105.35
T3
X59.0Y-82.5
X59.0Y-86.0
X59.0Y-89.5
X59.0Y-94.5
X59.0Y-98.0
X59.0Y-101.5
X94.5Y-86.0
X98.0Y-86.0
X101.5Y-86.0
M30
