%TF.GenerationSoftware,KiCad,Pcbnew,9.0.4*%
%TF.CreationDate,2026-03-01T14:56:35+01:00*%
%TF.ProjectId,PwmPump,50776d50-756d-4702-9e6b-696361645f70,rev?*%
%TF.SameCoordinates,Original*%
%TF.FileFunction,Copper,L2,Bot*%
%TF.FilePolarity,Positive*%
%FSLAX46Y46*%
G04 Gerber Fmt 4.6, Leading zero omitted, Abs format (unit mm)*
G04 Created by KiCad (PCBNEW 9.0.4) date 2026-03-01 14:56:35*
%MOMM*%
%LPD*%
G01*
G04 APERTURE LIST*
%TA.AperFunction,ComponentPad*%
%ADD10R,1.800000X1.800000*%
%TD*%
%TA.AperFunction,ComponentPad*%
%ADD11C,1.800000*%
%TD*%
%TA.AperFunction,ComponentPad*%
%ADD12R,2.000000X2.000000*%
%TD*%
%TA.AperFunction,ComponentPad*%
%ADD13O,2.000000X1.600000*%
%TD*%
%TA.AperFunction,ComponentPad*%
%ADD14R,2.500000X2.500000*%
%TD*%
%TA.AperFunction,ComponentPad*%
%ADD15C,2.500000*%
%TD*%
%TA.AperFunction,ComponentPad*%
%ADD16C,1.600000*%
%TD*%
%TA.AperFunction,ComponentPad*%
%ADD17C,1.524000*%
%TD*%
%TA.AperFunction,ComponentPad*%
%ADD18R,1.524000X1.524000*%
%TD*%
G04 APERTURE END LIST*
D10*
%TO.P,D1,1,K*%
%TO.N,GND*%
X109000000Y-106000000D03*
D11*
%TO.P,D1,2,A*%
%TO.N,Net-(D1-A)*%
X106460000Y-106000000D03*
%TD*%
D12*
%TO.P,U1,1,EN*%
%TO.N,unconnected-(U1-EN-Pad1)*%
X66140000Y-81220000D03*
D13*
%TO.P,U1,2,D3*%
%TO.N,Net-(U1-D3)*%
X66140000Y-83760000D03*
%TO.P,U1,3,D2*%
%TO.N,OLED_SDA*%
X66140000Y-86300000D03*
%TO.P,U1,4,D1*%
%TO.N,OLED_SCL*%
X66140000Y-88840000D03*
%TO.P,U1,5,D0*%
%TO.N,Net-(U1-D0)*%
X66140000Y-91380000D03*
%TO.P,U1,6,D4*%
%TO.N,Net-(U1-D4)*%
X66140000Y-93920000D03*
%TO.P,U1,7,D5*%
%TO.N,EC11_B*%
X66140000Y-96460000D03*
%TO.P,U1,8,3V3*%
%TO.N,+3.3V*%
X66140000Y-99000000D03*
%TO.P,U1,9,VBus*%
%TO.N,+5V*%
X89000000Y-99000000D03*
%TO.P,U1,10,GND*%
%TO.N,GND*%
X89000000Y-96460000D03*
%TO.P,U1,11,D6*%
%TO.N,EC11_A*%
X89000000Y-93920000D03*
%TO.P,U1,12,D7*%
%TO.N,EC11_BTN*%
X89000000Y-91380000D03*
%TO.P,U1,13,D8*%
%TO.N,unconnected-(U1-D8-Pad13)*%
X89000000Y-88840000D03*
%TO.P,U1,14,D10*%
%TO.N,Net-(J2-Pin_1)*%
X89000000Y-86300000D03*
%TO.P,U1,15,RX*%
%TO.N,unconnected-(U1-RX-Pad15)*%
X89000000Y-83760000D03*
%TO.P,U1,16,TX*%
%TO.N,unconnected-(U1-TX-Pad16)*%
X89000000Y-81220000D03*
%TD*%
D14*
%TO.P,J1,1,Pin_1*%
%TO.N,GND*%
X109000000Y-85000000D03*
D15*
%TO.P,J1,2,Pin_2*%
%TO.N,Net-(J1-Pin_2)*%
X105500000Y-85000000D03*
%TO.P,J1,3,Pin_3*%
%TO.N,Net-(J1-Pin_3)*%
X102000000Y-85000000D03*
%TD*%
D16*
%TO.P,R1,1*%
%TO.N,Net-(U1-D3)*%
X92920000Y-106000000D03*
%TO.P,R1,2*%
%TO.N,Net-(D1-A)*%
X103080000Y-106000000D03*
%TD*%
D17*
%TO.P,U2,GND_1,GND*%
%TO.N,GND*%
X103270000Y-90840000D03*
%TO.P,U2,GND_2,GND__1*%
X103270000Y-101000000D03*
%TO.P,U2,HV,HV*%
%TO.N,+5V*%
X100730000Y-90840000D03*
D18*
%TO.P,U2,HV1,HV1*%
%TO.N,Net-(J1-Pin_3)*%
X95650000Y-90840000D03*
D17*
%TO.P,U2,HV2,HV2*%
%TO.N,Net-(J1-Pin_2)*%
X98190000Y-90840000D03*
%TO.P,U2,HV3,HV3*%
%TO.N,unconnected-(U2-PadHV3)*%
X105810000Y-90840000D03*
%TO.P,U2,HV4,HV4*%
%TO.N,unconnected-(U2-PadHV4)*%
X108350000Y-90840000D03*
%TO.P,U2,LV,LV*%
%TO.N,+3.3V*%
X100730000Y-101000000D03*
D18*
%TO.P,U2,LV1,LV1*%
%TO.N,Net-(U1-D0)*%
X95650000Y-101000000D03*
D17*
%TO.P,U2,LV2,LV2*%
%TO.N,Net-(U1-D4)*%
X98190000Y-101000000D03*
%TO.P,U2,LV3,LV3*%
%TO.N,unconnected-(U2-PadLV3)*%
X105810000Y-101000000D03*
%TO.P,U2,LV4,LV4*%
%TO.N,unconnected-(U2-PadLV4)*%
X108350000Y-101000000D03*
%TD*%
D14*
%TO.P,J2,1,Pin_1*%
%TO.N,Net-(J2-Pin_1)*%
X98000000Y-85000000D03*
D15*
%TO.P,J2,2,Pin_2*%
%TO.N,+3.3V*%
X94500000Y-85000000D03*
%TD*%
%TA.AperFunction,Conductor*%
%TO.N,+3.3V*%
G36*
X109808363Y-72520185D02*
G01*
X109829005Y-72536819D01*
X112463181Y-75170995D01*
X112496666Y-75232318D01*
X112499500Y-75258676D01*
X112499500Y-105741324D01*
X112479815Y-105808363D01*
X112463181Y-105829005D01*
X108829005Y-109463181D01*
X108767682Y-109496666D01*
X108741324Y-109499500D01*
X67258675Y-109499500D01*
X67191636Y-109479815D01*
X67170994Y-109463181D01*
X63688271Y-105980457D01*
X63605462Y-105897648D01*
X91619500Y-105897648D01*
X91619500Y-106102351D01*
X91651522Y-106304534D01*
X91714781Y-106499223D01*
X91807715Y-106681613D01*
X91928028Y-106847213D01*
X92072786Y-106991971D01*
X92227749Y-107104556D01*
X92238390Y-107112287D01*
X92354607Y-107171503D01*
X92420776Y-107205218D01*
X92420778Y-107205218D01*
X92420781Y-107205220D01*
X92525137Y-107239127D01*
X92615465Y-107268477D01*
X92716557Y-107284488D01*
X92817648Y-107300500D01*
X92817649Y-107300500D01*
X93022351Y-107300500D01*
X93022352Y-107300500D01*
X93224534Y-107268477D01*
X93419219Y-107205220D01*
X93601610Y-107112287D01*
X93745862Y-107007483D01*
X93767213Y-106991971D01*
X93767215Y-106991968D01*
X93767219Y-106991966D01*
X93911966Y-106847219D01*
X93911968Y-106847215D01*
X93911971Y-106847213D01*
X93964732Y-106774590D01*
X94032287Y-106681610D01*
X94125220Y-106499219D01*
X94188477Y-106304534D01*
X94220500Y-106102352D01*
X94220500Y-105897648D01*
X101779500Y-105897648D01*
X101779500Y-106102351D01*
X101811522Y-106304534D01*
X101874781Y-106499223D01*
X101967715Y-106681613D01*
X102088028Y-106847213D01*
X102232786Y-106991971D01*
X102387749Y-107104556D01*
X102398390Y-107112287D01*
X102514607Y-107171503D01*
X102580776Y-107205218D01*
X102580778Y-107205218D01*
X102580781Y-107205220D01*
X102685137Y-107239127D01*
X102775465Y-107268477D01*
X102876557Y-107284488D01*
X102977648Y-107300500D01*
X102977649Y-107300500D01*
X103182351Y-107300500D01*
X103182352Y-107300500D01*
X103384534Y-107268477D01*
X103579219Y-107205220D01*
X103761610Y-107112287D01*
X103905862Y-107007483D01*
X103927213Y-106991971D01*
X103927215Y-106991968D01*
X103927219Y-106991966D01*
X104071966Y-106847219D01*
X104071968Y-106847215D01*
X104071971Y-106847213D01*
X104124732Y-106774590D01*
X104192287Y-106681610D01*
X104285220Y-106499219D01*
X104348477Y-106304534D01*
X104380500Y-106102352D01*
X104380500Y-105897648D01*
X104379253Y-105889778D01*
X105059500Y-105889778D01*
X105059500Y-106110221D01*
X105093985Y-106327952D01*
X105162103Y-106537603D01*
X105162104Y-106537606D01*
X105230122Y-106671096D01*
X105235479Y-106681610D01*
X105262187Y-106734025D01*
X105391752Y-106912358D01*
X105391756Y-106912363D01*
X105547636Y-107068243D01*
X105547641Y-107068247D01*
X105608258Y-107112287D01*
X105725978Y-107197815D01*
X105854375Y-107263237D01*
X105922393Y-107297895D01*
X105922396Y-107297896D01*
X106027221Y-107331955D01*
X106132049Y-107366015D01*
X106349778Y-107400500D01*
X106349779Y-107400500D01*
X106570221Y-107400500D01*
X106570222Y-107400500D01*
X106787951Y-107366015D01*
X106997606Y-107297895D01*
X107194022Y-107197815D01*
X107372365Y-107068242D01*
X107422536Y-107018070D01*
X107483857Y-106984586D01*
X107553548Y-106989570D01*
X107609482Y-107031441D01*
X107626398Y-107062419D01*
X107656202Y-107142328D01*
X107656206Y-107142335D01*
X107742452Y-107257544D01*
X107742455Y-107257547D01*
X107857664Y-107343793D01*
X107857671Y-107343797D01*
X107992517Y-107394091D01*
X107992516Y-107394091D01*
X107999444Y-107394835D01*
X108052127Y-107400500D01*
X109947872Y-107400499D01*
X110007483Y-107394091D01*
X110142331Y-107343796D01*
X110257546Y-107257546D01*
X110343796Y-107142331D01*
X110394091Y-107007483D01*
X110400500Y-106947873D01*
X110400499Y-105052128D01*
X110394091Y-104992517D01*
X110373601Y-104937581D01*
X110343797Y-104857671D01*
X110343793Y-104857664D01*
X110257547Y-104742455D01*
X110257544Y-104742452D01*
X110142335Y-104656206D01*
X110142328Y-104656202D01*
X110007482Y-104605908D01*
X110007483Y-104605908D01*
X109947883Y-104599501D01*
X109947881Y-104599500D01*
X109947873Y-104599500D01*
X109947864Y-104599500D01*
X108052129Y-104599500D01*
X108052123Y-104599501D01*
X107992516Y-104605908D01*
X107857671Y-104656202D01*
X107857664Y-104656206D01*
X107742455Y-104742452D01*
X107742452Y-104742455D01*
X107656206Y-104857664D01*
X107656203Y-104857669D01*
X107626398Y-104937581D01*
X107584526Y-104993514D01*
X107519062Y-105017931D01*
X107450789Y-105003079D01*
X107422535Y-104981928D01*
X107372363Y-104931756D01*
X107372358Y-104931752D01*
X107194025Y-104802187D01*
X107194024Y-104802186D01*
X107194022Y-104802185D01*
X107076791Y-104742452D01*
X106997606Y-104702104D01*
X106997603Y-104702103D01*
X106787952Y-104633985D01*
X106679086Y-104616742D01*
X106570222Y-104599500D01*
X106349778Y-104599500D01*
X106277201Y-104610995D01*
X106132047Y-104633985D01*
X105922396Y-104702103D01*
X105922393Y-104702104D01*
X105725974Y-104802187D01*
X105547641Y-104931752D01*
X105547636Y-104931756D01*
X105391756Y-105087636D01*
X105391752Y-105087641D01*
X105262187Y-105265974D01*
X105162104Y-105462393D01*
X105162103Y-105462396D01*
X105093985Y-105672047D01*
X105059500Y-105889778D01*
X104379253Y-105889778D01*
X104348477Y-105695466D01*
X104340868Y-105672049D01*
X104285218Y-105500776D01*
X104251503Y-105434607D01*
X104192287Y-105318390D01*
X104154205Y-105265974D01*
X104071971Y-105152786D01*
X103927213Y-105008028D01*
X103761613Y-104887715D01*
X103761612Y-104887714D01*
X103761610Y-104887713D01*
X103702636Y-104857664D01*
X103579223Y-104794781D01*
X103384534Y-104731522D01*
X103198799Y-104702105D01*
X103182352Y-104699500D01*
X102977648Y-104699500D01*
X102961201Y-104702105D01*
X102775465Y-104731522D01*
X102580776Y-104794781D01*
X102398386Y-104887715D01*
X102232786Y-105008028D01*
X102088028Y-105152786D01*
X101967715Y-105318386D01*
X101874781Y-105500776D01*
X101811522Y-105695465D01*
X101779500Y-105897648D01*
X94220500Y-105897648D01*
X94220499Y-105897644D01*
X94188477Y-105695465D01*
X94125218Y-105500776D01*
X94091503Y-105434607D01*
X94032287Y-105318390D01*
X93994205Y-105265974D01*
X93911971Y-105152786D01*
X93767213Y-105008028D01*
X93601613Y-104887715D01*
X93601612Y-104887714D01*
X93601610Y-104887713D01*
X93542636Y-104857664D01*
X93419223Y-104794781D01*
X93224534Y-104731522D01*
X93038799Y-104702105D01*
X93022352Y-104699500D01*
X92817648Y-104699500D01*
X92801201Y-104702105D01*
X92615465Y-104731522D01*
X92420776Y-104794781D01*
X92238386Y-104887715D01*
X92072786Y-105008028D01*
X91928028Y-105152786D01*
X91807715Y-105318386D01*
X91714781Y-105500776D01*
X91651522Y-105695465D01*
X91619500Y-105897648D01*
X63605462Y-105897648D01*
X63536819Y-105829005D01*
X63503334Y-105767682D01*
X63500500Y-105741324D01*
X63500500Y-80124000D01*
X63520185Y-80056961D01*
X63572989Y-80011206D01*
X63624500Y-80000000D01*
X64519960Y-80000000D01*
X64586999Y-80019685D01*
X64632754Y-80072489D01*
X64643249Y-80137252D01*
X64639500Y-80172127D01*
X64639500Y-80172134D01*
X64639500Y-80172135D01*
X64639500Y-82267870D01*
X64639501Y-82267876D01*
X64645908Y-82327483D01*
X64696202Y-82462328D01*
X64696206Y-82462335D01*
X64782452Y-82577544D01*
X64782455Y-82577547D01*
X64897664Y-82663793D01*
X64897673Y-82663798D01*
X64934914Y-82677688D01*
X64990848Y-82719559D01*
X65015266Y-82785023D01*
X65000415Y-82853296D01*
X64979265Y-82881550D01*
X64948027Y-82912787D01*
X64827715Y-83078386D01*
X64734781Y-83260776D01*
X64671522Y-83455465D01*
X64639500Y-83657648D01*
X64639500Y-83862351D01*
X64671522Y-84064534D01*
X64734781Y-84259223D01*
X64793275Y-84374022D01*
X64824912Y-84436113D01*
X64827715Y-84441613D01*
X64948028Y-84607213D01*
X65092786Y-84751971D01*
X65247749Y-84864556D01*
X65258390Y-84872287D01*
X65349840Y-84918883D01*
X65351080Y-84919515D01*
X65401876Y-84967490D01*
X65418671Y-85035311D01*
X65396134Y-85101446D01*
X65351080Y-85140485D01*
X65258386Y-85187715D01*
X65092786Y-85308028D01*
X64948028Y-85452786D01*
X64827715Y-85618386D01*
X64734781Y-85800776D01*
X64671522Y-85995465D01*
X64639500Y-86197648D01*
X64639500Y-86402351D01*
X64671522Y-86604534D01*
X64734781Y-86799223D01*
X64827715Y-86981613D01*
X64948028Y-87147213D01*
X65092786Y-87291971D01*
X65247749Y-87404556D01*
X65258390Y-87412287D01*
X65349840Y-87458883D01*
X65351080Y-87459515D01*
X65401876Y-87507490D01*
X65418671Y-87575311D01*
X65396134Y-87641446D01*
X65351080Y-87680485D01*
X65258386Y-87727715D01*
X65092786Y-87848028D01*
X64948028Y-87992786D01*
X64827715Y-88158386D01*
X64734781Y-88340776D01*
X64671522Y-88535465D01*
X64639500Y-88737648D01*
X64639500Y-88942351D01*
X64671522Y-89144534D01*
X64734781Y-89339223D01*
X64827715Y-89521613D01*
X64948028Y-89687213D01*
X65092786Y-89831971D01*
X65247749Y-89944556D01*
X65258390Y-89952287D01*
X65349840Y-89998883D01*
X65351080Y-89999515D01*
X65401876Y-90047490D01*
X65418671Y-90115311D01*
X65396134Y-90181446D01*
X65351080Y-90220485D01*
X65258386Y-90267715D01*
X65092786Y-90388028D01*
X64948028Y-90532786D01*
X64827715Y-90698386D01*
X64734781Y-90880776D01*
X64671522Y-91075465D01*
X64639503Y-91277628D01*
X64639500Y-91277648D01*
X64639500Y-91482352D01*
X64642043Y-91498405D01*
X64671522Y-91684534D01*
X64734781Y-91879223D01*
X64775709Y-91959547D01*
X64819655Y-92045796D01*
X64827715Y-92061613D01*
X64948028Y-92227213D01*
X65092786Y-92371971D01*
X65247749Y-92484556D01*
X65258390Y-92492287D01*
X65349840Y-92538883D01*
X65351080Y-92539515D01*
X65401876Y-92587490D01*
X65418671Y-92655311D01*
X65396134Y-92721446D01*
X65351080Y-92760485D01*
X65258386Y-92807715D01*
X65092786Y-92928028D01*
X64948028Y-93072786D01*
X64827715Y-93238386D01*
X64734781Y-93420776D01*
X64671522Y-93615465D01*
X64639500Y-93817648D01*
X64639500Y-94022351D01*
X64671522Y-94224534D01*
X64734781Y-94419223D01*
X64827715Y-94601613D01*
X64948028Y-94767213D01*
X65092786Y-94911971D01*
X65247749Y-95024556D01*
X65258390Y-95032287D01*
X65349840Y-95078883D01*
X65351080Y-95079515D01*
X65401876Y-95127490D01*
X65418671Y-95195311D01*
X65396134Y-95261446D01*
X65351080Y-95300485D01*
X65258386Y-95347715D01*
X65092786Y-95468028D01*
X64948028Y-95612786D01*
X64827715Y-95778386D01*
X64734781Y-95960776D01*
X64671522Y-96155465D01*
X64639500Y-96357648D01*
X64639500Y-96562351D01*
X64671522Y-96764534D01*
X64734781Y-96959223D01*
X64827715Y-97141613D01*
X64948028Y-97307213D01*
X65092786Y-97451971D01*
X65247749Y-97564556D01*
X65258390Y-97572287D01*
X65330424Y-97608990D01*
X65351629Y-97619795D01*
X65402425Y-97667770D01*
X65419220Y-97735591D01*
X65396682Y-97801726D01*
X65351629Y-97840765D01*
X65258650Y-97888140D01*
X65093105Y-98008417D01*
X65093104Y-98008417D01*
X64948417Y-98153104D01*
X64948417Y-98153105D01*
X64828140Y-98318650D01*
X64735244Y-98500970D01*
X64672009Y-98695586D01*
X64663391Y-98750000D01*
X65764722Y-98750000D01*
X65720667Y-98826306D01*
X65690000Y-98940756D01*
X65690000Y-99059244D01*
X65720667Y-99173694D01*
X65764722Y-99250000D01*
X64663391Y-99250000D01*
X64672009Y-99304413D01*
X64735244Y-99499029D01*
X64828140Y-99681349D01*
X64948417Y-99846894D01*
X64948417Y-99846895D01*
X65093104Y-99991582D01*
X65258650Y-100111859D01*
X65440968Y-100204755D01*
X65635582Y-100267990D01*
X65837683Y-100300000D01*
X65890000Y-100300000D01*
X65890000Y-99375277D01*
X65966306Y-99419333D01*
X66080756Y-99450000D01*
X66199244Y-99450000D01*
X66313694Y-99419333D01*
X66390000Y-99375277D01*
X66390000Y-100300000D01*
X66442317Y-100300000D01*
X66644417Y-100267990D01*
X66839031Y-100204755D01*
X67021349Y-100111859D01*
X67186894Y-99991582D01*
X67186895Y-99991582D01*
X67331582Y-99846895D01*
X67331582Y-99846894D01*
X67451859Y-99681349D01*
X67544755Y-99499029D01*
X67607990Y-99304413D01*
X67616609Y-99250000D01*
X66515278Y-99250000D01*
X66559333Y-99173694D01*
X66590000Y-99059244D01*
X66590000Y-98940756D01*
X66559333Y-98826306D01*
X66515278Y-98750000D01*
X67616609Y-98750000D01*
X67607990Y-98695586D01*
X67544755Y-98500970D01*
X67451859Y-98318650D01*
X67331582Y-98153105D01*
X67331582Y-98153104D01*
X67186895Y-98008417D01*
X67021349Y-97888140D01*
X66928370Y-97840765D01*
X66877574Y-97792790D01*
X66860779Y-97724969D01*
X66883316Y-97658835D01*
X66928370Y-97619795D01*
X66928920Y-97619515D01*
X67021610Y-97572287D01*
X67042770Y-97556913D01*
X67187213Y-97451971D01*
X67187215Y-97451968D01*
X67187219Y-97451966D01*
X67331966Y-97307219D01*
X67331968Y-97307215D01*
X67331971Y-97307213D01*
X67384732Y-97234590D01*
X67452287Y-97141610D01*
X67545220Y-96959219D01*
X67608477Y-96764534D01*
X67640500Y-96562352D01*
X67640500Y-96357648D01*
X67608477Y-96155466D01*
X67545220Y-95960781D01*
X67545218Y-95960778D01*
X67545218Y-95960776D01*
X67511503Y-95894607D01*
X67452287Y-95778390D01*
X67444556Y-95767749D01*
X67331971Y-95612786D01*
X67187213Y-95468028D01*
X67021614Y-95347715D01*
X67015006Y-95344348D01*
X66928917Y-95300483D01*
X66878123Y-95252511D01*
X66861328Y-95184690D01*
X66883865Y-95118555D01*
X66928917Y-95079516D01*
X67021610Y-95032287D01*
X67042770Y-95016913D01*
X67187213Y-94911971D01*
X67187215Y-94911968D01*
X67187219Y-94911966D01*
X67331966Y-94767219D01*
X67331968Y-94767215D01*
X67331971Y-94767213D01*
X67384732Y-94694590D01*
X67452287Y-94601610D01*
X67545220Y-94419219D01*
X67608477Y-94224534D01*
X67640500Y-94022352D01*
X67640500Y-93817648D01*
X67608477Y-93615466D01*
X67545220Y-93420781D01*
X67545218Y-93420778D01*
X67545218Y-93420776D01*
X67511503Y-93354607D01*
X67452287Y-93238390D01*
X67444556Y-93227749D01*
X67331971Y-93072786D01*
X67187213Y-92928028D01*
X67021614Y-92807715D01*
X67015006Y-92804348D01*
X66928917Y-92760483D01*
X66878123Y-92712511D01*
X66861328Y-92644690D01*
X66883865Y-92578555D01*
X66928917Y-92539516D01*
X67021610Y-92492287D01*
X67042770Y-92476913D01*
X67187213Y-92371971D01*
X67187215Y-92371968D01*
X67187219Y-92371966D01*
X67331966Y-92227219D01*
X67331968Y-92227215D01*
X67331971Y-92227213D01*
X67384732Y-92154590D01*
X67452287Y-92061610D01*
X67545220Y-91879219D01*
X67608477Y-91684534D01*
X67640500Y-91482352D01*
X67640500Y-91277648D01*
X67608477Y-91075466D01*
X67545220Y-90880781D01*
X67545218Y-90880778D01*
X67545218Y-90880776D01*
X67511503Y-90814607D01*
X67452287Y-90698390D01*
X67444556Y-90687749D01*
X67331971Y-90532786D01*
X67187213Y-90388028D01*
X67021614Y-90267715D01*
X67015006Y-90264348D01*
X66928917Y-90220483D01*
X66878123Y-90172511D01*
X66861328Y-90104690D01*
X66883865Y-90038555D01*
X66928917Y-89999516D01*
X67021610Y-89952287D01*
X67125206Y-89877021D01*
X67187213Y-89831971D01*
X67187215Y-89831968D01*
X67187219Y-89831966D01*
X67331966Y-89687219D01*
X67331968Y-89687215D01*
X67331971Y-89687213D01*
X67411681Y-89577500D01*
X67452287Y-89521610D01*
X67545220Y-89339219D01*
X67608477Y-89144534D01*
X67640500Y-88942352D01*
X67640500Y-88737648D01*
X67608477Y-88535466D01*
X67545220Y-88340781D01*
X67545218Y-88340778D01*
X67545218Y-88340776D01*
X67511503Y-88274607D01*
X67452287Y-88158390D01*
X67444556Y-88147749D01*
X67331971Y-87992786D01*
X67187213Y-87848028D01*
X67021614Y-87727715D01*
X67015006Y-87724348D01*
X66928917Y-87680483D01*
X66878123Y-87632511D01*
X66861328Y-87564690D01*
X66883865Y-87498555D01*
X66928917Y-87459516D01*
X67021610Y-87412287D01*
X67042770Y-87396913D01*
X67187213Y-87291971D01*
X67187215Y-87291968D01*
X67187219Y-87291966D01*
X67331966Y-87147219D01*
X67331968Y-87147215D01*
X67331971Y-87147213D01*
X67384732Y-87074590D01*
X67452287Y-86981610D01*
X67545220Y-86799219D01*
X67608477Y-86604534D01*
X67640500Y-86402352D01*
X67640500Y-86197648D01*
X67608477Y-85995466D01*
X67601703Y-85974619D01*
X67567889Y-85870550D01*
X67545220Y-85800781D01*
X67545218Y-85800778D01*
X67545218Y-85800776D01*
X67511503Y-85734607D01*
X67452287Y-85618390D01*
X67402242Y-85549508D01*
X67331971Y-85452786D01*
X67187213Y-85308028D01*
X67021614Y-85187715D01*
X67015006Y-85184348D01*
X66928917Y-85140483D01*
X66878123Y-85092511D01*
X66861328Y-85024690D01*
X66883865Y-84958555D01*
X66928917Y-84919516D01*
X67021610Y-84872287D01*
X67042770Y-84856913D01*
X67187213Y-84751971D01*
X67187215Y-84751968D01*
X67187219Y-84751966D01*
X67331966Y-84607219D01*
X67331968Y-84607215D01*
X67331971Y-84607213D01*
X67395420Y-84519881D01*
X67452287Y-84441610D01*
X67545220Y-84259219D01*
X67608477Y-84064534D01*
X67640500Y-83862352D01*
X67640500Y-83657648D01*
X67616745Y-83507669D01*
X67608477Y-83455465D01*
X67570738Y-83339318D01*
X67545220Y-83260781D01*
X67545218Y-83260778D01*
X67545218Y-83260776D01*
X67511503Y-83194607D01*
X67452287Y-83078390D01*
X67444556Y-83067749D01*
X67331971Y-82912786D01*
X67300736Y-82881551D01*
X67267251Y-82820228D01*
X67272235Y-82750536D01*
X67314107Y-82694603D01*
X67345080Y-82677689D01*
X67382331Y-82663796D01*
X67497546Y-82577546D01*
X67583796Y-82462331D01*
X67634091Y-82327483D01*
X67640500Y-82267873D01*
X67640499Y-80172128D01*
X67636750Y-80137253D01*
X67649157Y-80068494D01*
X67696767Y-80017358D01*
X67760040Y-80000000D01*
X87885009Y-80000000D01*
X87952048Y-80019685D01*
X87997803Y-80072489D01*
X88007747Y-80141647D01*
X87978722Y-80205203D01*
X87957896Y-80224317D01*
X87952784Y-80228031D01*
X87952782Y-80228032D01*
X87808028Y-80372786D01*
X87687715Y-80538386D01*
X87594781Y-80720776D01*
X87531522Y-80915465D01*
X87499500Y-81117648D01*
X87499500Y-81322351D01*
X87531522Y-81524534D01*
X87594781Y-81719223D01*
X87687715Y-81901613D01*
X87808028Y-82067213D01*
X87952786Y-82211971D01*
X88107749Y-82324556D01*
X88118390Y-82332287D01*
X88209840Y-82378883D01*
X88211080Y-82379515D01*
X88261876Y-82427490D01*
X88278671Y-82495311D01*
X88256134Y-82561446D01*
X88211080Y-82600485D01*
X88118386Y-82647715D01*
X87952786Y-82768028D01*
X87808028Y-82912786D01*
X87687715Y-83078386D01*
X87594781Y-83260776D01*
X87531522Y-83455465D01*
X87499500Y-83657648D01*
X87499500Y-83862351D01*
X87531522Y-84064534D01*
X87594781Y-84259223D01*
X87653275Y-84374022D01*
X87684912Y-84436113D01*
X87687715Y-84441613D01*
X87808028Y-84607213D01*
X87952786Y-84751971D01*
X88107749Y-84864556D01*
X88118390Y-84872287D01*
X88209840Y-84918883D01*
X88211080Y-84919515D01*
X88261876Y-84967490D01*
X88278671Y-85035311D01*
X88256134Y-85101446D01*
X88211080Y-85140485D01*
X88118386Y-85187715D01*
X87952786Y-85308028D01*
X87808028Y-85452786D01*
X87687715Y-85618386D01*
X87594781Y-85800776D01*
X87531522Y-85995465D01*
X87499500Y-86197648D01*
X87499500Y-86402351D01*
X87531522Y-86604534D01*
X87594781Y-86799223D01*
X87687715Y-86981613D01*
X87808028Y-87147213D01*
X87952786Y-87291971D01*
X88107749Y-87404556D01*
X88118390Y-87412287D01*
X88209840Y-87458883D01*
X88211080Y-87459515D01*
X88261876Y-87507490D01*
X88278671Y-87575311D01*
X88256134Y-87641446D01*
X88211080Y-87680485D01*
X88118386Y-87727715D01*
X87952786Y-87848028D01*
X87808028Y-87992786D01*
X87687715Y-88158386D01*
X87594781Y-88340776D01*
X87531522Y-88535465D01*
X87499500Y-88737648D01*
X87499500Y-88942351D01*
X87531522Y-89144534D01*
X87594781Y-89339223D01*
X87687715Y-89521613D01*
X87808028Y-89687213D01*
X87952786Y-89831971D01*
X88107749Y-89944556D01*
X88118390Y-89952287D01*
X88209840Y-89998883D01*
X88211080Y-89999515D01*
X88261876Y-90047490D01*
X88278671Y-90115311D01*
X88256134Y-90181446D01*
X88211080Y-90220485D01*
X88118386Y-90267715D01*
X87952786Y-90388028D01*
X87808028Y-90532786D01*
X87687715Y-90698386D01*
X87594781Y-90880776D01*
X87531522Y-91075465D01*
X87499503Y-91277628D01*
X87499500Y-91277648D01*
X87499500Y-91482352D01*
X87502043Y-91498405D01*
X87531522Y-91684534D01*
X87594781Y-91879223D01*
X87635709Y-91959547D01*
X87679655Y-92045796D01*
X87687715Y-92061613D01*
X87808028Y-92227213D01*
X87952786Y-92371971D01*
X88107749Y-92484556D01*
X88118390Y-92492287D01*
X88209840Y-92538883D01*
X88211080Y-92539515D01*
X88261876Y-92587490D01*
X88278671Y-92655311D01*
X88256134Y-92721446D01*
X88211080Y-92760485D01*
X88118386Y-92807715D01*
X87952786Y-92928028D01*
X87808028Y-93072786D01*
X87687715Y-93238386D01*
X87594781Y-93420776D01*
X87531522Y-93615465D01*
X87499500Y-93817648D01*
X87499500Y-94022351D01*
X87531522Y-94224534D01*
X87594781Y-94419223D01*
X87687715Y-94601613D01*
X87808028Y-94767213D01*
X87952786Y-94911971D01*
X88107749Y-95024556D01*
X88118390Y-95032287D01*
X88209840Y-95078883D01*
X88211080Y-95079515D01*
X88261876Y-95127490D01*
X88278671Y-95195311D01*
X88256134Y-95261446D01*
X88211080Y-95300485D01*
X88118386Y-95347715D01*
X87952786Y-95468028D01*
X87808028Y-95612786D01*
X87687715Y-95778386D01*
X87594781Y-95960776D01*
X87531522Y-96155465D01*
X87499500Y-96357648D01*
X87499500Y-96562351D01*
X87531522Y-96764534D01*
X87594781Y-96959223D01*
X87687715Y-97141613D01*
X87808028Y-97307213D01*
X87952786Y-97451971D01*
X88107749Y-97564556D01*
X88118390Y-97572287D01*
X88209840Y-97618883D01*
X88211080Y-97619515D01*
X88261876Y-97667490D01*
X88278671Y-97735311D01*
X88256134Y-97801446D01*
X88211080Y-97840485D01*
X88118386Y-97887715D01*
X87952786Y-98008028D01*
X87808028Y-98152786D01*
X87687715Y-98318386D01*
X87594781Y-98500776D01*
X87531522Y-98695465D01*
X87499500Y-98897648D01*
X87499500Y-99102351D01*
X87531522Y-99304534D01*
X87594781Y-99499223D01*
X87687715Y-99681613D01*
X87808028Y-99847213D01*
X87952786Y-99991971D01*
X88082879Y-100086487D01*
X88118390Y-100112287D01*
X88234607Y-100171503D01*
X88300776Y-100205218D01*
X88300778Y-100205218D01*
X88300781Y-100205220D01*
X88373359Y-100228802D01*
X88495465Y-100268477D01*
X88596557Y-100284488D01*
X88697648Y-100300500D01*
X88697649Y-100300500D01*
X89302351Y-100300500D01*
X89302352Y-100300500D01*
X89504534Y-100268477D01*
X89699219Y-100205220D01*
X89728825Y-100190135D01*
X94387500Y-100190135D01*
X94387500Y-101809870D01*
X94387501Y-101809876D01*
X94393908Y-101869483D01*
X94444202Y-102004328D01*
X94444206Y-102004335D01*
X94530452Y-102119544D01*
X94530455Y-102119547D01*
X94645664Y-102205793D01*
X94645671Y-102205797D01*
X94780517Y-102256091D01*
X94780516Y-102256091D01*
X94787444Y-102256835D01*
X94840127Y-102262500D01*
X96459872Y-102262499D01*
X96519483Y-102256091D01*
X96654331Y-102205796D01*
X96769546Y-102119546D01*
X96855796Y-102004331D01*
X96906091Y-101869483D01*
X96912500Y-101809873D01*
X96912499Y-101771197D01*
X96932182Y-101704161D01*
X96984985Y-101658405D01*
X97054143Y-101648460D01*
X97117699Y-101677483D01*
X97136817Y-101698312D01*
X97227019Y-101822464D01*
X97367536Y-101962981D01*
X97528306Y-102079787D01*
X97606333Y-102119544D01*
X97705367Y-102170005D01*
X97705370Y-102170006D01*
X97799866Y-102200709D01*
X97894364Y-102231413D01*
X98090639Y-102262500D01*
X98090640Y-102262500D01*
X98289360Y-102262500D01*
X98289361Y-102262500D01*
X98485636Y-102231413D01*
X98674632Y-102170005D01*
X98851694Y-102079787D01*
X99012464Y-101962981D01*
X99152981Y-101822464D01*
X99269787Y-101661694D01*
X99349796Y-101504667D01*
X99397769Y-101453872D01*
X99465590Y-101437077D01*
X99531725Y-101459614D01*
X99570765Y-101504668D01*
X99650641Y-101661432D01*
X99677730Y-101698715D01*
X99677731Y-101698716D01*
X100240504Y-101135942D01*
X100256619Y-101196081D01*
X100323498Y-101311920D01*
X100418080Y-101406502D01*
X100533919Y-101473381D01*
X100594057Y-101489494D01*
X100031283Y-102052268D01*
X100031283Y-102052269D01*
X100068567Y-102079358D01*
X100245562Y-102169542D01*
X100434477Y-102230924D01*
X100630679Y-102262000D01*
X100829321Y-102262000D01*
X101025520Y-102230924D01*
X101025523Y-102230924D01*
X101214437Y-102169542D01*
X101391425Y-102079362D01*
X101428716Y-102052268D01*
X100865942Y-101489494D01*
X100926081Y-101473381D01*
X101041920Y-101406502D01*
X101136502Y-101311920D01*
X101203381Y-101196081D01*
X101219495Y-101135942D01*
X101782268Y-101698715D01*
X101809364Y-101661422D01*
X101889234Y-101504669D01*
X101937208Y-101453872D01*
X102005029Y-101437077D01*
X102071164Y-101459614D01*
X102110203Y-101504667D01*
X102190213Y-101661694D01*
X102307019Y-101822464D01*
X102447536Y-101962981D01*
X102608306Y-102079787D01*
X102686333Y-102119544D01*
X102785367Y-102170005D01*
X102785370Y-102170006D01*
X102879866Y-102200709D01*
X102974364Y-102231413D01*
X103170639Y-102262500D01*
X103170640Y-102262500D01*
X103369360Y-102262500D01*
X103369361Y-102262500D01*
X103565636Y-102231413D01*
X103754632Y-102170005D01*
X103931694Y-102079787D01*
X104092464Y-101962981D01*
X104232981Y-101822464D01*
X104349787Y-101661694D01*
X104429515Y-101505218D01*
X104477490Y-101454423D01*
X104545311Y-101437628D01*
X104611446Y-101460165D01*
X104650484Y-101505218D01*
X104730213Y-101661694D01*
X104847019Y-101822464D01*
X104987536Y-101962981D01*
X105148306Y-102079787D01*
X105226333Y-102119544D01*
X105325367Y-102170005D01*
X105325370Y-102170006D01*
X105419866Y-102200709D01*
X105514364Y-102231413D01*
X105710639Y-102262500D01*
X105710640Y-102262500D01*
X105909360Y-102262500D01*
X105909361Y-102262500D01*
X106105636Y-102231413D01*
X106294632Y-102170005D01*
X106471694Y-102079787D01*
X106632464Y-101962981D01*
X106772981Y-101822464D01*
X106889787Y-101661694D01*
X106969515Y-101505218D01*
X107017490Y-101454423D01*
X107085311Y-101437628D01*
X107151446Y-101460165D01*
X107190484Y-101505218D01*
X107270213Y-101661694D01*
X107387019Y-101822464D01*
X107527536Y-101962981D01*
X107688306Y-102079787D01*
X107766333Y-102119544D01*
X107865367Y-102170005D01*
X107865370Y-102170006D01*
X107959866Y-102200709D01*
X108054364Y-102231413D01*
X108250639Y-102262500D01*
X108250640Y-102262500D01*
X108449360Y-102262500D01*
X108449361Y-102262500D01*
X108645636Y-102231413D01*
X108834632Y-102170005D01*
X109011694Y-102079787D01*
X109172464Y-101962981D01*
X109312981Y-101822464D01*
X109429787Y-101661694D01*
X109520005Y-101484632D01*
X109581413Y-101295636D01*
X109612500Y-101099361D01*
X109612500Y-100900639D01*
X109581413Y-100704364D01*
X109520005Y-100515368D01*
X109520005Y-100515367D01*
X109474035Y-100425149D01*
X109429787Y-100338306D01*
X109312981Y-100177536D01*
X109172464Y-100037019D01*
X109011694Y-99920213D01*
X108834632Y-99829994D01*
X108834629Y-99829993D01*
X108645637Y-99768587D01*
X108547498Y-99753043D01*
X108449361Y-99737500D01*
X108250639Y-99737500D01*
X108185214Y-99747862D01*
X108054362Y-99768587D01*
X107865370Y-99829993D01*
X107865367Y-99829994D01*
X107688305Y-99920213D01*
X107527533Y-100037021D01*
X107387021Y-100177533D01*
X107270213Y-100338305D01*
X107190485Y-100494780D01*
X107142510Y-100545576D01*
X107074689Y-100562371D01*
X107008554Y-100539833D01*
X106969515Y-100494780D01*
X106950179Y-100456832D01*
X106889787Y-100338306D01*
X106772981Y-100177536D01*
X106632464Y-100037019D01*
X106471694Y-99920213D01*
X106294632Y-99829994D01*
X106294629Y-99829993D01*
X106105637Y-99768587D01*
X106007498Y-99753043D01*
X105909361Y-99737500D01*
X105710639Y-99737500D01*
X105645214Y-99747862D01*
X105514362Y-99768587D01*
X105325370Y-99829993D01*
X105325367Y-99829994D01*
X105148305Y-99920213D01*
X104987533Y-100037021D01*
X104847021Y-100177533D01*
X104730213Y-100338305D01*
X104650485Y-100494780D01*
X104602510Y-100545576D01*
X104534689Y-100562371D01*
X104468554Y-100539833D01*
X104429515Y-100494780D01*
X104410179Y-100456832D01*
X104349787Y-100338306D01*
X104232981Y-100177536D01*
X104092464Y-100037019D01*
X103931694Y-99920213D01*
X103754632Y-99829994D01*
X103754629Y-99829993D01*
X103565637Y-99768587D01*
X103467498Y-99753043D01*
X103369361Y-99737500D01*
X103170639Y-99737500D01*
X103105214Y-99747862D01*
X102974362Y-99768587D01*
X102785370Y-99829993D01*
X102785367Y-99829994D01*
X102608305Y-99920213D01*
X102447533Y-100037021D01*
X102307021Y-100177533D01*
X102190213Y-100338305D01*
X102110204Y-100495331D01*
X102062229Y-100546127D01*
X101994408Y-100562922D01*
X101928273Y-100540384D01*
X101889234Y-100495331D01*
X101809358Y-100338567D01*
X101782268Y-100301283D01*
X101219494Y-100864057D01*
X101203381Y-100803919D01*
X101136502Y-100688080D01*
X101041920Y-100593498D01*
X100926081Y-100526619D01*
X100865942Y-100510504D01*
X101428716Y-99947731D01*
X101428715Y-99947730D01*
X101391432Y-99920641D01*
X101214437Y-99830457D01*
X101025522Y-99769075D01*
X100829321Y-99738000D01*
X100630679Y-99738000D01*
X100434479Y-99769075D01*
X100434476Y-99769075D01*
X100245562Y-99830457D01*
X100068564Y-99920643D01*
X100031283Y-99947729D01*
X100031282Y-99947730D01*
X100594058Y-100510504D01*
X100533919Y-100526619D01*
X100418080Y-100593498D01*
X100323498Y-100688080D01*
X100256619Y-100803919D01*
X100240504Y-100864057D01*
X99677730Y-100301282D01*
X99677729Y-100301283D01*
X99650641Y-100338566D01*
X99570764Y-100495332D01*
X99522790Y-100546127D01*
X99454969Y-100562922D01*
X99388834Y-100540384D01*
X99349796Y-100495332D01*
X99269787Y-100338306D01*
X99152981Y-100177536D01*
X99012464Y-100037019D01*
X98851694Y-99920213D01*
X98674632Y-99829994D01*
X98674629Y-99829993D01*
X98485637Y-99768587D01*
X98387498Y-99753043D01*
X98289361Y-99737500D01*
X98090639Y-99737500D01*
X98025214Y-99747862D01*
X97894362Y-99768587D01*
X97705370Y-99829993D01*
X97705367Y-99829994D01*
X97528305Y-99920213D01*
X97367533Y-100037021D01*
X97227021Y-100177533D01*
X97227021Y-100177534D01*
X97227019Y-100177536D01*
X97189772Y-100228802D01*
X97136817Y-100301688D01*
X97081487Y-100344353D01*
X97011873Y-100350332D01*
X96950078Y-100317726D01*
X96915721Y-100256887D01*
X96912499Y-100228802D01*
X96912499Y-100190129D01*
X96912498Y-100190123D01*
X96912497Y-100190116D01*
X96906091Y-100130517D01*
X96871219Y-100037021D01*
X96855797Y-99995671D01*
X96855793Y-99995664D01*
X96769547Y-99880455D01*
X96769544Y-99880452D01*
X96654335Y-99794206D01*
X96654328Y-99794202D01*
X96519482Y-99743908D01*
X96519483Y-99743908D01*
X96459883Y-99737501D01*
X96459881Y-99737500D01*
X96459873Y-99737500D01*
X96459864Y-99737500D01*
X94840129Y-99737500D01*
X94840123Y-99737501D01*
X94780516Y-99743908D01*
X94645671Y-99794202D01*
X94645664Y-99794206D01*
X94530455Y-99880452D01*
X94530452Y-99880455D01*
X94444206Y-99995664D01*
X94444202Y-99995671D01*
X94393908Y-100130517D01*
X94387501Y-100190116D01*
X94387501Y-100190123D01*
X94387500Y-100190135D01*
X89728825Y-100190135D01*
X89881610Y-100112287D01*
X89896384Y-100101552D01*
X89917122Y-100086487D01*
X89917122Y-100086486D01*
X89985206Y-100037021D01*
X90047219Y-99991966D01*
X90191966Y-99847219D01*
X90191968Y-99847215D01*
X90191971Y-99847213D01*
X90267025Y-99743908D01*
X90312287Y-99681610D01*
X90405220Y-99499219D01*
X90468477Y-99304534D01*
X90500500Y-99102352D01*
X90500500Y-98897648D01*
X90489200Y-98826306D01*
X90468477Y-98695465D01*
X90439127Y-98605137D01*
X90405220Y-98500781D01*
X90405218Y-98500778D01*
X90405218Y-98500776D01*
X90312419Y-98318650D01*
X90312287Y-98318390D01*
X90304556Y-98307749D01*
X90191971Y-98152786D01*
X90047213Y-98008028D01*
X89881614Y-97887715D01*
X89875006Y-97884348D01*
X89788917Y-97840483D01*
X89738123Y-97792511D01*
X89721328Y-97724690D01*
X89743865Y-97658555D01*
X89788917Y-97619516D01*
X89881610Y-97572287D01*
X89902770Y-97556913D01*
X90047213Y-97451971D01*
X90047215Y-97451968D01*
X90047219Y-97451966D01*
X90191966Y-97307219D01*
X90191968Y-97307215D01*
X90191971Y-97307213D01*
X90244732Y-97234590D01*
X90312287Y-97141610D01*
X90405220Y-96959219D01*
X90468477Y-96764534D01*
X90500500Y-96562352D01*
X90500500Y-96357648D01*
X90468477Y-96155466D01*
X90405220Y-95960781D01*
X90405218Y-95960778D01*
X90405218Y-95960776D01*
X90371503Y-95894607D01*
X90312287Y-95778390D01*
X90304556Y-95767749D01*
X90191971Y-95612786D01*
X90047213Y-95468028D01*
X89881614Y-95347715D01*
X89875006Y-95344348D01*
X89788917Y-95300483D01*
X89738123Y-95252511D01*
X89721328Y-95184690D01*
X89743865Y-95118555D01*
X89788917Y-95079516D01*
X89881610Y-95032287D01*
X89902770Y-95016913D01*
X90047213Y-94911971D01*
X90047215Y-94911968D01*
X90047219Y-94911966D01*
X90191966Y-94767219D01*
X90191968Y-94767215D01*
X90191971Y-94767213D01*
X90244732Y-94694590D01*
X90312287Y-94601610D01*
X90405220Y-94419219D01*
X90468477Y-94224534D01*
X90500500Y-94022352D01*
X90500500Y-93817648D01*
X90468477Y-93615466D01*
X90405220Y-93420781D01*
X90405218Y-93420778D01*
X90405218Y-93420776D01*
X90371503Y-93354607D01*
X90312287Y-93238390D01*
X90304556Y-93227749D01*
X90191971Y-93072786D01*
X90047213Y-92928028D01*
X89881614Y-92807715D01*
X89875006Y-92804348D01*
X89788917Y-92760483D01*
X89738123Y-92712511D01*
X89721328Y-92644690D01*
X89743865Y-92578555D01*
X89788917Y-92539516D01*
X89881610Y-92492287D01*
X89902770Y-92476913D01*
X90047213Y-92371971D01*
X90047215Y-92371968D01*
X90047219Y-92371966D01*
X90191966Y-92227219D01*
X90191968Y-92227215D01*
X90191971Y-92227213D01*
X90244732Y-92154590D01*
X90312287Y-92061610D01*
X90405220Y-91879219D01*
X90468477Y-91684534D01*
X90500500Y-91482352D01*
X90500500Y-91277648D01*
X90468477Y-91075466D01*
X90405220Y-90880781D01*
X90405218Y-90880778D01*
X90405218Y-90880776D01*
X90371503Y-90814607D01*
X90312287Y-90698390D01*
X90304556Y-90687749D01*
X90191971Y-90532786D01*
X90047213Y-90388028D01*
X89881614Y-90267715D01*
X89875006Y-90264348D01*
X89788917Y-90220483D01*
X89782026Y-90213975D01*
X89773077Y-90210857D01*
X89757041Y-90190378D01*
X89738123Y-90172511D01*
X89735843Y-90163307D01*
X89730001Y-90155846D01*
X89727582Y-90129944D01*
X89721328Y-90104690D01*
X89724385Y-90095717D01*
X89723504Y-90086279D01*
X89735474Y-90063178D01*
X89743865Y-90038555D01*
X89752142Y-90031009D01*
X89752595Y-90030135D01*
X94387500Y-90030135D01*
X94387500Y-91649870D01*
X94387501Y-91649876D01*
X94393908Y-91709483D01*
X94444202Y-91844328D01*
X94444206Y-91844335D01*
X94530452Y-91959544D01*
X94530455Y-91959547D01*
X94645664Y-92045793D01*
X94645671Y-92045797D01*
X94780517Y-92096091D01*
X94780516Y-92096091D01*
X94787444Y-92096835D01*
X94840127Y-92102500D01*
X96459872Y-92102499D01*
X96519483Y-92096091D01*
X96654331Y-92045796D01*
X96769546Y-91959546D01*
X96855796Y-91844331D01*
X96906091Y-91709483D01*
X96912500Y-91649873D01*
X96912499Y-91611197D01*
X96932182Y-91544161D01*
X96984985Y-91498405D01*
X97054143Y-91488460D01*
X97117699Y-91517483D01*
X97136817Y-91538312D01*
X97227019Y-91662464D01*
X97367536Y-91802981D01*
X97528306Y-91919787D01*
X97606333Y-91959544D01*
X97705367Y-92010005D01*
X97705370Y-92010006D01*
X97799866Y-92040709D01*
X97894364Y-92071413D01*
X98090639Y-92102500D01*
X98090640Y-92102500D01*
X98289360Y-92102500D01*
X98289361Y-92102500D01*
X98485636Y-92071413D01*
X98674632Y-92010005D01*
X98851694Y-91919787D01*
X99012464Y-91802981D01*
X99152981Y-91662464D01*
X99269787Y-91501694D01*
X99349515Y-91345218D01*
X99397490Y-91294423D01*
X99465311Y-91277628D01*
X99531446Y-91300165D01*
X99570484Y-91345218D01*
X99650213Y-91501694D01*
X99767019Y-91662464D01*
X99907536Y-91802981D01*
X100068306Y-91919787D01*
X100146333Y-91959544D01*
X100245367Y-92010005D01*
X100245370Y-92010006D01*
X100339866Y-92040709D01*
X100434364Y-92071413D01*
X100630639Y-92102500D01*
X100630640Y-92102500D01*
X100829360Y-92102500D01*
X100829361Y-92102500D01*
X101025636Y-92071413D01*
X101214632Y-92010005D01*
X101391694Y-91919787D01*
X101552464Y-91802981D01*
X101692981Y-91662464D01*
X101809787Y-91501694D01*
X101889515Y-91345218D01*
X101937490Y-91294423D01*
X102005311Y-91277628D01*
X102071446Y-91300165D01*
X102110484Y-91345218D01*
X102190213Y-91501694D01*
X102307019Y-91662464D01*
X102447536Y-91802981D01*
X102608306Y-91919787D01*
X102686333Y-91959544D01*
X102785367Y-92010005D01*
X102785370Y-92010006D01*
X102879866Y-92040709D01*
X102974364Y-92071413D01*
X103170639Y-92102500D01*
X103170640Y-92102500D01*
X103369360Y-92102500D01*
X103369361Y-92102500D01*
X103565636Y-92071413D01*
X103754632Y-92010005D01*
X103931694Y-91919787D01*
X104092464Y-91802981D01*
X104232981Y-91662464D01*
X104349787Y-91501694D01*
X104429515Y-91345218D01*
X104477490Y-91294423D01*
X104545311Y-91277628D01*
X104611446Y-91300165D01*
X104650484Y-91345218D01*
X104730213Y-91501694D01*
X104847019Y-91662464D01*
X104987536Y-91802981D01*
X105148306Y-91919787D01*
X105226333Y-91959544D01*
X105325367Y-92010005D01*
X105325370Y-92010006D01*
X105419866Y-92040709D01*
X105514364Y-92071413D01*
X105710639Y-92102500D01*
X105710640Y-92102500D01*
X105909360Y-92102500D01*
X105909361Y-92102500D01*
X106105636Y-92071413D01*
X106294632Y-92010005D01*
X106471694Y-91919787D01*
X106632464Y-91802981D01*
X106772981Y-91662464D01*
X106889787Y-91501694D01*
X106969515Y-91345218D01*
X107017490Y-91294423D01*
X107085311Y-91277628D01*
X107151446Y-91300165D01*
X107190484Y-91345218D01*
X107270213Y-91501694D01*
X107387019Y-91662464D01*
X107527536Y-91802981D01*
X107688306Y-91919787D01*
X107766333Y-91959544D01*
X107865367Y-92010005D01*
X107865370Y-92010006D01*
X107959866Y-92040709D01*
X108054364Y-92071413D01*
X108250639Y-92102500D01*
X108250640Y-92102500D01*
X108449360Y-92102500D01*
X108449361Y-92102500D01*
X108645636Y-92071413D01*
X108834632Y-92010005D01*
X109011694Y-91919787D01*
X109172464Y-91802981D01*
X109312981Y-91662464D01*
X109429787Y-91501694D01*
X109520005Y-91324632D01*
X109581413Y-91135636D01*
X109612500Y-90939361D01*
X109612500Y-90740639D01*
X109581413Y-90544364D01*
X109520005Y-90355368D01*
X109520005Y-90355367D01*
X109447961Y-90213975D01*
X109429787Y-90178306D01*
X109312981Y-90017536D01*
X109172464Y-89877019D01*
X109011694Y-89760213D01*
X108834632Y-89669994D01*
X108834629Y-89669993D01*
X108645637Y-89608587D01*
X108547498Y-89593043D01*
X108449361Y-89577500D01*
X108250639Y-89577500D01*
X108185214Y-89587862D01*
X108054362Y-89608587D01*
X107865370Y-89669993D01*
X107865367Y-89669994D01*
X107688305Y-89760213D01*
X107527533Y-89877021D01*
X107387021Y-90017533D01*
X107270213Y-90178305D01*
X107190485Y-90334780D01*
X107142510Y-90385576D01*
X107074689Y-90402371D01*
X107008554Y-90379833D01*
X106969515Y-90334780D01*
X106907961Y-90213975D01*
X106889787Y-90178306D01*
X106772981Y-90017536D01*
X106632464Y-89877019D01*
X106471694Y-89760213D01*
X106294632Y-89669994D01*
X106294629Y-89669993D01*
X106105637Y-89608587D01*
X106007498Y-89593043D01*
X105909361Y-89577500D01*
X105710639Y-89577500D01*
X105645214Y-89587862D01*
X105514362Y-89608587D01*
X105325370Y-89669993D01*
X105325367Y-89669994D01*
X105148305Y-89760213D01*
X104987533Y-89877021D01*
X104847021Y-90017533D01*
X104730213Y-90178305D01*
X104650485Y-90334780D01*
X104602510Y-90385576D01*
X104534689Y-90402371D01*
X104468554Y-90379833D01*
X104429515Y-90334780D01*
X104367961Y-90213975D01*
X104349787Y-90178306D01*
X104232981Y-90017536D01*
X104092464Y-89877019D01*
X103931694Y-89760213D01*
X103754632Y-89669994D01*
X103754629Y-89669993D01*
X103565637Y-89608587D01*
X103467498Y-89593043D01*
X103369361Y-89577500D01*
X103170639Y-89577500D01*
X103105214Y-89587862D01*
X102974362Y-89608587D01*
X102785370Y-89669993D01*
X102785367Y-89669994D01*
X102608305Y-89760213D01*
X102447533Y-89877021D01*
X102307021Y-90017533D01*
X102190213Y-90178305D01*
X102110485Y-90334780D01*
X102062510Y-90385576D01*
X101994689Y-90402371D01*
X101928554Y-90379833D01*
X101889515Y-90334780D01*
X101827961Y-90213975D01*
X101809787Y-90178306D01*
X101692981Y-90017536D01*
X101552464Y-89877019D01*
X101391694Y-89760213D01*
X101214632Y-89669994D01*
X101214629Y-89669993D01*
X101025637Y-89608587D01*
X100927498Y-89593043D01*
X100829361Y-89577500D01*
X100630639Y-89577500D01*
X100565214Y-89587862D01*
X100434362Y-89608587D01*
X100245370Y-89669993D01*
X100245367Y-89669994D01*
X100068305Y-89760213D01*
X99907533Y-89877021D01*
X99767021Y-90017533D01*
X99650213Y-90178305D01*
X99570485Y-90334780D01*
X99522510Y-90385576D01*
X99454689Y-90402371D01*
X99388554Y-90379833D01*
X99349515Y-90334780D01*
X99287961Y-90213975D01*
X99269787Y-90178306D01*
X99152981Y-90017536D01*
X99012464Y-89877019D01*
X98851694Y-89760213D01*
X98674632Y-89669994D01*
X98674629Y-89669993D01*
X98485637Y-89608587D01*
X98387498Y-89593043D01*
X98289361Y-89577500D01*
X98090639Y-89577500D01*
X98025214Y-89587862D01*
X97894362Y-89608587D01*
X97705370Y-89669993D01*
X97705367Y-89669994D01*
X97528305Y-89760213D01*
X97367533Y-89877021D01*
X97227021Y-90017533D01*
X97227021Y-90017534D01*
X97227019Y-90017536D01*
X97205256Y-90047490D01*
X97136817Y-90141688D01*
X97081487Y-90184353D01*
X97011873Y-90190332D01*
X96950078Y-90157726D01*
X96915721Y-90096887D01*
X96912499Y-90068802D01*
X96912499Y-90030129D01*
X96912498Y-90030123D01*
X96912497Y-90030116D01*
X96906091Y-89970517D01*
X96871219Y-89877021D01*
X96855797Y-89835671D01*
X96855793Y-89835664D01*
X96769547Y-89720455D01*
X96769544Y-89720452D01*
X96654335Y-89634206D01*
X96654328Y-89634202D01*
X96519482Y-89583908D01*
X96519483Y-89583908D01*
X96459883Y-89577501D01*
X96459881Y-89577500D01*
X96459873Y-89577500D01*
X96459864Y-89577500D01*
X94840129Y-89577500D01*
X94840123Y-89577501D01*
X94780516Y-89583908D01*
X94645671Y-89634202D01*
X94645664Y-89634206D01*
X94530455Y-89720452D01*
X94530452Y-89720455D01*
X94444206Y-89835664D01*
X94444202Y-89835671D01*
X94393908Y-89970517D01*
X94387501Y-90030116D01*
X94387501Y-90030123D01*
X94387500Y-90030135D01*
X89752595Y-90030135D01*
X89755649Y-90024243D01*
X89776871Y-90008469D01*
X89783438Y-90002484D01*
X89786140Y-90000931D01*
X89881610Y-89952287D01*
X89922480Y-89922592D01*
X89922484Y-89922591D01*
X90047212Y-89831971D01*
X90047210Y-89831971D01*
X90047219Y-89831966D01*
X90191966Y-89687219D01*
X90191968Y-89687215D01*
X90191971Y-89687213D01*
X90271681Y-89577500D01*
X90312287Y-89521610D01*
X90405220Y-89339219D01*
X90468477Y-89144534D01*
X90500500Y-88942352D01*
X90500500Y-88737648D01*
X90468477Y-88535466D01*
X90405220Y-88340781D01*
X90405218Y-88340778D01*
X90405218Y-88340776D01*
X90371503Y-88274607D01*
X90312287Y-88158390D01*
X90304556Y-88147749D01*
X90191971Y-87992786D01*
X90047213Y-87848028D01*
X89881614Y-87727715D01*
X89875006Y-87724348D01*
X89788917Y-87680483D01*
X89738123Y-87632511D01*
X89721328Y-87564690D01*
X89743865Y-87498555D01*
X89788917Y-87459516D01*
X89881610Y-87412287D01*
X89902770Y-87396913D01*
X90047213Y-87291971D01*
X90047215Y-87291968D01*
X90047219Y-87291966D01*
X90191966Y-87147219D01*
X90191968Y-87147215D01*
X90191971Y-87147213D01*
X90244732Y-87074590D01*
X90312287Y-86981610D01*
X90405220Y-86799219D01*
X90468477Y-86604534D01*
X90500500Y-86402352D01*
X90500500Y-86197648D01*
X90468477Y-85995466D01*
X90461703Y-85974619D01*
X90427889Y-85870550D01*
X90405220Y-85800781D01*
X90405218Y-85800778D01*
X90405218Y-85800776D01*
X90371503Y-85734607D01*
X90312287Y-85618390D01*
X90262242Y-85549508D01*
X90191971Y-85452786D01*
X90047213Y-85308028D01*
X89881614Y-85187715D01*
X89875006Y-85184348D01*
X89788917Y-85140483D01*
X89738123Y-85092511D01*
X89721328Y-85024690D01*
X89743865Y-84958555D01*
X89788917Y-84919516D01*
X89856060Y-84885305D01*
X92750000Y-84885305D01*
X92750000Y-85114694D01*
X92750001Y-85114710D01*
X92779942Y-85342137D01*
X92839318Y-85563730D01*
X92927102Y-85775659D01*
X92927106Y-85775669D01*
X93041799Y-85974324D01*
X93041805Y-85974331D01*
X93098381Y-86048064D01*
X93935387Y-85211058D01*
X93940889Y-85231591D01*
X94019881Y-85368408D01*
X94131592Y-85480119D01*
X94268409Y-85559111D01*
X94288940Y-85564612D01*
X93451934Y-86401617D01*
X93451934Y-86401618D01*
X93525666Y-86458194D01*
X93724330Y-86572893D01*
X93724340Y-86572897D01*
X93936269Y-86660681D01*
X94157862Y-86720057D01*
X94385289Y-86749998D01*
X94385306Y-86750000D01*
X94614694Y-86750000D01*
X94614710Y-86749998D01*
X94842137Y-86720057D01*
X95063730Y-86660681D01*
X95275659Y-86572897D01*
X95275668Y-86572893D01*
X95474327Y-86458197D01*
X95474334Y-86458192D01*
X95548064Y-86401617D01*
X94711059Y-85564612D01*
X94731591Y-85559111D01*
X94868408Y-85480119D01*
X94980119Y-85368408D01*
X95059111Y-85231591D01*
X95064612Y-85211059D01*
X95901617Y-86048064D01*
X95958192Y-85974334D01*
X95958194Y-85974332D01*
X96018112Y-85870550D01*
X96068679Y-85822334D01*
X96137286Y-85809110D01*
X96202151Y-85835078D01*
X96242680Y-85891992D01*
X96249500Y-85932549D01*
X96249500Y-86297869D01*
X96249501Y-86297876D01*
X96255908Y-86357483D01*
X96306202Y-86492328D01*
X96306206Y-86492335D01*
X96392452Y-86607544D01*
X96392455Y-86607547D01*
X96507664Y-86693793D01*
X96507671Y-86693797D01*
X96642517Y-86744091D01*
X96642516Y-86744091D01*
X96649444Y-86744835D01*
X96702127Y-86750500D01*
X99297872Y-86750499D01*
X99357483Y-86744091D01*
X99492331Y-86693796D01*
X99607546Y-86607546D01*
X99693796Y-86492331D01*
X99744091Y-86357483D01*
X99750500Y-86297873D01*
X99750499Y-84885258D01*
X100249500Y-84885258D01*
X100249500Y-85114741D01*
X100274446Y-85304215D01*
X100279452Y-85342238D01*
X100309072Y-85452781D01*
X100338842Y-85563887D01*
X100426650Y-85775876D01*
X100426657Y-85775890D01*
X100454049Y-85823334D01*
X100541228Y-85974334D01*
X100541392Y-85974617D01*
X100681081Y-86156661D01*
X100681089Y-86156670D01*
X100843330Y-86318911D01*
X100843338Y-86318918D01*
X101025382Y-86458607D01*
X101025385Y-86458608D01*
X101025388Y-86458611D01*
X101224112Y-86573344D01*
X101224117Y-86573346D01*
X101224123Y-86573349D01*
X101299411Y-86604534D01*
X101436113Y-86661158D01*
X101657762Y-86720548D01*
X101874312Y-86749057D01*
X101885250Y-86750498D01*
X101885266Y-86750500D01*
X101885273Y-86750500D01*
X102114727Y-86750500D01*
X102114734Y-86750500D01*
X102342238Y-86720548D01*
X102563887Y-86661158D01*
X102775888Y-86573344D01*
X102974612Y-86458611D01*
X103156661Y-86318919D01*
X103156665Y-86318914D01*
X103156670Y-86318911D01*
X103318911Y-86156670D01*
X103318914Y-86156665D01*
X103318919Y-86156661D01*
X103458611Y-85974612D01*
X103573344Y-85775888D01*
X103635439Y-85625976D01*
X103679279Y-85571573D01*
X103745574Y-85549508D01*
X103813273Y-85566787D01*
X103860884Y-85617924D01*
X103864561Y-85625977D01*
X103926650Y-85775876D01*
X103926657Y-85775890D01*
X103954049Y-85823334D01*
X104041228Y-85974334D01*
X104041392Y-85974617D01*
X104181081Y-86156661D01*
X104181089Y-86156670D01*
X104343330Y-86318911D01*
X104343338Y-86318918D01*
X104525382Y-86458607D01*
X104525385Y-86458608D01*
X104525388Y-86458611D01*
X104724112Y-86573344D01*
X104724117Y-86573346D01*
X104724123Y-86573349D01*
X104799411Y-86604534D01*
X104936113Y-86661158D01*
X105157762Y-86720548D01*
X105374312Y-86749057D01*
X105385250Y-86750498D01*
X105385266Y-86750500D01*
X105385273Y-86750500D01*
X105614727Y-86750500D01*
X105614734Y-86750500D01*
X105842238Y-86720548D01*
X106063887Y-86661158D01*
X106275888Y-86573344D01*
X106474612Y-86458611D01*
X106656661Y-86318919D01*
X106656665Y-86318914D01*
X106656670Y-86318911D01*
X106818911Y-86156670D01*
X106818914Y-86156665D01*
X106818919Y-86156661D01*
X106958611Y-85974612D01*
X107018115Y-85871546D01*
X107068679Y-85823334D01*
X107137286Y-85810110D01*
X107202151Y-85836078D01*
X107242680Y-85892992D01*
X107249500Y-85933549D01*
X107249500Y-86297869D01*
X107249501Y-86297876D01*
X107255908Y-86357483D01*
X107306202Y-86492328D01*
X107306206Y-86492335D01*
X107392452Y-86607544D01*
X107392455Y-86607547D01*
X107507664Y-86693793D01*
X107507671Y-86693797D01*
X107642517Y-86744091D01*
X107642516Y-86744091D01*
X107649444Y-86744835D01*
X107702127Y-86750500D01*
X110297872Y-86750499D01*
X110357483Y-86744091D01*
X110492331Y-86693796D01*
X110607546Y-86607546D01*
X110693796Y-86492331D01*
X110744091Y-86357483D01*
X110750500Y-86297873D01*
X110750499Y-83702128D01*
X110744091Y-83642517D01*
X110727629Y-83598381D01*
X110693797Y-83507671D01*
X110693793Y-83507664D01*
X110607547Y-83392455D01*
X110607544Y-83392452D01*
X110492335Y-83306206D01*
X110492328Y-83306202D01*
X110357482Y-83255908D01*
X110357483Y-83255908D01*
X110297883Y-83249501D01*
X110297881Y-83249500D01*
X110297873Y-83249500D01*
X110297864Y-83249500D01*
X107702129Y-83249500D01*
X107702123Y-83249501D01*
X107642516Y-83255908D01*
X107507671Y-83306202D01*
X107507664Y-83306206D01*
X107392455Y-83392452D01*
X107392452Y-83392455D01*
X107306206Y-83507664D01*
X107306202Y-83507671D01*
X107255908Y-83642517D01*
X107249501Y-83702116D01*
X107249501Y-83702123D01*
X107249500Y-83702135D01*
X107249500Y-84066449D01*
X107229815Y-84133488D01*
X107177011Y-84179243D01*
X107107853Y-84189187D01*
X107044297Y-84160162D01*
X107018113Y-84128449D01*
X106982894Y-84067448D01*
X106958611Y-84025388D01*
X106958608Y-84025385D01*
X106958607Y-84025382D01*
X106833508Y-83862352D01*
X106818919Y-83843339D01*
X106818918Y-83843338D01*
X106818911Y-83843330D01*
X106656670Y-83681089D01*
X106656661Y-83681081D01*
X106474617Y-83541392D01*
X106416210Y-83507671D01*
X106325787Y-83455465D01*
X106275890Y-83426657D01*
X106275876Y-83426650D01*
X106063887Y-83338842D01*
X105842238Y-83279452D01*
X105804215Y-83274446D01*
X105614741Y-83249500D01*
X105614734Y-83249500D01*
X105385266Y-83249500D01*
X105385258Y-83249500D01*
X105168715Y-83278009D01*
X105157762Y-83279452D01*
X105064076Y-83304554D01*
X104936112Y-83338842D01*
X104724123Y-83426650D01*
X104724109Y-83426657D01*
X104525382Y-83541392D01*
X104343338Y-83681081D01*
X104181081Y-83843338D01*
X104041392Y-84025382D01*
X103926657Y-84224109D01*
X103926650Y-84224123D01*
X103864561Y-84374022D01*
X103820720Y-84428426D01*
X103754426Y-84450491D01*
X103686727Y-84433212D01*
X103639116Y-84382075D01*
X103635439Y-84374022D01*
X103573349Y-84224123D01*
X103573346Y-84224117D01*
X103573344Y-84224112D01*
X103458611Y-84025388D01*
X103458608Y-84025385D01*
X103458607Y-84025382D01*
X103333508Y-83862352D01*
X103318919Y-83843339D01*
X103318918Y-83843338D01*
X103318911Y-83843330D01*
X103156670Y-83681089D01*
X103156661Y-83681081D01*
X102974617Y-83541392D01*
X102916210Y-83507671D01*
X102825787Y-83455465D01*
X102775890Y-83426657D01*
X102775876Y-83426650D01*
X102563887Y-83338842D01*
X102342238Y-83279452D01*
X102304215Y-83274446D01*
X102114741Y-83249500D01*
X102114734Y-83249500D01*
X101885266Y-83249500D01*
X101885258Y-83249500D01*
X101668715Y-83278009D01*
X101657762Y-83279452D01*
X101564076Y-83304554D01*
X101436112Y-83338842D01*
X101224123Y-83426650D01*
X101224109Y-83426657D01*
X101025382Y-83541392D01*
X100843338Y-83681081D01*
X100681081Y-83843338D01*
X100541392Y-84025382D01*
X100426657Y-84224109D01*
X100426650Y-84224123D01*
X100338842Y-84436112D01*
X100338842Y-84436113D01*
X100292997Y-84607213D01*
X100279453Y-84657759D01*
X100279451Y-84657770D01*
X100249500Y-84885258D01*
X99750499Y-84885258D01*
X99750499Y-83702128D01*
X99744091Y-83642517D01*
X99727629Y-83598381D01*
X99693797Y-83507671D01*
X99693793Y-83507664D01*
X99607547Y-83392455D01*
X99607544Y-83392452D01*
X99492335Y-83306206D01*
X99492328Y-83306202D01*
X99357482Y-83255908D01*
X99357483Y-83255908D01*
X99297883Y-83249501D01*
X99297881Y-83249500D01*
X99297873Y-83249500D01*
X99297864Y-83249500D01*
X96702129Y-83249500D01*
X96702123Y-83249501D01*
X96642516Y-83255908D01*
X96507671Y-83306202D01*
X96507664Y-83306206D01*
X96392455Y-83392452D01*
X96392452Y-83392455D01*
X96306206Y-83507664D01*
X96306202Y-83507671D01*
X96255908Y-83642517D01*
X96249501Y-83702116D01*
X96249501Y-83702123D01*
X96249500Y-83702135D01*
X96249500Y-84067448D01*
X96229815Y-84134487D01*
X96177011Y-84180242D01*
X96107853Y-84190186D01*
X96044297Y-84161161D01*
X96018113Y-84129448D01*
X95958194Y-84025666D01*
X95901618Y-83951934D01*
X95901617Y-83951934D01*
X95064612Y-84788939D01*
X95059111Y-84768409D01*
X94980119Y-84631592D01*
X94868408Y-84519881D01*
X94731591Y-84440889D01*
X94711057Y-84435387D01*
X95548064Y-83598381D01*
X95548064Y-83598380D01*
X95474331Y-83541805D01*
X95474324Y-83541799D01*
X95275669Y-83427106D01*
X95275659Y-83427102D01*
X95063730Y-83339318D01*
X94842137Y-83279942D01*
X94614710Y-83250001D01*
X94614694Y-83250000D01*
X94385306Y-83250000D01*
X94385289Y-83250001D01*
X94157862Y-83279942D01*
X93936269Y-83339318D01*
X93724340Y-83427102D01*
X93724330Y-83427106D01*
X93525673Y-83541801D01*
X93525659Y-83541810D01*
X93451934Y-83598380D01*
X94288940Y-84435387D01*
X94268409Y-84440889D01*
X94131592Y-84519881D01*
X94019881Y-84631592D01*
X93940889Y-84768409D01*
X93935387Y-84788940D01*
X93098380Y-83951934D01*
X93041810Y-84025659D01*
X93041801Y-84025673D01*
X92927106Y-84224330D01*
X92927102Y-84224340D01*
X92839318Y-84436269D01*
X92779942Y-84657862D01*
X92750001Y-84885289D01*
X92750000Y-84885305D01*
X89856060Y-84885305D01*
X89881610Y-84872287D01*
X89898374Y-84860106D01*
X90007365Y-84780922D01*
X90007366Y-84780921D01*
X90047215Y-84751969D01*
X90047215Y-84751968D01*
X90047219Y-84751966D01*
X90191966Y-84607219D01*
X90191968Y-84607215D01*
X90191971Y-84607213D01*
X90255420Y-84519881D01*
X90312287Y-84441610D01*
X90405220Y-84259219D01*
X90468477Y-84064534D01*
X90500500Y-83862352D01*
X90500500Y-83657648D01*
X90468477Y-83455466D01*
X90459116Y-83426657D01*
X90430738Y-83339318D01*
X90405220Y-83260781D01*
X90405218Y-83260778D01*
X90405218Y-83260776D01*
X90371503Y-83194607D01*
X90312287Y-83078390D01*
X90304556Y-83067749D01*
X90191971Y-82912786D01*
X90047213Y-82768028D01*
X89881614Y-82647715D01*
X89875006Y-82644348D01*
X89788917Y-82600483D01*
X89738123Y-82552511D01*
X89721328Y-82484690D01*
X89743865Y-82418555D01*
X89788917Y-82379516D01*
X89881610Y-82332287D01*
X89902770Y-82316913D01*
X90047213Y-82211971D01*
X90047215Y-82211968D01*
X90047219Y-82211966D01*
X90191966Y-82067219D01*
X90191968Y-82067215D01*
X90191971Y-82067213D01*
X90244732Y-81994590D01*
X90312287Y-81901610D01*
X90405220Y-81719219D01*
X90468477Y-81524534D01*
X90500500Y-81322352D01*
X90500500Y-81117648D01*
X90468477Y-80915466D01*
X90405220Y-80720781D01*
X90405218Y-80720778D01*
X90405218Y-80720776D01*
X90371503Y-80654607D01*
X90312287Y-80538390D01*
X90304556Y-80527749D01*
X90191971Y-80372786D01*
X90047217Y-80228032D01*
X90047215Y-80228031D01*
X90042104Y-80224317D01*
X89999439Y-80168987D01*
X89993461Y-80099373D01*
X90026068Y-80037579D01*
X90086907Y-80003222D01*
X90114991Y-80000000D01*
X91000000Y-80000000D01*
X91000000Y-72624500D01*
X91019685Y-72557461D01*
X91072489Y-72511706D01*
X91124000Y-72500500D01*
X93934108Y-72500500D01*
X109741324Y-72500500D01*
X109808363Y-72520185D01*
G37*
%TD.AperFunction*%
%TD*%
M02*
