%TF.GenerationSoftware,KiCad,Pcbnew,9.0.4*%
%TF.CreationDate,2026-03-07T19:02:55+01:00*%
%TF.ProjectId,PwmPump,50776d50-756d-4702-9e6b-696361645f70,rev?*%
%TF.SameCoordinates,Original*%
%TF.FileFunction,Copper,L2,Bot*%
%TF.FilePolarity,Positive*%
%FSLAX46Y46*%
G04 Gerber Fmt 4.6, Leading zero omitted, Abs format (unit mm)*
G04 Created by KiCad (PCBNEW 9.0.4) date 2026-03-07 19:02:55*
%MOMM*%
%LPD*%
G01*
G04 APERTURE LIST*
%TA.AperFunction,ComponentPad*%
%ADD10R,2.500000X2.500000*%
%TD*%
%TA.AperFunction,ComponentPad*%
%ADD11C,2.500000*%
%TD*%
%TA.AperFunction,ComponentPad*%
%ADD12R,2.000000X2.000000*%
%TD*%
%TA.AperFunction,ComponentPad*%
%ADD13O,2.000000X1.600000*%
%TD*%
%TA.AperFunction,ComponentPad*%
%ADD14C,1.524000*%
%TD*%
%TA.AperFunction,ComponentPad*%
%ADD15R,1.524000X1.524000*%
%TD*%
G04 APERTURE END LIST*
D10*
%TO.P,J3,1,Pin_1*%
%TO.N,+3.3V*%
X59000000Y-82500000D03*
D11*
%TO.P,J3,2,Pin_2*%
%TO.N,Net-(J3-Pin_2)*%
X59000000Y-86000000D03*
%TO.P,J3,3,Pin_3*%
%TO.N,GND*%
X59000000Y-89500000D03*
%TD*%
D10*
%TO.P,J2,1,Pin_1*%
%TO.N,+3.3V*%
X59000000Y-94500000D03*
D11*
%TO.P,J2,2,Pin_2*%
%TO.N,Net-(J2-Pin_2)*%
X59000000Y-98000000D03*
%TO.P,J2,3,Pin_3*%
%TO.N,GND*%
X59000000Y-101500000D03*
%TD*%
D12*
%TO.P,U1,1,EN*%
%TO.N,unconnected-(U1-EN-Pad1)*%
X66140000Y-81220000D03*
D13*
%TO.P,U1,2,D3*%
%TO.N,Net-(J3-Pin_2)*%
X66140000Y-83760000D03*
%TO.P,U1,3,D2*%
%TO.N,Net-(J2-Pin_2)*%
X66140000Y-86300000D03*
%TO.P,U1,4,D1*%
%TO.N,unconnected-(U1-D1-Pad4)*%
X66140000Y-88840000D03*
%TO.P,U1,5,D0*%
%TO.N,unconnected-(U1-D0-Pad5)*%
X66140000Y-91380000D03*
%TO.P,U1,6,D4*%
%TO.N,unconnected-(U1-D4-Pad6)*%
X66140000Y-93920000D03*
%TO.P,U1,7,D5*%
%TO.N,unconnected-(U1-D5-Pad7)*%
X66140000Y-96460000D03*
%TO.P,U1,8,3V3*%
%TO.N,+3.3V*%
X66140000Y-99000000D03*
%TO.P,U1,9,VBus*%
%TO.N,+5V*%
X89000000Y-99000000D03*
%TO.P,U1,10,GND*%
%TO.N,GND*%
X89000000Y-96460000D03*
%TO.P,U1,11,D6*%
%TO.N,unconnected-(U1-D6-Pad11)*%
X89000000Y-93920000D03*
%TO.P,U1,12,D7*%
%TO.N,unconnected-(U1-D7-Pad12)*%
X89000000Y-91380000D03*
%TO.P,U1,13,D8*%
%TO.N,Net-(U1-D8)*%
X89000000Y-88840000D03*
%TO.P,U1,14,D10*%
%TO.N,Net-(U1-D10)*%
X89000000Y-86300000D03*
%TO.P,U1,15,RX*%
%TO.N,unconnected-(U1-RX-Pad15)*%
X89000000Y-83760000D03*
%TO.P,U1,16,TX*%
%TO.N,unconnected-(U1-TX-Pad16)*%
X89000000Y-81220000D03*
%TD*%
D10*
%TO.P,J1,1,Pin_1*%
%TO.N,GND*%
X101500000Y-86000000D03*
D11*
%TO.P,J1,2,Pin_2*%
%TO.N,Net-(J1-Pin_2)*%
X98000000Y-86000000D03*
%TO.P,J1,3,Pin_3*%
%TO.N,Net-(J1-Pin_3)*%
X94500000Y-86000000D03*
%TD*%
D14*
%TO.P,U2,GND_1,GND*%
%TO.N,GND*%
X103160000Y-100270000D03*
%TO.P,U2,GND_2,GND__1*%
X93000000Y-100270000D03*
%TO.P,U2,HV,HV*%
%TO.N,+5V*%
X103160000Y-97730000D03*
D15*
%TO.P,U2,HV1,HV1*%
%TO.N,Net-(J1-Pin_3)*%
X103160000Y-92650000D03*
D14*
%TO.P,U2,HV2,HV2*%
%TO.N,Net-(J1-Pin_2)*%
X103160000Y-95190000D03*
%TO.P,U2,HV3,HV3*%
%TO.N,unconnected-(U2-PadHV3)*%
X103160000Y-102810000D03*
%TO.P,U2,HV4,HV4*%
%TO.N,unconnected-(U2-PadHV4)*%
X103160000Y-105350000D03*
%TO.P,U2,LV,LV*%
%TO.N,+3.3V*%
X93000000Y-97730000D03*
D15*
%TO.P,U2,LV1,LV1*%
%TO.N,Net-(U1-D8)*%
X93000000Y-92650000D03*
D14*
%TO.P,U2,LV2,LV2*%
%TO.N,Net-(U1-D10)*%
X93000000Y-95190000D03*
%TO.P,U2,LV3,LV3*%
%TO.N,unconnected-(U2-PadLV3)*%
X93000000Y-102810000D03*
%TO.P,U2,LV4,LV4*%
%TO.N,unconnected-(U2-PadLV4)*%
X93000000Y-105350000D03*
%TD*%
%TA.AperFunction,Conductor*%
%TO.N,+3.3V*%
G36*
X61943039Y-72520185D02*
G01*
X61988794Y-72572989D01*
X62000000Y-72624500D01*
X62000000Y-80000000D01*
X64519960Y-80000000D01*
X64586999Y-80019685D01*
X64632754Y-80072489D01*
X64643249Y-80137252D01*
X64639500Y-80172127D01*
X64639500Y-80172134D01*
X64639500Y-80172135D01*
X64639500Y-82267870D01*
X64639501Y-82267876D01*
X64645908Y-82327483D01*
X64696202Y-82462328D01*
X64696206Y-82462335D01*
X64782452Y-82577544D01*
X64782455Y-82577547D01*
X64897664Y-82663793D01*
X64897673Y-82663798D01*
X64934914Y-82677688D01*
X64990848Y-82719559D01*
X65015266Y-82785023D01*
X65000415Y-82853296D01*
X64979265Y-82881550D01*
X64948027Y-82912787D01*
X64827715Y-83078386D01*
X64734781Y-83260776D01*
X64671522Y-83455465D01*
X64639500Y-83657648D01*
X64639500Y-83862351D01*
X64671522Y-84064534D01*
X64734781Y-84259223D01*
X64775350Y-84338842D01*
X64822215Y-84430820D01*
X64827715Y-84441613D01*
X64948028Y-84607213D01*
X65092786Y-84751971D01*
X65218546Y-84843339D01*
X65258390Y-84872287D01*
X65349840Y-84918883D01*
X65351080Y-84919515D01*
X65401876Y-84967490D01*
X65418671Y-85035311D01*
X65396134Y-85101446D01*
X65351080Y-85140485D01*
X65258386Y-85187715D01*
X65092786Y-85308028D01*
X64948028Y-85452786D01*
X64827715Y-85618386D01*
X64734781Y-85800776D01*
X64671522Y-85995465D01*
X64639500Y-86197648D01*
X64639500Y-86402351D01*
X64671522Y-86604534D01*
X64734781Y-86799223D01*
X64782560Y-86892992D01*
X64824147Y-86974612D01*
X64827715Y-86981613D01*
X64948028Y-87147213D01*
X65092786Y-87291971D01*
X65247749Y-87404556D01*
X65258390Y-87412287D01*
X65349298Y-87458607D01*
X65351080Y-87459515D01*
X65401876Y-87507490D01*
X65418671Y-87575311D01*
X65396134Y-87641446D01*
X65351080Y-87680485D01*
X65258386Y-87727715D01*
X65092786Y-87848028D01*
X64948028Y-87992786D01*
X64827715Y-88158386D01*
X64734781Y-88340776D01*
X64671522Y-88535465D01*
X64639500Y-88737648D01*
X64639500Y-88942351D01*
X64671522Y-89144534D01*
X64734781Y-89339223D01*
X64827715Y-89521613D01*
X64948028Y-89687213D01*
X65092786Y-89831971D01*
X65247749Y-89944556D01*
X65258390Y-89952287D01*
X65349840Y-89998883D01*
X65351080Y-89999515D01*
X65401876Y-90047490D01*
X65418671Y-90115311D01*
X65396134Y-90181446D01*
X65351080Y-90220485D01*
X65258386Y-90267715D01*
X65092786Y-90388028D01*
X64948028Y-90532786D01*
X64827715Y-90698386D01*
X64734781Y-90880776D01*
X64671522Y-91075465D01*
X64639500Y-91277648D01*
X64639500Y-91482351D01*
X64671522Y-91684534D01*
X64734781Y-91879223D01*
X64827715Y-92061613D01*
X64948028Y-92227213D01*
X65092786Y-92371971D01*
X65247749Y-92484556D01*
X65258390Y-92492287D01*
X65349840Y-92538883D01*
X65351080Y-92539515D01*
X65401876Y-92587490D01*
X65418671Y-92655311D01*
X65396134Y-92721446D01*
X65351080Y-92760485D01*
X65258386Y-92807715D01*
X65092786Y-92928028D01*
X64948028Y-93072786D01*
X64827715Y-93238386D01*
X64734781Y-93420776D01*
X64671522Y-93615465D01*
X64639500Y-93817648D01*
X64639500Y-94022351D01*
X64671522Y-94224534D01*
X64734781Y-94419223D01*
X64827715Y-94601613D01*
X64948028Y-94767213D01*
X65092786Y-94911971D01*
X65186586Y-94980119D01*
X65258390Y-95032287D01*
X65349840Y-95078883D01*
X65351080Y-95079515D01*
X65401876Y-95127490D01*
X65418671Y-95195311D01*
X65396134Y-95261446D01*
X65351080Y-95300485D01*
X65258386Y-95347715D01*
X65092786Y-95468028D01*
X64948028Y-95612786D01*
X64827715Y-95778386D01*
X64734781Y-95960776D01*
X64671522Y-96155465D01*
X64639500Y-96357648D01*
X64639500Y-96562351D01*
X64671522Y-96764534D01*
X64734781Y-96959223D01*
X64827715Y-97141613D01*
X64948028Y-97307213D01*
X65092786Y-97451971D01*
X65247749Y-97564556D01*
X65258390Y-97572287D01*
X65330424Y-97608990D01*
X65351629Y-97619795D01*
X65402425Y-97667770D01*
X65419220Y-97735591D01*
X65396682Y-97801726D01*
X65351629Y-97840765D01*
X65258650Y-97888140D01*
X65093105Y-98008417D01*
X65093104Y-98008417D01*
X64948417Y-98153104D01*
X64948417Y-98153105D01*
X64828140Y-98318650D01*
X64735244Y-98500970D01*
X64672009Y-98695586D01*
X64663391Y-98750000D01*
X65764722Y-98750000D01*
X65720667Y-98826306D01*
X65690000Y-98940756D01*
X65690000Y-99059244D01*
X65720667Y-99173694D01*
X65764722Y-99250000D01*
X64663391Y-99250000D01*
X64672009Y-99304413D01*
X64735244Y-99499029D01*
X64828140Y-99681349D01*
X64948417Y-99846894D01*
X64948417Y-99846895D01*
X65093104Y-99991582D01*
X65258650Y-100111859D01*
X65440968Y-100204755D01*
X65635582Y-100267990D01*
X65837683Y-100300000D01*
X65890000Y-100300000D01*
X65890000Y-99375277D01*
X65966306Y-99419333D01*
X66080756Y-99450000D01*
X66199244Y-99450000D01*
X66313694Y-99419333D01*
X66390000Y-99375277D01*
X66390000Y-100300000D01*
X66442317Y-100300000D01*
X66644417Y-100267990D01*
X66839031Y-100204755D01*
X67021349Y-100111859D01*
X67186894Y-99991582D01*
X67186895Y-99991582D01*
X67331582Y-99846895D01*
X67331582Y-99846894D01*
X67451859Y-99681349D01*
X67544755Y-99499029D01*
X67607990Y-99304413D01*
X67616609Y-99250000D01*
X66515278Y-99250000D01*
X66559333Y-99173694D01*
X66590000Y-99059244D01*
X66590000Y-98940756D01*
X66559333Y-98826306D01*
X66515278Y-98750000D01*
X67616609Y-98750000D01*
X67607990Y-98695586D01*
X67544755Y-98500970D01*
X67451859Y-98318650D01*
X67331582Y-98153105D01*
X67331582Y-98153104D01*
X67186895Y-98008417D01*
X67021349Y-97888140D01*
X66928370Y-97840765D01*
X66877574Y-97792790D01*
X66860779Y-97724969D01*
X66883316Y-97658835D01*
X66928370Y-97619795D01*
X66928920Y-97619515D01*
X67021610Y-97572287D01*
X67042770Y-97556913D01*
X67187213Y-97451971D01*
X67187215Y-97451968D01*
X67187219Y-97451966D01*
X67331966Y-97307219D01*
X67331968Y-97307215D01*
X67331971Y-97307213D01*
X67393881Y-97222000D01*
X67452287Y-97141610D01*
X67545220Y-96959219D01*
X67608477Y-96764534D01*
X67640500Y-96562352D01*
X67640500Y-96357648D01*
X67608477Y-96155466D01*
X67545220Y-95960781D01*
X67545218Y-95960778D01*
X67545218Y-95960776D01*
X67462199Y-95797844D01*
X67452287Y-95778390D01*
X67444556Y-95767749D01*
X67331971Y-95612786D01*
X67187213Y-95468028D01*
X67021614Y-95347715D01*
X67015006Y-95344348D01*
X66928917Y-95300483D01*
X66878123Y-95252511D01*
X66861328Y-95184690D01*
X66883865Y-95118555D01*
X66928917Y-95079516D01*
X67021610Y-95032287D01*
X67093414Y-94980119D01*
X67187213Y-94911971D01*
X67187215Y-94911968D01*
X67187219Y-94911966D01*
X67331966Y-94767219D01*
X67331968Y-94767215D01*
X67331971Y-94767213D01*
X67384732Y-94694590D01*
X67452287Y-94601610D01*
X67545220Y-94419219D01*
X67608477Y-94224534D01*
X67640500Y-94022352D01*
X67640500Y-93817648D01*
X67608477Y-93615466D01*
X67545220Y-93420781D01*
X67545218Y-93420778D01*
X67545218Y-93420776D01*
X67511503Y-93354607D01*
X67452287Y-93238390D01*
X67444556Y-93227749D01*
X67331971Y-93072786D01*
X67187213Y-92928028D01*
X67021614Y-92807715D01*
X67015006Y-92804348D01*
X66928917Y-92760483D01*
X66878123Y-92712511D01*
X66861328Y-92644690D01*
X66883865Y-92578555D01*
X66928917Y-92539516D01*
X67021610Y-92492287D01*
X67042770Y-92476913D01*
X67187213Y-92371971D01*
X67187215Y-92371968D01*
X67187219Y-92371966D01*
X67331966Y-92227219D01*
X67331968Y-92227215D01*
X67331971Y-92227213D01*
X67384732Y-92154590D01*
X67452287Y-92061610D01*
X67545220Y-91879219D01*
X67608477Y-91684534D01*
X67640500Y-91482352D01*
X67640500Y-91277648D01*
X67631456Y-91220546D01*
X67608477Y-91075465D01*
X67579127Y-90985137D01*
X67545220Y-90880781D01*
X67545218Y-90880778D01*
X67545218Y-90880776D01*
X67511503Y-90814607D01*
X67452287Y-90698390D01*
X67421976Y-90656670D01*
X67331971Y-90532786D01*
X67187213Y-90388028D01*
X67021614Y-90267715D01*
X67015006Y-90264348D01*
X66928917Y-90220483D01*
X66878123Y-90172511D01*
X66861328Y-90104690D01*
X66883865Y-90038555D01*
X66928917Y-89999516D01*
X67021610Y-89952287D01*
X67042770Y-89936913D01*
X67187213Y-89831971D01*
X67187215Y-89831968D01*
X67187219Y-89831966D01*
X67331966Y-89687219D01*
X67331968Y-89687215D01*
X67331971Y-89687213D01*
X67384732Y-89614590D01*
X67452287Y-89521610D01*
X67545220Y-89339219D01*
X67608477Y-89144534D01*
X67640500Y-88942352D01*
X67640500Y-88737648D01*
X67608477Y-88535466D01*
X67605202Y-88525388D01*
X67546051Y-88343339D01*
X67545220Y-88340781D01*
X67545218Y-88340778D01*
X67545218Y-88340776D01*
X67511503Y-88274607D01*
X67452287Y-88158390D01*
X67444556Y-88147749D01*
X67331971Y-87992786D01*
X67187213Y-87848028D01*
X67021614Y-87727715D01*
X66955038Y-87693793D01*
X66928917Y-87680483D01*
X66878123Y-87632511D01*
X66861328Y-87564690D01*
X66883865Y-87498555D01*
X66928917Y-87459516D01*
X67021610Y-87412287D01*
X67097042Y-87357483D01*
X67187213Y-87291971D01*
X67187215Y-87291968D01*
X67187219Y-87291966D01*
X67331966Y-87147219D01*
X67331968Y-87147215D01*
X67331971Y-87147213D01*
X67384732Y-87074590D01*
X67452287Y-86981610D01*
X67545220Y-86799219D01*
X67608477Y-86604534D01*
X67640500Y-86402352D01*
X67640500Y-86197648D01*
X67608477Y-85995466D01*
X67608476Y-85995464D01*
X67545218Y-85800776D01*
X67472352Y-85657770D01*
X67452287Y-85618390D01*
X67444556Y-85607749D01*
X67331971Y-85452786D01*
X67187213Y-85308028D01*
X67021614Y-85187715D01*
X66967538Y-85160162D01*
X66928917Y-85140483D01*
X66878123Y-85092511D01*
X66861328Y-85024690D01*
X66883865Y-84958555D01*
X66928917Y-84919516D01*
X67021610Y-84872287D01*
X67061466Y-84843330D01*
X67187213Y-84751971D01*
X67187215Y-84751968D01*
X67187219Y-84751966D01*
X67331966Y-84607219D01*
X67331968Y-84607215D01*
X67331971Y-84607213D01*
X67404291Y-84507671D01*
X67452287Y-84441610D01*
X67545220Y-84259219D01*
X67608477Y-84064534D01*
X67640500Y-83862352D01*
X67640500Y-83657648D01*
X67608477Y-83455466D01*
X67545220Y-83260781D01*
X67545218Y-83260778D01*
X67545218Y-83260776D01*
X67511503Y-83194607D01*
X67452287Y-83078390D01*
X67380890Y-82980119D01*
X67331971Y-82912786D01*
X67300736Y-82881551D01*
X67267251Y-82820228D01*
X67272235Y-82750536D01*
X67314107Y-82694603D01*
X67345080Y-82677689D01*
X67382331Y-82663796D01*
X67497546Y-82577546D01*
X67583796Y-82462331D01*
X67634091Y-82327483D01*
X67640500Y-82267873D01*
X67640499Y-80172128D01*
X67636750Y-80137253D01*
X67649157Y-80068494D01*
X67696767Y-80017358D01*
X67760040Y-80000000D01*
X87885009Y-80000000D01*
X87952048Y-80019685D01*
X87997803Y-80072489D01*
X88007747Y-80141647D01*
X87978722Y-80205203D01*
X87957896Y-80224317D01*
X87952784Y-80228031D01*
X87952782Y-80228032D01*
X87808028Y-80372786D01*
X87687715Y-80538386D01*
X87594781Y-80720776D01*
X87531522Y-80915465D01*
X87499500Y-81117648D01*
X87499500Y-81322351D01*
X87531522Y-81524534D01*
X87594781Y-81719223D01*
X87687715Y-81901613D01*
X87808028Y-82067213D01*
X87952786Y-82211971D01*
X88107749Y-82324556D01*
X88118390Y-82332287D01*
X88209840Y-82378883D01*
X88211080Y-82379515D01*
X88261876Y-82427490D01*
X88278671Y-82495311D01*
X88256134Y-82561446D01*
X88211080Y-82600485D01*
X88118386Y-82647715D01*
X87952786Y-82768028D01*
X87808028Y-82912786D01*
X87687715Y-83078386D01*
X87594781Y-83260776D01*
X87531522Y-83455465D01*
X87499500Y-83657648D01*
X87499500Y-83862351D01*
X87531522Y-84064534D01*
X87594781Y-84259223D01*
X87635350Y-84338842D01*
X87682215Y-84430820D01*
X87687715Y-84441613D01*
X87808028Y-84607213D01*
X87952786Y-84751971D01*
X88078546Y-84843339D01*
X88118390Y-84872287D01*
X88209840Y-84918883D01*
X88211080Y-84919515D01*
X88261876Y-84967490D01*
X88278671Y-85035311D01*
X88256134Y-85101446D01*
X88211080Y-85140485D01*
X88118386Y-85187715D01*
X87952786Y-85308028D01*
X87808028Y-85452786D01*
X87687715Y-85618386D01*
X87594781Y-85800776D01*
X87531522Y-85995465D01*
X87499500Y-86197648D01*
X87499500Y-86402351D01*
X87531522Y-86604534D01*
X87594781Y-86799223D01*
X87642560Y-86892992D01*
X87684147Y-86974612D01*
X87687715Y-86981613D01*
X87808028Y-87147213D01*
X87952786Y-87291971D01*
X88107749Y-87404556D01*
X88118390Y-87412287D01*
X88209298Y-87458607D01*
X88211080Y-87459515D01*
X88261876Y-87507490D01*
X88278671Y-87575311D01*
X88256134Y-87641446D01*
X88211080Y-87680485D01*
X88118386Y-87727715D01*
X87952786Y-87848028D01*
X87808028Y-87992786D01*
X87687715Y-88158386D01*
X87594781Y-88340776D01*
X87531522Y-88535465D01*
X87499500Y-88737648D01*
X87499500Y-88942351D01*
X87531522Y-89144534D01*
X87594781Y-89339223D01*
X87687715Y-89521613D01*
X87808028Y-89687213D01*
X87952786Y-89831971D01*
X88107749Y-89944556D01*
X88118390Y-89952287D01*
X88209840Y-89998883D01*
X88211080Y-89999515D01*
X88261876Y-90047490D01*
X88278671Y-90115311D01*
X88256134Y-90181446D01*
X88211080Y-90220485D01*
X88118386Y-90267715D01*
X87952786Y-90388028D01*
X87808028Y-90532786D01*
X87687715Y-90698386D01*
X87594781Y-90880776D01*
X87531522Y-91075465D01*
X87499500Y-91277648D01*
X87499500Y-91482351D01*
X87531522Y-91684534D01*
X87594781Y-91879223D01*
X87687715Y-92061613D01*
X87808028Y-92227213D01*
X87952786Y-92371971D01*
X88107749Y-92484556D01*
X88118390Y-92492287D01*
X88209840Y-92538883D01*
X88211080Y-92539515D01*
X88261876Y-92587490D01*
X88278671Y-92655311D01*
X88256134Y-92721446D01*
X88211080Y-92760485D01*
X88118386Y-92807715D01*
X87952786Y-92928028D01*
X87808028Y-93072786D01*
X87687715Y-93238386D01*
X87594781Y-93420776D01*
X87531522Y-93615465D01*
X87499500Y-93817648D01*
X87499500Y-94022351D01*
X87531522Y-94224534D01*
X87594781Y-94419223D01*
X87687715Y-94601613D01*
X87808028Y-94767213D01*
X87952786Y-94911971D01*
X88046586Y-94980119D01*
X88118390Y-95032287D01*
X88209840Y-95078883D01*
X88211080Y-95079515D01*
X88261876Y-95127490D01*
X88278671Y-95195311D01*
X88256134Y-95261446D01*
X88211080Y-95300485D01*
X88118386Y-95347715D01*
X87952786Y-95468028D01*
X87808028Y-95612786D01*
X87687715Y-95778386D01*
X87594781Y-95960776D01*
X87531522Y-96155465D01*
X87499500Y-96357648D01*
X87499500Y-96562351D01*
X87531522Y-96764534D01*
X87594781Y-96959223D01*
X87687715Y-97141613D01*
X87808028Y-97307213D01*
X87952786Y-97451971D01*
X88107749Y-97564556D01*
X88118390Y-97572287D01*
X88209840Y-97618883D01*
X88211080Y-97619515D01*
X88261876Y-97667490D01*
X88278671Y-97735311D01*
X88256134Y-97801446D01*
X88211080Y-97840485D01*
X88118386Y-97887715D01*
X87952786Y-98008028D01*
X87808028Y-98152786D01*
X87687715Y-98318386D01*
X87594781Y-98500776D01*
X87531522Y-98695465D01*
X87499500Y-98897648D01*
X87499500Y-99102351D01*
X87531522Y-99304534D01*
X87594781Y-99499223D01*
X87687715Y-99681613D01*
X87808028Y-99847213D01*
X87952786Y-99991971D01*
X88107749Y-100104556D01*
X88118390Y-100112287D01*
X88232912Y-100170639D01*
X88300776Y-100205218D01*
X88300778Y-100205218D01*
X88300781Y-100205220D01*
X88405137Y-100239127D01*
X88495465Y-100268477D01*
X88596557Y-100284488D01*
X88697648Y-100300500D01*
X88697649Y-100300500D01*
X89302351Y-100300500D01*
X89302352Y-100300500D01*
X89504534Y-100268477D01*
X89699219Y-100205220D01*
X89881610Y-100112287D01*
X89946079Y-100065448D01*
X89946081Y-100065447D01*
X90047212Y-99991971D01*
X90047210Y-99991971D01*
X90047219Y-99991966D01*
X90191966Y-99847219D01*
X90191968Y-99847215D01*
X90191971Y-99847213D01*
X90244732Y-99774590D01*
X90312287Y-99681610D01*
X90405220Y-99499219D01*
X90468477Y-99304534D01*
X90500500Y-99102352D01*
X90500500Y-98897648D01*
X90486516Y-98809358D01*
X90468477Y-98695465D01*
X90439127Y-98605137D01*
X90405220Y-98500781D01*
X90405218Y-98500778D01*
X90405218Y-98500776D01*
X90349637Y-98391694D01*
X90312287Y-98318390D01*
X90253881Y-98238000D01*
X90191971Y-98152786D01*
X90047213Y-98008028D01*
X89881614Y-97887715D01*
X89875006Y-97884348D01*
X89788917Y-97840483D01*
X89782879Y-97834780D01*
X89774986Y-97832196D01*
X89757857Y-97811148D01*
X89738123Y-97792511D01*
X89736125Y-97784446D01*
X89730883Y-97778004D01*
X89727851Y-97751033D01*
X89721328Y-97724690D01*
X89724007Y-97716828D01*
X89723079Y-97708572D01*
X89735111Y-97684242D01*
X89743865Y-97658555D01*
X89751172Y-97651767D01*
X89754053Y-97645943D01*
X89772479Y-97631975D01*
X89781427Y-97623665D01*
X89785103Y-97621459D01*
X89881610Y-97572287D01*
X89950441Y-97522279D01*
X90047213Y-97451971D01*
X90047215Y-97451968D01*
X90047219Y-97451966D01*
X90191966Y-97307219D01*
X90191968Y-97307215D01*
X90191971Y-97307213D01*
X90253881Y-97222000D01*
X90312287Y-97141610D01*
X90405220Y-96959219D01*
X90468477Y-96764534D01*
X90500500Y-96562352D01*
X90500500Y-96357648D01*
X90468477Y-96155466D01*
X90405220Y-95960781D01*
X90405218Y-95960778D01*
X90405218Y-95960776D01*
X90322199Y-95797844D01*
X90312287Y-95778390D01*
X90304556Y-95767749D01*
X90191971Y-95612786D01*
X90047213Y-95468028D01*
X89881614Y-95347715D01*
X89875006Y-95344348D01*
X89788917Y-95300483D01*
X89738123Y-95252511D01*
X89721328Y-95184690D01*
X89743865Y-95118555D01*
X89788917Y-95079516D01*
X89881610Y-95032287D01*
X89953414Y-94980119D01*
X90047213Y-94911971D01*
X90047215Y-94911968D01*
X90047219Y-94911966D01*
X90191966Y-94767219D01*
X90191968Y-94767215D01*
X90191971Y-94767213D01*
X90244732Y-94694590D01*
X90312287Y-94601610D01*
X90405220Y-94419219D01*
X90468477Y-94224534D01*
X90500500Y-94022352D01*
X90500500Y-93817648D01*
X90468477Y-93615466D01*
X90405220Y-93420781D01*
X90405218Y-93420778D01*
X90405218Y-93420776D01*
X90371503Y-93354607D01*
X90312287Y-93238390D01*
X90304556Y-93227749D01*
X90191971Y-93072786D01*
X90047213Y-92928028D01*
X89881614Y-92807715D01*
X89875006Y-92804348D01*
X89788917Y-92760483D01*
X89738123Y-92712511D01*
X89721328Y-92644690D01*
X89743865Y-92578555D01*
X89788917Y-92539516D01*
X89881610Y-92492287D01*
X89902770Y-92476913D01*
X90047213Y-92371971D01*
X90047215Y-92371968D01*
X90047219Y-92371966D01*
X90191966Y-92227219D01*
X90191968Y-92227215D01*
X90191971Y-92227213D01*
X90244732Y-92154590D01*
X90312287Y-92061610D01*
X90405220Y-91879219D01*
X90417919Y-91840135D01*
X91737500Y-91840135D01*
X91737500Y-93459870D01*
X91737501Y-93459876D01*
X91743908Y-93519483D01*
X91794202Y-93654328D01*
X91794206Y-93654335D01*
X91880452Y-93769544D01*
X91880455Y-93769547D01*
X91995664Y-93855793D01*
X91995671Y-93855797D01*
X92130517Y-93906091D01*
X92130516Y-93906091D01*
X92137444Y-93906835D01*
X92190127Y-93912500D01*
X92228801Y-93912499D01*
X92295838Y-93932182D01*
X92341594Y-93984985D01*
X92351539Y-94054143D01*
X92322516Y-94117699D01*
X92301687Y-94136816D01*
X92177542Y-94227014D01*
X92177533Y-94227021D01*
X92037021Y-94367533D01*
X91920213Y-94528305D01*
X91829994Y-94705367D01*
X91829993Y-94705370D01*
X91768587Y-94894362D01*
X91737500Y-95090639D01*
X91737500Y-95289360D01*
X91768587Y-95485637D01*
X91829993Y-95674629D01*
X91829994Y-95674632D01*
X91892766Y-95797827D01*
X91920213Y-95851694D01*
X92037019Y-96012464D01*
X92177536Y-96152981D01*
X92338306Y-96269787D01*
X92495332Y-96349796D01*
X92546127Y-96397769D01*
X92562922Y-96465590D01*
X92540385Y-96531725D01*
X92495332Y-96570764D01*
X92338566Y-96650641D01*
X92301283Y-96677729D01*
X92301282Y-96677730D01*
X92864058Y-97240504D01*
X92803919Y-97256619D01*
X92688080Y-97323498D01*
X92593498Y-97418080D01*
X92526619Y-97533919D01*
X92510504Y-97594057D01*
X91947730Y-97031282D01*
X91947729Y-97031283D01*
X91920643Y-97068564D01*
X91830457Y-97245562D01*
X91769075Y-97434476D01*
X91769075Y-97434479D01*
X91738000Y-97630678D01*
X91738000Y-97829321D01*
X91769075Y-98025520D01*
X91769075Y-98025523D01*
X91830457Y-98214437D01*
X91920641Y-98391432D01*
X91947730Y-98428715D01*
X91947731Y-98428716D01*
X92510504Y-97865942D01*
X92526619Y-97926081D01*
X92593498Y-98041920D01*
X92688080Y-98136502D01*
X92803919Y-98203381D01*
X92864057Y-98219494D01*
X92301283Y-98782268D01*
X92301283Y-98782269D01*
X92338567Y-98809358D01*
X92495331Y-98889234D01*
X92546127Y-98937209D01*
X92562922Y-99005030D01*
X92540384Y-99071165D01*
X92495331Y-99110204D01*
X92338305Y-99190213D01*
X92177533Y-99307021D01*
X92037021Y-99447533D01*
X91920213Y-99608305D01*
X91829994Y-99785367D01*
X91829993Y-99785370D01*
X91768587Y-99974362D01*
X91737500Y-100170639D01*
X91737500Y-100369360D01*
X91768587Y-100565637D01*
X91829993Y-100754629D01*
X91829994Y-100754632D01*
X91920213Y-100931694D01*
X92037019Y-101092464D01*
X92177536Y-101232981D01*
X92338306Y-101349787D01*
X92407949Y-101385272D01*
X92494780Y-101429515D01*
X92545576Y-101477490D01*
X92562371Y-101545311D01*
X92539833Y-101611446D01*
X92494780Y-101650485D01*
X92338305Y-101730213D01*
X92177533Y-101847021D01*
X92037021Y-101987533D01*
X91920213Y-102148305D01*
X91829994Y-102325367D01*
X91829993Y-102325370D01*
X91768587Y-102514362D01*
X91768587Y-102514364D01*
X91737500Y-102710639D01*
X91737500Y-102909361D01*
X91753043Y-103007498D01*
X91768587Y-103105637D01*
X91829993Y-103294629D01*
X91829994Y-103294632D01*
X91920213Y-103471694D01*
X92037019Y-103632464D01*
X92177536Y-103772981D01*
X92338306Y-103889787D01*
X92456832Y-103950179D01*
X92494780Y-103969515D01*
X92545576Y-104017490D01*
X92562371Y-104085311D01*
X92539833Y-104151446D01*
X92494780Y-104190485D01*
X92338305Y-104270213D01*
X92177533Y-104387021D01*
X92037021Y-104527533D01*
X91920213Y-104688305D01*
X91829994Y-104865367D01*
X91829993Y-104865370D01*
X91768587Y-105054362D01*
X91737500Y-105250639D01*
X91737500Y-105449360D01*
X91768587Y-105645637D01*
X91829993Y-105834629D01*
X91829994Y-105834632D01*
X91902292Y-105976522D01*
X91920213Y-106011694D01*
X92037019Y-106172464D01*
X92177536Y-106312981D01*
X92338306Y-106429787D01*
X92425149Y-106474035D01*
X92515367Y-106520005D01*
X92515370Y-106520006D01*
X92609866Y-106550709D01*
X92704364Y-106581413D01*
X92900639Y-106612500D01*
X92900640Y-106612500D01*
X93099360Y-106612500D01*
X93099361Y-106612500D01*
X93295636Y-106581413D01*
X93484632Y-106520005D01*
X93661694Y-106429787D01*
X93822464Y-106312981D01*
X93962981Y-106172464D01*
X94079787Y-106011694D01*
X94170005Y-105834632D01*
X94231413Y-105645636D01*
X94262500Y-105449361D01*
X94262500Y-105250639D01*
X94231413Y-105054364D01*
X94170005Y-104865368D01*
X94170005Y-104865367D01*
X94079786Y-104688305D01*
X94075753Y-104682754D01*
X93962981Y-104527536D01*
X93822464Y-104387019D01*
X93661694Y-104270213D01*
X93505218Y-104190484D01*
X93454423Y-104142510D01*
X93437628Y-104074689D01*
X93460165Y-104008554D01*
X93505218Y-103969515D01*
X93661694Y-103889787D01*
X93822464Y-103772981D01*
X93962981Y-103632464D01*
X94079787Y-103471694D01*
X94170005Y-103294632D01*
X94231413Y-103105636D01*
X94262500Y-102909361D01*
X94262500Y-102710639D01*
X94231413Y-102514364D01*
X94170005Y-102325368D01*
X94170005Y-102325367D01*
X94079786Y-102148305D01*
X94018453Y-102063887D01*
X93962981Y-101987536D01*
X93822464Y-101847019D01*
X93661694Y-101730213D01*
X93505218Y-101650484D01*
X93454423Y-101602510D01*
X93437628Y-101534689D01*
X93460165Y-101468554D01*
X93505218Y-101429515D01*
X93661694Y-101349787D01*
X93822464Y-101232981D01*
X93962981Y-101092464D01*
X94079787Y-100931694D01*
X94170005Y-100754632D01*
X94231413Y-100565636D01*
X94262500Y-100369361D01*
X94262500Y-100170639D01*
X94231413Y-99974364D01*
X94194541Y-99860884D01*
X94170006Y-99785370D01*
X94170005Y-99785367D01*
X94115950Y-99679280D01*
X94079787Y-99608306D01*
X93962981Y-99447536D01*
X93822464Y-99307019D01*
X93661694Y-99190213D01*
X93504667Y-99110203D01*
X93453872Y-99062229D01*
X93437077Y-98994408D01*
X93459614Y-98928273D01*
X93504669Y-98889234D01*
X93661422Y-98809364D01*
X93698716Y-98782268D01*
X93135942Y-98219494D01*
X93196081Y-98203381D01*
X93311920Y-98136502D01*
X93406502Y-98041920D01*
X93473381Y-97926081D01*
X93489495Y-97865942D01*
X94052268Y-98428715D01*
X94079362Y-98391425D01*
X94169542Y-98214437D01*
X94230924Y-98025523D01*
X94230924Y-98025520D01*
X94262000Y-97829321D01*
X94262000Y-97630678D01*
X94230924Y-97434479D01*
X94230924Y-97434476D01*
X94169542Y-97245562D01*
X94079358Y-97068567D01*
X94052268Y-97031283D01*
X93489494Y-97594057D01*
X93473381Y-97533919D01*
X93406502Y-97418080D01*
X93311920Y-97323498D01*
X93196081Y-97256619D01*
X93135942Y-97240504D01*
X93698716Y-96677731D01*
X93698715Y-96677730D01*
X93661432Y-96650641D01*
X93504668Y-96570765D01*
X93453872Y-96522790D01*
X93437077Y-96454969D01*
X93459615Y-96388834D01*
X93504667Y-96349796D01*
X93661694Y-96269787D01*
X93822464Y-96152981D01*
X93962981Y-96012464D01*
X94079787Y-95851694D01*
X94170005Y-95674632D01*
X94231413Y-95485636D01*
X94262500Y-95289361D01*
X94262500Y-95090639D01*
X94231413Y-94894364D01*
X94200709Y-94799866D01*
X94170006Y-94705370D01*
X94170005Y-94705367D01*
X94079786Y-94528305D01*
X94001831Y-94421009D01*
X93962981Y-94367536D01*
X93822464Y-94227019D01*
X93698310Y-94136816D01*
X93655646Y-94081487D01*
X93649667Y-94011874D01*
X93682273Y-93950079D01*
X93743112Y-93915721D01*
X93771196Y-93912499D01*
X93809872Y-93912499D01*
X93869483Y-93906091D01*
X94004331Y-93855796D01*
X94119546Y-93769546D01*
X94205796Y-93654331D01*
X94256091Y-93519483D01*
X94262500Y-93459873D01*
X94262499Y-91840135D01*
X101897500Y-91840135D01*
X101897500Y-93459870D01*
X101897501Y-93459876D01*
X101903908Y-93519483D01*
X101954202Y-93654328D01*
X101954206Y-93654335D01*
X102040452Y-93769544D01*
X102040455Y-93769547D01*
X102155664Y-93855793D01*
X102155671Y-93855797D01*
X102290517Y-93906091D01*
X102290516Y-93906091D01*
X102297444Y-93906835D01*
X102350127Y-93912500D01*
X102388801Y-93912499D01*
X102455838Y-93932182D01*
X102501594Y-93984985D01*
X102511539Y-94054143D01*
X102482516Y-94117699D01*
X102461687Y-94136816D01*
X102337542Y-94227014D01*
X102337533Y-94227021D01*
X102197021Y-94367533D01*
X102080213Y-94528305D01*
X101989994Y-94705367D01*
X101989993Y-94705370D01*
X101928587Y-94894362D01*
X101897500Y-95090639D01*
X101897500Y-95289360D01*
X101928587Y-95485637D01*
X101989993Y-95674629D01*
X101989994Y-95674632D01*
X102052766Y-95797827D01*
X102080213Y-95851694D01*
X102197019Y-96012464D01*
X102337536Y-96152981D01*
X102498306Y-96269787D01*
X102601739Y-96322489D01*
X102654780Y-96349515D01*
X102705576Y-96397490D01*
X102722371Y-96465311D01*
X102699833Y-96531446D01*
X102654780Y-96570485D01*
X102498305Y-96650213D01*
X102337533Y-96767021D01*
X102197021Y-96907533D01*
X102080213Y-97068305D01*
X101989994Y-97245367D01*
X101989993Y-97245370D01*
X101928587Y-97434362D01*
X101906742Y-97572287D01*
X101897500Y-97630639D01*
X101897500Y-97829361D01*
X101906742Y-97887713D01*
X101928587Y-98025637D01*
X101989993Y-98214629D01*
X101989994Y-98214632D01*
X102042995Y-98318650D01*
X102080213Y-98391694D01*
X102197019Y-98552464D01*
X102337536Y-98692981D01*
X102498306Y-98809787D01*
X102616832Y-98870179D01*
X102654780Y-98889515D01*
X102705576Y-98937490D01*
X102722371Y-99005311D01*
X102699833Y-99071446D01*
X102654780Y-99110485D01*
X102498305Y-99190213D01*
X102337533Y-99307021D01*
X102197021Y-99447533D01*
X102080213Y-99608305D01*
X101989994Y-99785367D01*
X101989993Y-99785370D01*
X101928587Y-99974362D01*
X101897500Y-100170639D01*
X101897500Y-100369360D01*
X101928587Y-100565637D01*
X101989993Y-100754629D01*
X101989994Y-100754632D01*
X102080213Y-100931694D01*
X102197019Y-101092464D01*
X102337536Y-101232981D01*
X102498306Y-101349787D01*
X102567949Y-101385272D01*
X102654780Y-101429515D01*
X102705576Y-101477490D01*
X102722371Y-101545311D01*
X102699833Y-101611446D01*
X102654780Y-101650485D01*
X102498305Y-101730213D01*
X102337533Y-101847021D01*
X102197021Y-101987533D01*
X102080213Y-102148305D01*
X101989994Y-102325367D01*
X101989993Y-102325370D01*
X101928587Y-102514362D01*
X101928587Y-102514364D01*
X101897500Y-102710639D01*
X101897500Y-102909361D01*
X101913043Y-103007498D01*
X101928587Y-103105637D01*
X101989993Y-103294629D01*
X101989994Y-103294632D01*
X102080213Y-103471694D01*
X102197019Y-103632464D01*
X102337536Y-103772981D01*
X102498306Y-103889787D01*
X102616832Y-103950179D01*
X102654780Y-103969515D01*
X102705576Y-104017490D01*
X102722371Y-104085311D01*
X102699833Y-104151446D01*
X102654780Y-104190485D01*
X102498305Y-104270213D01*
X102337533Y-104387021D01*
X102197021Y-104527533D01*
X102080213Y-104688305D01*
X101989994Y-104865367D01*
X101989993Y-104865370D01*
X101928587Y-105054362D01*
X101897500Y-105250639D01*
X101897500Y-105449360D01*
X101928587Y-105645637D01*
X101989993Y-105834629D01*
X101989994Y-105834632D01*
X102062292Y-105976522D01*
X102080213Y-106011694D01*
X102197019Y-106172464D01*
X102337536Y-106312981D01*
X102498306Y-106429787D01*
X102585149Y-106474035D01*
X102675367Y-106520005D01*
X102675370Y-106520006D01*
X102769866Y-106550709D01*
X102864364Y-106581413D01*
X103060639Y-106612500D01*
X103060640Y-106612500D01*
X103259360Y-106612500D01*
X103259361Y-106612500D01*
X103455636Y-106581413D01*
X103644632Y-106520005D01*
X103821694Y-106429787D01*
X103982464Y-106312981D01*
X104122981Y-106172464D01*
X104239787Y-106011694D01*
X104330005Y-105834632D01*
X104391413Y-105645636D01*
X104422500Y-105449361D01*
X104422500Y-105250639D01*
X104391413Y-105054364D01*
X104330005Y-104865368D01*
X104330005Y-104865367D01*
X104239786Y-104688305D01*
X104235753Y-104682754D01*
X104122981Y-104527536D01*
X103982464Y-104387019D01*
X103821694Y-104270213D01*
X103665218Y-104190484D01*
X103614423Y-104142510D01*
X103597628Y-104074689D01*
X103620165Y-104008554D01*
X103665218Y-103969515D01*
X103821694Y-103889787D01*
X103982464Y-103772981D01*
X104122981Y-103632464D01*
X104239787Y-103471694D01*
X104330005Y-103294632D01*
X104391413Y-103105636D01*
X104422500Y-102909361D01*
X104422500Y-102710639D01*
X104391413Y-102514364D01*
X104330005Y-102325368D01*
X104330005Y-102325367D01*
X104239786Y-102148305D01*
X104178453Y-102063887D01*
X104122981Y-101987536D01*
X103982464Y-101847019D01*
X103821694Y-101730213D01*
X103665218Y-101650484D01*
X103614423Y-101602510D01*
X103597628Y-101534689D01*
X103620165Y-101468554D01*
X103665218Y-101429515D01*
X103821694Y-101349787D01*
X103982464Y-101232981D01*
X104122981Y-101092464D01*
X104239787Y-100931694D01*
X104330005Y-100754632D01*
X104391413Y-100565636D01*
X104422500Y-100369361D01*
X104422500Y-100170639D01*
X104391413Y-99974364D01*
X104354541Y-99860884D01*
X104330006Y-99785370D01*
X104330005Y-99785367D01*
X104275950Y-99679280D01*
X104239787Y-99608306D01*
X104122981Y-99447536D01*
X103982464Y-99307019D01*
X103821694Y-99190213D01*
X103665218Y-99110484D01*
X103614423Y-99062510D01*
X103597628Y-98994689D01*
X103620165Y-98928554D01*
X103665218Y-98889515D01*
X103821694Y-98809787D01*
X103982464Y-98692981D01*
X104122981Y-98552464D01*
X104239787Y-98391694D01*
X104330005Y-98214632D01*
X104391413Y-98025636D01*
X104422500Y-97829361D01*
X104422500Y-97630639D01*
X104391413Y-97434364D01*
X104355391Y-97323498D01*
X104330006Y-97245370D01*
X104330005Y-97245367D01*
X104277137Y-97141610D01*
X104239787Y-97068306D01*
X104122981Y-96907536D01*
X103982464Y-96767019D01*
X103821694Y-96650213D01*
X103665218Y-96570484D01*
X103614423Y-96522510D01*
X103597628Y-96454689D01*
X103620165Y-96388554D01*
X103665218Y-96349515D01*
X103821694Y-96269787D01*
X103982464Y-96152981D01*
X104122981Y-96012464D01*
X104239787Y-95851694D01*
X104330005Y-95674632D01*
X104391413Y-95485636D01*
X104422500Y-95289361D01*
X104422500Y-95090639D01*
X104391413Y-94894364D01*
X104360709Y-94799866D01*
X104330006Y-94705370D01*
X104330005Y-94705367D01*
X104239786Y-94528305D01*
X104161831Y-94421009D01*
X104122981Y-94367536D01*
X103982464Y-94227019D01*
X103858310Y-94136816D01*
X103815646Y-94081487D01*
X103809667Y-94011874D01*
X103842273Y-93950079D01*
X103903112Y-93915721D01*
X103931196Y-93912499D01*
X103969872Y-93912499D01*
X104029483Y-93906091D01*
X104164331Y-93855796D01*
X104279546Y-93769546D01*
X104365796Y-93654331D01*
X104416091Y-93519483D01*
X104422500Y-93459873D01*
X104422499Y-91840128D01*
X104416091Y-91780517D01*
X104365796Y-91645669D01*
X104365795Y-91645668D01*
X104365793Y-91645664D01*
X104279547Y-91530455D01*
X104279544Y-91530452D01*
X104164335Y-91444206D01*
X104164328Y-91444202D01*
X104029482Y-91393908D01*
X104029483Y-91393908D01*
X103969883Y-91387501D01*
X103969881Y-91387500D01*
X103969873Y-91387500D01*
X103969864Y-91387500D01*
X102350129Y-91387500D01*
X102350123Y-91387501D01*
X102290516Y-91393908D01*
X102155671Y-91444202D01*
X102155664Y-91444206D01*
X102040455Y-91530452D01*
X102040452Y-91530455D01*
X101954206Y-91645664D01*
X101954202Y-91645671D01*
X101903908Y-91780517D01*
X101897501Y-91840116D01*
X101897501Y-91840123D01*
X101897500Y-91840135D01*
X94262499Y-91840135D01*
X94262499Y-91840128D01*
X94256091Y-91780517D01*
X94205796Y-91645669D01*
X94205795Y-91645668D01*
X94205793Y-91645664D01*
X94119547Y-91530455D01*
X94119544Y-91530452D01*
X94004335Y-91444206D01*
X94004328Y-91444202D01*
X93869482Y-91393908D01*
X93869483Y-91393908D01*
X93809883Y-91387501D01*
X93809881Y-91387500D01*
X93809873Y-91387500D01*
X93809864Y-91387500D01*
X92190129Y-91387500D01*
X92190123Y-91387501D01*
X92130516Y-91393908D01*
X91995671Y-91444202D01*
X91995664Y-91444206D01*
X91880455Y-91530452D01*
X91880452Y-91530455D01*
X91794206Y-91645664D01*
X91794202Y-91645671D01*
X91743908Y-91780517D01*
X91737501Y-91840116D01*
X91737501Y-91840123D01*
X91737500Y-91840135D01*
X90417919Y-91840135D01*
X90468477Y-91684534D01*
X90500500Y-91482352D01*
X90500500Y-91277648D01*
X90491456Y-91220546D01*
X90468477Y-91075465D01*
X90439127Y-90985137D01*
X90405220Y-90880781D01*
X90405218Y-90880778D01*
X90405218Y-90880776D01*
X90371503Y-90814607D01*
X90312287Y-90698390D01*
X90281976Y-90656670D01*
X90191971Y-90532786D01*
X90047213Y-90388028D01*
X89881614Y-90267715D01*
X89875006Y-90264348D01*
X89788917Y-90220483D01*
X89738123Y-90172511D01*
X89721328Y-90104690D01*
X89743865Y-90038555D01*
X89788917Y-89999516D01*
X89881610Y-89952287D01*
X89902770Y-89936913D01*
X90047213Y-89831971D01*
X90047215Y-89831968D01*
X90047219Y-89831966D01*
X90191966Y-89687219D01*
X90191968Y-89687215D01*
X90191971Y-89687213D01*
X90244732Y-89614590D01*
X90312287Y-89521610D01*
X90405220Y-89339219D01*
X90468477Y-89144534D01*
X90500500Y-88942352D01*
X90500500Y-88737648D01*
X90468477Y-88535466D01*
X90465202Y-88525388D01*
X90406051Y-88343339D01*
X90405220Y-88340781D01*
X90405218Y-88340778D01*
X90405218Y-88340776D01*
X90371503Y-88274607D01*
X90312287Y-88158390D01*
X90304556Y-88147749D01*
X90191971Y-87992786D01*
X90047213Y-87848028D01*
X89881614Y-87727715D01*
X89815038Y-87693793D01*
X89788917Y-87680483D01*
X89738123Y-87632511D01*
X89721328Y-87564690D01*
X89743865Y-87498555D01*
X89788917Y-87459516D01*
X89881610Y-87412287D01*
X89957042Y-87357483D01*
X90047213Y-87291971D01*
X90047215Y-87291968D01*
X90047219Y-87291966D01*
X90191966Y-87147219D01*
X90191968Y-87147215D01*
X90191971Y-87147213D01*
X90244732Y-87074590D01*
X90312287Y-86981610D01*
X90405220Y-86799219D01*
X90468477Y-86604534D01*
X90500500Y-86402352D01*
X90500500Y-86197648D01*
X90468477Y-85995466D01*
X90468476Y-85995462D01*
X90468476Y-85995461D01*
X90443803Y-85919525D01*
X90432669Y-85885258D01*
X92749500Y-85885258D01*
X92749500Y-86114741D01*
X92750499Y-86122325D01*
X92779452Y-86342238D01*
X92834989Y-86549508D01*
X92838842Y-86563887D01*
X92926650Y-86775876D01*
X92926657Y-86775890D01*
X93041392Y-86974617D01*
X93181081Y-87156661D01*
X93181089Y-87156670D01*
X93343330Y-87318911D01*
X93343338Y-87318918D01*
X93525382Y-87458607D01*
X93525385Y-87458608D01*
X93525388Y-87458611D01*
X93724112Y-87573344D01*
X93724117Y-87573346D01*
X93724123Y-87573349D01*
X93806678Y-87607544D01*
X93936113Y-87661158D01*
X94157762Y-87720548D01*
X94374312Y-87749057D01*
X94385250Y-87750498D01*
X94385266Y-87750500D01*
X94385273Y-87750500D01*
X94614727Y-87750500D01*
X94614734Y-87750500D01*
X94842238Y-87720548D01*
X95063887Y-87661158D01*
X95275888Y-87573344D01*
X95474612Y-87458611D01*
X95656661Y-87318919D01*
X95656665Y-87318914D01*
X95656670Y-87318911D01*
X95818911Y-87156670D01*
X95818914Y-87156665D01*
X95818919Y-87156661D01*
X95958611Y-86974612D01*
X96073344Y-86775888D01*
X96135439Y-86625976D01*
X96179279Y-86571573D01*
X96245574Y-86549508D01*
X96313273Y-86566787D01*
X96360884Y-86617924D01*
X96364561Y-86625977D01*
X96426650Y-86775876D01*
X96426657Y-86775890D01*
X96541392Y-86974617D01*
X96681081Y-87156661D01*
X96681089Y-87156670D01*
X96843330Y-87318911D01*
X96843338Y-87318918D01*
X97025382Y-87458607D01*
X97025385Y-87458608D01*
X97025388Y-87458611D01*
X97224112Y-87573344D01*
X97224117Y-87573346D01*
X97224123Y-87573349D01*
X97306678Y-87607544D01*
X97436113Y-87661158D01*
X97657762Y-87720548D01*
X97874312Y-87749057D01*
X97885250Y-87750498D01*
X97885266Y-87750500D01*
X97885273Y-87750500D01*
X98114727Y-87750500D01*
X98114734Y-87750500D01*
X98342238Y-87720548D01*
X98563887Y-87661158D01*
X98775888Y-87573344D01*
X98974612Y-87458611D01*
X99156661Y-87318919D01*
X99156665Y-87318914D01*
X99156670Y-87318911D01*
X99318911Y-87156670D01*
X99318914Y-87156665D01*
X99318919Y-87156661D01*
X99458611Y-86974612D01*
X99518115Y-86871546D01*
X99568679Y-86823334D01*
X99637286Y-86810110D01*
X99702151Y-86836078D01*
X99742680Y-86892992D01*
X99749500Y-86933549D01*
X99749500Y-87297869D01*
X99749501Y-87297876D01*
X99755908Y-87357483D01*
X99806202Y-87492328D01*
X99806206Y-87492335D01*
X99892452Y-87607544D01*
X99892455Y-87607547D01*
X100007664Y-87693793D01*
X100007671Y-87693797D01*
X100142517Y-87744091D01*
X100142516Y-87744091D01*
X100149444Y-87744835D01*
X100202127Y-87750500D01*
X102797872Y-87750499D01*
X102857483Y-87744091D01*
X102992331Y-87693796D01*
X103107546Y-87607546D01*
X103193796Y-87492331D01*
X103244091Y-87357483D01*
X103250500Y-87297873D01*
X103250499Y-84702128D01*
X103244091Y-84642517D01*
X103230923Y-84607213D01*
X103193797Y-84507671D01*
X103193793Y-84507664D01*
X103107547Y-84392455D01*
X103107544Y-84392452D01*
X102992335Y-84306206D01*
X102992328Y-84306202D01*
X102857482Y-84255908D01*
X102857483Y-84255908D01*
X102797883Y-84249501D01*
X102797881Y-84249500D01*
X102797873Y-84249500D01*
X102797864Y-84249500D01*
X100202129Y-84249500D01*
X100202123Y-84249501D01*
X100142516Y-84255908D01*
X100007671Y-84306202D01*
X100007664Y-84306206D01*
X99892455Y-84392452D01*
X99892452Y-84392455D01*
X99806206Y-84507664D01*
X99806202Y-84507671D01*
X99755908Y-84642517D01*
X99749501Y-84702116D01*
X99749501Y-84702123D01*
X99749500Y-84702135D01*
X99749500Y-85066449D01*
X99729815Y-85133488D01*
X99677011Y-85179243D01*
X99607853Y-85189187D01*
X99544297Y-85160162D01*
X99518113Y-85128449D01*
X99497364Y-85092511D01*
X99458611Y-85025388D01*
X99458608Y-85025385D01*
X99458607Y-85025382D01*
X99318918Y-84843338D01*
X99318911Y-84843330D01*
X99156670Y-84681089D01*
X99156661Y-84681081D01*
X98974617Y-84541392D01*
X98916210Y-84507671D01*
X98825333Y-84455203D01*
X98775890Y-84426657D01*
X98775876Y-84426650D01*
X98563887Y-84338842D01*
X98502856Y-84322489D01*
X98342238Y-84279452D01*
X98304215Y-84274446D01*
X98114741Y-84249500D01*
X98114734Y-84249500D01*
X97885266Y-84249500D01*
X97885258Y-84249500D01*
X97668715Y-84278009D01*
X97657762Y-84279452D01*
X97564076Y-84304554D01*
X97436112Y-84338842D01*
X97224123Y-84426650D01*
X97224109Y-84426657D01*
X97025382Y-84541392D01*
X96843338Y-84681081D01*
X96681081Y-84843338D01*
X96541392Y-85025382D01*
X96426657Y-85224109D01*
X96426650Y-85224123D01*
X96364561Y-85374022D01*
X96320720Y-85428426D01*
X96254426Y-85450491D01*
X96186727Y-85433212D01*
X96139116Y-85382075D01*
X96135439Y-85374022D01*
X96073349Y-85224123D01*
X96073346Y-85224117D01*
X96073344Y-85224112D01*
X95958611Y-85025388D01*
X95958608Y-85025385D01*
X95958607Y-85025382D01*
X95818918Y-84843338D01*
X95818911Y-84843330D01*
X95656670Y-84681089D01*
X95656661Y-84681081D01*
X95474617Y-84541392D01*
X95416210Y-84507671D01*
X95325333Y-84455203D01*
X95275890Y-84426657D01*
X95275876Y-84426650D01*
X95063887Y-84338842D01*
X95002856Y-84322489D01*
X94842238Y-84279452D01*
X94804215Y-84274446D01*
X94614741Y-84249500D01*
X94614734Y-84249500D01*
X94385266Y-84249500D01*
X94385258Y-84249500D01*
X94168715Y-84278009D01*
X94157762Y-84279452D01*
X94064076Y-84304554D01*
X93936112Y-84338842D01*
X93724123Y-84426650D01*
X93724109Y-84426657D01*
X93525382Y-84541392D01*
X93343338Y-84681081D01*
X93181081Y-84843338D01*
X93041392Y-85025382D01*
X92926657Y-85224109D01*
X92926650Y-85224123D01*
X92838842Y-85436112D01*
X92779453Y-85657759D01*
X92779451Y-85657770D01*
X92749500Y-85885258D01*
X90432669Y-85885258D01*
X90405218Y-85800776D01*
X90332352Y-85657770D01*
X90312287Y-85618390D01*
X90304556Y-85607749D01*
X90191971Y-85452786D01*
X90047213Y-85308028D01*
X89881614Y-85187715D01*
X89827538Y-85160162D01*
X89788917Y-85140483D01*
X89738123Y-85092511D01*
X89721328Y-85024690D01*
X89743865Y-84958555D01*
X89788917Y-84919516D01*
X89881610Y-84872287D01*
X89921466Y-84843330D01*
X90047213Y-84751971D01*
X90047215Y-84751968D01*
X90047219Y-84751966D01*
X90191966Y-84607219D01*
X90191968Y-84607215D01*
X90191971Y-84607213D01*
X90264291Y-84507671D01*
X90312287Y-84441610D01*
X90405220Y-84259219D01*
X90468477Y-84064534D01*
X90500500Y-83862352D01*
X90500500Y-83657648D01*
X90468477Y-83455466D01*
X90405220Y-83260781D01*
X90405218Y-83260778D01*
X90405218Y-83260776D01*
X90371503Y-83194607D01*
X90312287Y-83078390D01*
X90240890Y-82980119D01*
X90191971Y-82912786D01*
X90047213Y-82768028D01*
X89881614Y-82647715D01*
X89875006Y-82644348D01*
X89788917Y-82600483D01*
X89738123Y-82552511D01*
X89721328Y-82484690D01*
X89743865Y-82418555D01*
X89788917Y-82379516D01*
X89881610Y-82332287D01*
X89902770Y-82316913D01*
X90047213Y-82211971D01*
X90047215Y-82211968D01*
X90047219Y-82211966D01*
X90191966Y-82067219D01*
X90191968Y-82067215D01*
X90191971Y-82067213D01*
X90283749Y-81940889D01*
X90312287Y-81901610D01*
X90405220Y-81719219D01*
X90468477Y-81524534D01*
X90500500Y-81322352D01*
X90500500Y-81117648D01*
X90468477Y-80915466D01*
X90461116Y-80892812D01*
X90416794Y-80756403D01*
X90405220Y-80720781D01*
X90405218Y-80720778D01*
X90405218Y-80720776D01*
X90371503Y-80654607D01*
X90312287Y-80538390D01*
X90304556Y-80527749D01*
X90191971Y-80372786D01*
X90047217Y-80228032D01*
X90047215Y-80228031D01*
X90042104Y-80224317D01*
X89999439Y-80168987D01*
X89993461Y-80099373D01*
X90026068Y-80037579D01*
X90086907Y-80003222D01*
X90114991Y-80000000D01*
X91000000Y-80000000D01*
X91000000Y-76893713D01*
X102649500Y-76893713D01*
X102649500Y-77106286D01*
X102682753Y-77316239D01*
X102748444Y-77518414D01*
X102844951Y-77707820D01*
X102969890Y-77879786D01*
X103120213Y-78030109D01*
X103292179Y-78155048D01*
X103292181Y-78155049D01*
X103292184Y-78155051D01*
X103481588Y-78251557D01*
X103683757Y-78317246D01*
X103893713Y-78350500D01*
X103893714Y-78350500D01*
X104106286Y-78350500D01*
X104106287Y-78350500D01*
X104316243Y-78317246D01*
X104518412Y-78251557D01*
X104707816Y-78155051D01*
X104729789Y-78139086D01*
X104879786Y-78030109D01*
X104879788Y-78030106D01*
X104879792Y-78030104D01*
X105030104Y-77879792D01*
X105030106Y-77879788D01*
X105030109Y-77879786D01*
X105155048Y-77707820D01*
X105155047Y-77707820D01*
X105155051Y-77707816D01*
X105251557Y-77518412D01*
X105317246Y-77316243D01*
X105350500Y-77106287D01*
X105350500Y-76893713D01*
X105317246Y-76683757D01*
X105251557Y-76481588D01*
X105155051Y-76292184D01*
X105155049Y-76292181D01*
X105155048Y-76292179D01*
X105030109Y-76120213D01*
X104879786Y-75969890D01*
X104707820Y-75844951D01*
X104518414Y-75748444D01*
X104518413Y-75748443D01*
X104518412Y-75748443D01*
X104316243Y-75682754D01*
X104316241Y-75682753D01*
X104316240Y-75682753D01*
X104154957Y-75657208D01*
X104106287Y-75649500D01*
X103893713Y-75649500D01*
X103845042Y-75657208D01*
X103683760Y-75682753D01*
X103481585Y-75748444D01*
X103292179Y-75844951D01*
X103120213Y-75969890D01*
X102969890Y-76120213D01*
X102844951Y-76292179D01*
X102748444Y-76481585D01*
X102682753Y-76683760D01*
X102649500Y-76893713D01*
X91000000Y-76893713D01*
X91000000Y-72624500D01*
X91019685Y-72557461D01*
X91072489Y-72511706D01*
X91124000Y-72500500D01*
X93934108Y-72500500D01*
X103741324Y-72500500D01*
X103808363Y-72520185D01*
X103829005Y-72536819D01*
X106463181Y-75170995D01*
X106496666Y-75232318D01*
X106499500Y-75258676D01*
X106499500Y-105741324D01*
X106479815Y-105808363D01*
X106463181Y-105829005D01*
X102829005Y-109463181D01*
X102767682Y-109496666D01*
X102741324Y-109499500D01*
X57258675Y-109499500D01*
X57191636Y-109479815D01*
X57170994Y-109463181D01*
X53684336Y-105976522D01*
X53601527Y-105893713D01*
X56649500Y-105893713D01*
X56649500Y-106106286D01*
X56681339Y-106307314D01*
X56682754Y-106316243D01*
X56710131Y-106400501D01*
X56748444Y-106518414D01*
X56844951Y-106707820D01*
X56969890Y-106879786D01*
X57120213Y-107030109D01*
X57292179Y-107155048D01*
X57292181Y-107155049D01*
X57292184Y-107155051D01*
X57481588Y-107251557D01*
X57683757Y-107317246D01*
X57893713Y-107350500D01*
X57893714Y-107350500D01*
X58106286Y-107350500D01*
X58106287Y-107350500D01*
X58316243Y-107317246D01*
X58518412Y-107251557D01*
X58707816Y-107155051D01*
X58729789Y-107139086D01*
X58879786Y-107030109D01*
X58879788Y-107030106D01*
X58879792Y-107030104D01*
X59030104Y-106879792D01*
X59030106Y-106879788D01*
X59030109Y-106879786D01*
X59155048Y-106707820D01*
X59155047Y-106707820D01*
X59155051Y-106707816D01*
X59251557Y-106518412D01*
X59317246Y-106316243D01*
X59350500Y-106106287D01*
X59350500Y-105893713D01*
X59317246Y-105683757D01*
X59251557Y-105481588D01*
X59155051Y-105292184D01*
X59155049Y-105292181D01*
X59155048Y-105292179D01*
X59030109Y-105120213D01*
X58879786Y-104969890D01*
X58707820Y-104844951D01*
X58518414Y-104748444D01*
X58518413Y-104748443D01*
X58518412Y-104748443D01*
X58316243Y-104682754D01*
X58316241Y-104682753D01*
X58316240Y-104682753D01*
X58154957Y-104657208D01*
X58106287Y-104649500D01*
X57893713Y-104649500D01*
X57845042Y-104657208D01*
X57683760Y-104682753D01*
X57481585Y-104748444D01*
X57292179Y-104844951D01*
X57120213Y-104969890D01*
X56969890Y-105120213D01*
X56844951Y-105292179D01*
X56748444Y-105481585D01*
X56682753Y-105683760D01*
X56649500Y-105893713D01*
X53601527Y-105893713D01*
X53536819Y-105829005D01*
X53503334Y-105767682D01*
X53500500Y-105741324D01*
X53500500Y-97885258D01*
X57249500Y-97885258D01*
X57249500Y-98114741D01*
X57274446Y-98304215D01*
X57279452Y-98342238D01*
X57321932Y-98500776D01*
X57338842Y-98563887D01*
X57426650Y-98775876D01*
X57426657Y-98775890D01*
X57455765Y-98826306D01*
X57514797Y-98928554D01*
X57541392Y-98974617D01*
X57681081Y-99156661D01*
X57681089Y-99156670D01*
X57843330Y-99318911D01*
X57843338Y-99318918D01*
X58025382Y-99458607D01*
X58025385Y-99458608D01*
X58025388Y-99458611D01*
X58224112Y-99573344D01*
X58224117Y-99573346D01*
X58224123Y-99573349D01*
X58374022Y-99635439D01*
X58428426Y-99679280D01*
X58450491Y-99745574D01*
X58433212Y-99813273D01*
X58382075Y-99860884D01*
X58374022Y-99864561D01*
X58224123Y-99926650D01*
X58224109Y-99926657D01*
X58025382Y-100041392D01*
X57843338Y-100181081D01*
X57681081Y-100343338D01*
X57541392Y-100525382D01*
X57426657Y-100724109D01*
X57426650Y-100724123D01*
X57338842Y-100936112D01*
X57279453Y-101157759D01*
X57279451Y-101157770D01*
X57249500Y-101385258D01*
X57249500Y-101614741D01*
X57264703Y-101730213D01*
X57279452Y-101842238D01*
X57280734Y-101847021D01*
X57338842Y-102063887D01*
X57426650Y-102275876D01*
X57426657Y-102275890D01*
X57541392Y-102474617D01*
X57681081Y-102656661D01*
X57681089Y-102656670D01*
X57843330Y-102818911D01*
X57843338Y-102818918D01*
X58025382Y-102958607D01*
X58025385Y-102958608D01*
X58025388Y-102958611D01*
X58224112Y-103073344D01*
X58224117Y-103073346D01*
X58224123Y-103073349D01*
X58302074Y-103105637D01*
X58436113Y-103161158D01*
X58657762Y-103220548D01*
X58885266Y-103250500D01*
X58885273Y-103250500D01*
X59114727Y-103250500D01*
X59114734Y-103250500D01*
X59342238Y-103220548D01*
X59563887Y-103161158D01*
X59775888Y-103073344D01*
X59974612Y-102958611D01*
X60156661Y-102818919D01*
X60156665Y-102818914D01*
X60156670Y-102818911D01*
X60318911Y-102656670D01*
X60318914Y-102656665D01*
X60318919Y-102656661D01*
X60458611Y-102474612D01*
X60573344Y-102275888D01*
X60661158Y-102063887D01*
X60720548Y-101842238D01*
X60750500Y-101614734D01*
X60750500Y-101385266D01*
X60720548Y-101157762D01*
X60661158Y-100936113D01*
X60573344Y-100724112D01*
X60458611Y-100525388D01*
X60458608Y-100525385D01*
X60458607Y-100525382D01*
X60357764Y-100393962D01*
X60318919Y-100343339D01*
X60318918Y-100343338D01*
X60318911Y-100343330D01*
X60156670Y-100181089D01*
X60156661Y-100181081D01*
X59974617Y-100041392D01*
X59775890Y-99926657D01*
X59775876Y-99926650D01*
X59667083Y-99881587D01*
X59625976Y-99864560D01*
X59571573Y-99820721D01*
X59549508Y-99754426D01*
X59566787Y-99686727D01*
X59617924Y-99639116D01*
X59625967Y-99635443D01*
X59775888Y-99573344D01*
X59974612Y-99458611D01*
X60156661Y-99318919D01*
X60156665Y-99318914D01*
X60156670Y-99318911D01*
X60318910Y-99156670D01*
X60318919Y-99156661D01*
X60458611Y-98974612D01*
X60573344Y-98775888D01*
X60661158Y-98563887D01*
X60720548Y-98342238D01*
X60750500Y-98114734D01*
X60750500Y-97885266D01*
X60720548Y-97657762D01*
X60661158Y-97436113D01*
X60582229Y-97245562D01*
X60573349Y-97224123D01*
X60573346Y-97224117D01*
X60573344Y-97224112D01*
X60458611Y-97025388D01*
X60458608Y-97025385D01*
X60458607Y-97025382D01*
X60318918Y-96843338D01*
X60318911Y-96843330D01*
X60156670Y-96681089D01*
X60156661Y-96681081D01*
X59974617Y-96541392D01*
X59941912Y-96522510D01*
X59870684Y-96481386D01*
X59822469Y-96430820D01*
X59809247Y-96362213D01*
X59835215Y-96297348D01*
X59892129Y-96256820D01*
X59932685Y-96250000D01*
X60297828Y-96250000D01*
X60297844Y-96249999D01*
X60357372Y-96243598D01*
X60357379Y-96243596D01*
X60492086Y-96193354D01*
X60492093Y-96193350D01*
X60607187Y-96107190D01*
X60607190Y-96107187D01*
X60693350Y-95992093D01*
X60693354Y-95992086D01*
X60743596Y-95857379D01*
X60743598Y-95857372D01*
X60749999Y-95797844D01*
X60750000Y-95797827D01*
X60750000Y-94750000D01*
X59548482Y-94750000D01*
X59559111Y-94731591D01*
X59600000Y-94578991D01*
X59600000Y-94421009D01*
X59559111Y-94268409D01*
X59548482Y-94250000D01*
X60750000Y-94250000D01*
X60750000Y-93202172D01*
X60749999Y-93202155D01*
X60743598Y-93142627D01*
X60743596Y-93142620D01*
X60693354Y-93007913D01*
X60693350Y-93007906D01*
X60607190Y-92892812D01*
X60607187Y-92892809D01*
X60492093Y-92806649D01*
X60492086Y-92806645D01*
X60357379Y-92756403D01*
X60357372Y-92756401D01*
X60297844Y-92750000D01*
X59250000Y-92750000D01*
X59250000Y-93951517D01*
X59231591Y-93940889D01*
X59078991Y-93900000D01*
X58921009Y-93900000D01*
X58768409Y-93940889D01*
X58750000Y-93951517D01*
X58750000Y-92750000D01*
X57702155Y-92750000D01*
X57642627Y-92756401D01*
X57642620Y-92756403D01*
X57507913Y-92806645D01*
X57507906Y-92806649D01*
X57392812Y-92892809D01*
X57392809Y-92892812D01*
X57306649Y-93007906D01*
X57306645Y-93007913D01*
X57256403Y-93142620D01*
X57256401Y-93142627D01*
X57250000Y-93202155D01*
X57250000Y-94250000D01*
X58451518Y-94250000D01*
X58440889Y-94268409D01*
X58400000Y-94421009D01*
X58400000Y-94578991D01*
X58440889Y-94731591D01*
X58451518Y-94750000D01*
X57250000Y-94750000D01*
X57250000Y-95797844D01*
X57256401Y-95857372D01*
X57256403Y-95857379D01*
X57306645Y-95992086D01*
X57306649Y-95992093D01*
X57392809Y-96107187D01*
X57392812Y-96107190D01*
X57507906Y-96193350D01*
X57507913Y-96193354D01*
X57642620Y-96243596D01*
X57642627Y-96243598D01*
X57702155Y-96249999D01*
X57702172Y-96250000D01*
X58067315Y-96250000D01*
X58134354Y-96269685D01*
X58180109Y-96322489D01*
X58190053Y-96391647D01*
X58161028Y-96455203D01*
X58129315Y-96481387D01*
X58025382Y-96541392D01*
X57843338Y-96681081D01*
X57681081Y-96843338D01*
X57541392Y-97025382D01*
X57426657Y-97224109D01*
X57426650Y-97224123D01*
X57338842Y-97436112D01*
X57338842Y-97436113D01*
X57281059Y-97651767D01*
X57279453Y-97657759D01*
X57279451Y-97657770D01*
X57249500Y-97885258D01*
X53500500Y-97885258D01*
X53500500Y-85885258D01*
X57249500Y-85885258D01*
X57249500Y-86114741D01*
X57250499Y-86122325D01*
X57279452Y-86342238D01*
X57334989Y-86549508D01*
X57338842Y-86563887D01*
X57426650Y-86775876D01*
X57426657Y-86775890D01*
X57541392Y-86974617D01*
X57681081Y-87156661D01*
X57681089Y-87156670D01*
X57843330Y-87318911D01*
X57843338Y-87318918D01*
X58025382Y-87458607D01*
X58025385Y-87458608D01*
X58025388Y-87458611D01*
X58224112Y-87573344D01*
X58224117Y-87573346D01*
X58224123Y-87573349D01*
X58374022Y-87635439D01*
X58428426Y-87679280D01*
X58450491Y-87745574D01*
X58433212Y-87813273D01*
X58382075Y-87860884D01*
X58374022Y-87864561D01*
X58224123Y-87926650D01*
X58224109Y-87926657D01*
X58025382Y-88041392D01*
X57843338Y-88181081D01*
X57681081Y-88343338D01*
X57541392Y-88525382D01*
X57426657Y-88724109D01*
X57426650Y-88724123D01*
X57338842Y-88936112D01*
X57337170Y-88942352D01*
X57282997Y-89144534D01*
X57279453Y-89157759D01*
X57279451Y-89157770D01*
X57249500Y-89385258D01*
X57249500Y-89614741D01*
X57274446Y-89804215D01*
X57279452Y-89842238D01*
X57338842Y-90063887D01*
X57426650Y-90275876D01*
X57426657Y-90275890D01*
X57541392Y-90474617D01*
X57681081Y-90656661D01*
X57681089Y-90656670D01*
X57843330Y-90818911D01*
X57843338Y-90818918D01*
X58025382Y-90958607D01*
X58025385Y-90958608D01*
X58025388Y-90958611D01*
X58224112Y-91073344D01*
X58224117Y-91073346D01*
X58224123Y-91073349D01*
X58315480Y-91111190D01*
X58436113Y-91161158D01*
X58657762Y-91220548D01*
X58885266Y-91250500D01*
X58885273Y-91250500D01*
X59114727Y-91250500D01*
X59114734Y-91250500D01*
X59342238Y-91220548D01*
X59563887Y-91161158D01*
X59775888Y-91073344D01*
X59974612Y-90958611D01*
X60156661Y-90818919D01*
X60156665Y-90818914D01*
X60156670Y-90818911D01*
X60318911Y-90656670D01*
X60318914Y-90656665D01*
X60318919Y-90656661D01*
X60458611Y-90474612D01*
X60573344Y-90275888D01*
X60661158Y-90063887D01*
X60720548Y-89842238D01*
X60750500Y-89614734D01*
X60750500Y-89385266D01*
X60720548Y-89157762D01*
X60661158Y-88936113D01*
X60573344Y-88724112D01*
X60458611Y-88525388D01*
X60458608Y-88525385D01*
X60458607Y-88525382D01*
X60318918Y-88343338D01*
X60318911Y-88343330D01*
X60156670Y-88181089D01*
X60156661Y-88181081D01*
X59974617Y-88041392D01*
X59775890Y-87926657D01*
X59775876Y-87926650D01*
X59667083Y-87881587D01*
X59625976Y-87864560D01*
X59571573Y-87820721D01*
X59549508Y-87754426D01*
X59566787Y-87686727D01*
X59617924Y-87639116D01*
X59625967Y-87635443D01*
X59775888Y-87573344D01*
X59974612Y-87458611D01*
X60156661Y-87318919D01*
X60156665Y-87318914D01*
X60156670Y-87318911D01*
X60318911Y-87156670D01*
X60318914Y-87156665D01*
X60318919Y-87156661D01*
X60458611Y-86974612D01*
X60573344Y-86775888D01*
X60661158Y-86563887D01*
X60720548Y-86342238D01*
X60750500Y-86114734D01*
X60750500Y-85885266D01*
X60720548Y-85657762D01*
X60661158Y-85436113D01*
X60573344Y-85224112D01*
X60458611Y-85025388D01*
X60458608Y-85025385D01*
X60458607Y-85025382D01*
X60318918Y-84843338D01*
X60318911Y-84843330D01*
X60156670Y-84681089D01*
X60156661Y-84681081D01*
X59974617Y-84541392D01*
X59916210Y-84507671D01*
X59870684Y-84481386D01*
X59822469Y-84430820D01*
X59809247Y-84362213D01*
X59835215Y-84297348D01*
X59892129Y-84256820D01*
X59932685Y-84250000D01*
X60297828Y-84250000D01*
X60297844Y-84249999D01*
X60357372Y-84243598D01*
X60357379Y-84243596D01*
X60492086Y-84193354D01*
X60492093Y-84193350D01*
X60607187Y-84107190D01*
X60607190Y-84107187D01*
X60693350Y-83992093D01*
X60693354Y-83992086D01*
X60743596Y-83857379D01*
X60743598Y-83857372D01*
X60749999Y-83797844D01*
X60750000Y-83797827D01*
X60750000Y-82750000D01*
X59548482Y-82750000D01*
X59559111Y-82731591D01*
X59600000Y-82578991D01*
X59600000Y-82421009D01*
X59559111Y-82268409D01*
X59548482Y-82250000D01*
X60750000Y-82250000D01*
X60750000Y-81202172D01*
X60749999Y-81202155D01*
X60743598Y-81142627D01*
X60743596Y-81142620D01*
X60693354Y-81007913D01*
X60693350Y-81007906D01*
X60607190Y-80892812D01*
X60607187Y-80892809D01*
X60492093Y-80806649D01*
X60492086Y-80806645D01*
X60357379Y-80756403D01*
X60357372Y-80756401D01*
X60297844Y-80750000D01*
X59250000Y-80750000D01*
X59250000Y-81951517D01*
X59231591Y-81940889D01*
X59078991Y-81900000D01*
X58921009Y-81900000D01*
X58768409Y-81940889D01*
X58750000Y-81951517D01*
X58750000Y-80750000D01*
X57702155Y-80750000D01*
X57642627Y-80756401D01*
X57642620Y-80756403D01*
X57507913Y-80806645D01*
X57507906Y-80806649D01*
X57392812Y-80892809D01*
X57392809Y-80892812D01*
X57306649Y-81007906D01*
X57306645Y-81007913D01*
X57256403Y-81142620D01*
X57256401Y-81142627D01*
X57250000Y-81202155D01*
X57250000Y-82250000D01*
X58451518Y-82250000D01*
X58440889Y-82268409D01*
X58400000Y-82421009D01*
X58400000Y-82578991D01*
X58440889Y-82731591D01*
X58451518Y-82750000D01*
X57250000Y-82750000D01*
X57250000Y-83797844D01*
X57256401Y-83857372D01*
X57256403Y-83857379D01*
X57306645Y-83992086D01*
X57306649Y-83992093D01*
X57392809Y-84107187D01*
X57392812Y-84107190D01*
X57507906Y-84193350D01*
X57507913Y-84193354D01*
X57642620Y-84243596D01*
X57642627Y-84243598D01*
X57702155Y-84249999D01*
X57702172Y-84250000D01*
X58067315Y-84250000D01*
X58134354Y-84269685D01*
X58180109Y-84322489D01*
X58190053Y-84391647D01*
X58161028Y-84455203D01*
X58129315Y-84481387D01*
X58025382Y-84541392D01*
X57843338Y-84681081D01*
X57681081Y-84843338D01*
X57541392Y-85025382D01*
X57426657Y-85224109D01*
X57426650Y-85224123D01*
X57338842Y-85436112D01*
X57279453Y-85657759D01*
X57279451Y-85657770D01*
X57249500Y-85885258D01*
X53500500Y-85885258D01*
X53500500Y-76893713D01*
X56649500Y-76893713D01*
X56649500Y-77106286D01*
X56682753Y-77316239D01*
X56748444Y-77518414D01*
X56844951Y-77707820D01*
X56969890Y-77879786D01*
X57120213Y-78030109D01*
X57292179Y-78155048D01*
X57292181Y-78155049D01*
X57292184Y-78155051D01*
X57481588Y-78251557D01*
X57683757Y-78317246D01*
X57893713Y-78350500D01*
X57893714Y-78350500D01*
X58106286Y-78350500D01*
X58106287Y-78350500D01*
X58316243Y-78317246D01*
X58518412Y-78251557D01*
X58707816Y-78155051D01*
X58729789Y-78139086D01*
X58879786Y-78030109D01*
X58879788Y-78030106D01*
X58879792Y-78030104D01*
X59030104Y-77879792D01*
X59030106Y-77879788D01*
X59030109Y-77879786D01*
X59155048Y-77707820D01*
X59155047Y-77707820D01*
X59155051Y-77707816D01*
X59251557Y-77518412D01*
X59317246Y-77316243D01*
X59350500Y-77106287D01*
X59350500Y-76893713D01*
X59317246Y-76683757D01*
X59251557Y-76481588D01*
X59155051Y-76292184D01*
X59155049Y-76292181D01*
X59155048Y-76292179D01*
X59030109Y-76120213D01*
X58879786Y-75969890D01*
X58707820Y-75844951D01*
X58518414Y-75748444D01*
X58518413Y-75748443D01*
X58518412Y-75748443D01*
X58316243Y-75682754D01*
X58316241Y-75682753D01*
X58316240Y-75682753D01*
X58154957Y-75657208D01*
X58106287Y-75649500D01*
X57893713Y-75649500D01*
X57845042Y-75657208D01*
X57683760Y-75682753D01*
X57481585Y-75748444D01*
X57292179Y-75844951D01*
X57120213Y-75969890D01*
X56969890Y-76120213D01*
X56844951Y-76292179D01*
X56748444Y-76481585D01*
X56682753Y-76683760D01*
X56649500Y-76893713D01*
X53500500Y-76893713D01*
X53500500Y-76258675D01*
X53520185Y-76191636D01*
X53536819Y-76170994D01*
X57170994Y-72536819D01*
X57232317Y-72503334D01*
X57258675Y-72500500D01*
X61876000Y-72500500D01*
X61943039Y-72520185D01*
G37*
%TD.AperFunction*%
%TD*%
M02*
