%TF.GenerationSoftware,KiCad,Pcbnew,9.0.4*%
%TF.CreationDate,2026-03-01T14:56:35+01:00*%
%TF.ProjectId,PwmPump,50776d50-756d-4702-9e6b-696361645f70,rev?*%
%TF.SameCoordinates,Original*%
%TF.FileFunction,Legend,Top*%
%TF.FilePolarity,Positive*%
%FSLAX46Y46*%
G04 Gerber Fmt 4.6, Leading zero omitted, Abs format (unit mm)*
G04 Created by KiCad (PCBNEW 9.0.4) date 2026-03-01 14:56:35*
%MOMM*%
%LPD*%
G01*
G04 APERTURE LIST*
%ADD10C,0.100000*%
%ADD11C,0.150000*%
%ADD12C,0.120000*%
%ADD13C,0.203200*%
%ADD14C,0.000000*%
%ADD15C,0.127000*%
G04 APERTURE END LIST*
D10*
X67975348Y-109369656D02*
X67975348Y-108369656D01*
X68403919Y-109369656D02*
X68403919Y-108845846D01*
X68403919Y-108845846D02*
X68356300Y-108750608D01*
X68356300Y-108750608D02*
X68261062Y-108702989D01*
X68261062Y-108702989D02*
X68118205Y-108702989D01*
X68118205Y-108702989D02*
X68022967Y-108750608D01*
X68022967Y-108750608D02*
X67975348Y-108798227D01*
X68737253Y-108702989D02*
X69118205Y-108702989D01*
X68880110Y-108369656D02*
X68880110Y-109226798D01*
X68880110Y-109226798D02*
X68927729Y-109322037D01*
X68927729Y-109322037D02*
X69022967Y-109369656D01*
X69022967Y-109369656D02*
X69118205Y-109369656D01*
X69308682Y-108702989D02*
X69689634Y-108702989D01*
X69451539Y-108369656D02*
X69451539Y-109226798D01*
X69451539Y-109226798D02*
X69499158Y-109322037D01*
X69499158Y-109322037D02*
X69594396Y-109369656D01*
X69594396Y-109369656D02*
X69689634Y-109369656D01*
X70022968Y-108702989D02*
X70022968Y-109702989D01*
X70022968Y-108750608D02*
X70118206Y-108702989D01*
X70118206Y-108702989D02*
X70308682Y-108702989D01*
X70308682Y-108702989D02*
X70403920Y-108750608D01*
X70403920Y-108750608D02*
X70451539Y-108798227D01*
X70451539Y-108798227D02*
X70499158Y-108893465D01*
X70499158Y-108893465D02*
X70499158Y-109179179D01*
X70499158Y-109179179D02*
X70451539Y-109274417D01*
X70451539Y-109274417D02*
X70403920Y-109322037D01*
X70403920Y-109322037D02*
X70308682Y-109369656D01*
X70308682Y-109369656D02*
X70118206Y-109369656D01*
X70118206Y-109369656D02*
X70022968Y-109322037D01*
X70880111Y-109322037D02*
X70975349Y-109369656D01*
X70975349Y-109369656D02*
X71165825Y-109369656D01*
X71165825Y-109369656D02*
X71261063Y-109322037D01*
X71261063Y-109322037D02*
X71308682Y-109226798D01*
X71308682Y-109226798D02*
X71308682Y-109179179D01*
X71308682Y-109179179D02*
X71261063Y-109083941D01*
X71261063Y-109083941D02*
X71165825Y-109036322D01*
X71165825Y-109036322D02*
X71022968Y-109036322D01*
X71022968Y-109036322D02*
X70927730Y-108988703D01*
X70927730Y-108988703D02*
X70880111Y-108893465D01*
X70880111Y-108893465D02*
X70880111Y-108845846D01*
X70880111Y-108845846D02*
X70927730Y-108750608D01*
X70927730Y-108750608D02*
X71022968Y-108702989D01*
X71022968Y-108702989D02*
X71165825Y-108702989D01*
X71165825Y-108702989D02*
X71261063Y-108750608D01*
X71737254Y-109274417D02*
X71784873Y-109322037D01*
X71784873Y-109322037D02*
X71737254Y-109369656D01*
X71737254Y-109369656D02*
X71689635Y-109322037D01*
X71689635Y-109322037D02*
X71737254Y-109274417D01*
X71737254Y-109274417D02*
X71737254Y-109369656D01*
X71737254Y-108750608D02*
X71784873Y-108798227D01*
X71784873Y-108798227D02*
X71737254Y-108845846D01*
X71737254Y-108845846D02*
X71689635Y-108798227D01*
X71689635Y-108798227D02*
X71737254Y-108750608D01*
X71737254Y-108750608D02*
X71737254Y-108845846D01*
X72927729Y-108322037D02*
X72070587Y-109607751D01*
X73975348Y-108322037D02*
X73118206Y-109607751D01*
X74737253Y-108702989D02*
X74737253Y-109512513D01*
X74737253Y-109512513D02*
X74689634Y-109607751D01*
X74689634Y-109607751D02*
X74642015Y-109655370D01*
X74642015Y-109655370D02*
X74546777Y-109702989D01*
X74546777Y-109702989D02*
X74403920Y-109702989D01*
X74403920Y-109702989D02*
X74308682Y-109655370D01*
X74737253Y-109322037D02*
X74642015Y-109369656D01*
X74642015Y-109369656D02*
X74451539Y-109369656D01*
X74451539Y-109369656D02*
X74356301Y-109322037D01*
X74356301Y-109322037D02*
X74308682Y-109274417D01*
X74308682Y-109274417D02*
X74261063Y-109179179D01*
X74261063Y-109179179D02*
X74261063Y-108893465D01*
X74261063Y-108893465D02*
X74308682Y-108798227D01*
X74308682Y-108798227D02*
X74356301Y-108750608D01*
X74356301Y-108750608D02*
X74451539Y-108702989D01*
X74451539Y-108702989D02*
X74642015Y-108702989D01*
X74642015Y-108702989D02*
X74737253Y-108750608D01*
X75213444Y-109369656D02*
X75213444Y-108702989D01*
X75213444Y-108369656D02*
X75165825Y-108417275D01*
X75165825Y-108417275D02*
X75213444Y-108464894D01*
X75213444Y-108464894D02*
X75261063Y-108417275D01*
X75261063Y-108417275D02*
X75213444Y-108369656D01*
X75213444Y-108369656D02*
X75213444Y-108464894D01*
X75546777Y-108702989D02*
X75927729Y-108702989D01*
X75689634Y-108369656D02*
X75689634Y-109226798D01*
X75689634Y-109226798D02*
X75737253Y-109322037D01*
X75737253Y-109322037D02*
X75832491Y-109369656D01*
X75832491Y-109369656D02*
X75927729Y-109369656D01*
X76261063Y-109369656D02*
X76261063Y-108369656D01*
X76689634Y-109369656D02*
X76689634Y-108845846D01*
X76689634Y-108845846D02*
X76642015Y-108750608D01*
X76642015Y-108750608D02*
X76546777Y-108702989D01*
X76546777Y-108702989D02*
X76403920Y-108702989D01*
X76403920Y-108702989D02*
X76308682Y-108750608D01*
X76308682Y-108750608D02*
X76261063Y-108798227D01*
X77594396Y-108702989D02*
X77594396Y-109369656D01*
X77165825Y-108702989D02*
X77165825Y-109226798D01*
X77165825Y-109226798D02*
X77213444Y-109322037D01*
X77213444Y-109322037D02*
X77308682Y-109369656D01*
X77308682Y-109369656D02*
X77451539Y-109369656D01*
X77451539Y-109369656D02*
X77546777Y-109322037D01*
X77546777Y-109322037D02*
X77594396Y-109274417D01*
X78070587Y-109369656D02*
X78070587Y-108369656D01*
X78070587Y-108750608D02*
X78165825Y-108702989D01*
X78165825Y-108702989D02*
X78356301Y-108702989D01*
X78356301Y-108702989D02*
X78451539Y-108750608D01*
X78451539Y-108750608D02*
X78499158Y-108798227D01*
X78499158Y-108798227D02*
X78546777Y-108893465D01*
X78546777Y-108893465D02*
X78546777Y-109179179D01*
X78546777Y-109179179D02*
X78499158Y-109274417D01*
X78499158Y-109274417D02*
X78451539Y-109322037D01*
X78451539Y-109322037D02*
X78356301Y-109369656D01*
X78356301Y-109369656D02*
X78165825Y-109369656D01*
X78165825Y-109369656D02*
X78070587Y-109322037D01*
X78975349Y-109274417D02*
X79022968Y-109322037D01*
X79022968Y-109322037D02*
X78975349Y-109369656D01*
X78975349Y-109369656D02*
X78927730Y-109322037D01*
X78927730Y-109322037D02*
X78975349Y-109274417D01*
X78975349Y-109274417D02*
X78975349Y-109369656D01*
X79880110Y-109322037D02*
X79784872Y-109369656D01*
X79784872Y-109369656D02*
X79594396Y-109369656D01*
X79594396Y-109369656D02*
X79499158Y-109322037D01*
X79499158Y-109322037D02*
X79451539Y-109274417D01*
X79451539Y-109274417D02*
X79403920Y-109179179D01*
X79403920Y-109179179D02*
X79403920Y-108893465D01*
X79403920Y-108893465D02*
X79451539Y-108798227D01*
X79451539Y-108798227D02*
X79499158Y-108750608D01*
X79499158Y-108750608D02*
X79594396Y-108702989D01*
X79594396Y-108702989D02*
X79784872Y-108702989D01*
X79784872Y-108702989D02*
X79880110Y-108750608D01*
X80451539Y-109369656D02*
X80356301Y-109322037D01*
X80356301Y-109322037D02*
X80308682Y-109274417D01*
X80308682Y-109274417D02*
X80261063Y-109179179D01*
X80261063Y-109179179D02*
X80261063Y-108893465D01*
X80261063Y-108893465D02*
X80308682Y-108798227D01*
X80308682Y-108798227D02*
X80356301Y-108750608D01*
X80356301Y-108750608D02*
X80451539Y-108702989D01*
X80451539Y-108702989D02*
X80594396Y-108702989D01*
X80594396Y-108702989D02*
X80689634Y-108750608D01*
X80689634Y-108750608D02*
X80737253Y-108798227D01*
X80737253Y-108798227D02*
X80784872Y-108893465D01*
X80784872Y-108893465D02*
X80784872Y-109179179D01*
X80784872Y-109179179D02*
X80737253Y-109274417D01*
X80737253Y-109274417D02*
X80689634Y-109322037D01*
X80689634Y-109322037D02*
X80594396Y-109369656D01*
X80594396Y-109369656D02*
X80451539Y-109369656D01*
X81213444Y-109369656D02*
X81213444Y-108702989D01*
X81213444Y-108798227D02*
X81261063Y-108750608D01*
X81261063Y-108750608D02*
X81356301Y-108702989D01*
X81356301Y-108702989D02*
X81499158Y-108702989D01*
X81499158Y-108702989D02*
X81594396Y-108750608D01*
X81594396Y-108750608D02*
X81642015Y-108845846D01*
X81642015Y-108845846D02*
X81642015Y-109369656D01*
X81642015Y-108845846D02*
X81689634Y-108750608D01*
X81689634Y-108750608D02*
X81784872Y-108702989D01*
X81784872Y-108702989D02*
X81927729Y-108702989D01*
X81927729Y-108702989D02*
X82022968Y-108750608D01*
X82022968Y-108750608D02*
X82070587Y-108845846D01*
X82070587Y-108845846D02*
X82070587Y-109369656D01*
X83261062Y-108322037D02*
X82403920Y-109607751D01*
X83594396Y-109369656D02*
X83594396Y-108702989D01*
X83594396Y-108798227D02*
X83642015Y-108750608D01*
X83642015Y-108750608D02*
X83737253Y-108702989D01*
X83737253Y-108702989D02*
X83880110Y-108702989D01*
X83880110Y-108702989D02*
X83975348Y-108750608D01*
X83975348Y-108750608D02*
X84022967Y-108845846D01*
X84022967Y-108845846D02*
X84022967Y-109369656D01*
X84022967Y-108845846D02*
X84070586Y-108750608D01*
X84070586Y-108750608D02*
X84165824Y-108702989D01*
X84165824Y-108702989D02*
X84308681Y-108702989D01*
X84308681Y-108702989D02*
X84403920Y-108750608D01*
X84403920Y-108750608D02*
X84451539Y-108845846D01*
X84451539Y-108845846D02*
X84451539Y-109369656D01*
X84880110Y-109083941D02*
X85356300Y-109083941D01*
X84784872Y-109369656D02*
X85118205Y-108369656D01*
X85118205Y-108369656D02*
X85451538Y-109369656D01*
X85784872Y-109369656D02*
X85784872Y-108369656D01*
X85784872Y-108369656D02*
X86165824Y-108369656D01*
X86165824Y-108369656D02*
X86261062Y-108417275D01*
X86261062Y-108417275D02*
X86308681Y-108464894D01*
X86308681Y-108464894D02*
X86356300Y-108560132D01*
X86356300Y-108560132D02*
X86356300Y-108702989D01*
X86356300Y-108702989D02*
X86308681Y-108798227D01*
X86308681Y-108798227D02*
X86261062Y-108845846D01*
X86261062Y-108845846D02*
X86165824Y-108893465D01*
X86165824Y-108893465D02*
X85784872Y-108893465D01*
X87118205Y-108845846D02*
X87261062Y-108893465D01*
X87261062Y-108893465D02*
X87308681Y-108941084D01*
X87308681Y-108941084D02*
X87356300Y-109036322D01*
X87356300Y-109036322D02*
X87356300Y-109179179D01*
X87356300Y-109179179D02*
X87308681Y-109274417D01*
X87308681Y-109274417D02*
X87261062Y-109322037D01*
X87261062Y-109322037D02*
X87165824Y-109369656D01*
X87165824Y-109369656D02*
X86784872Y-109369656D01*
X86784872Y-109369656D02*
X86784872Y-108369656D01*
X86784872Y-108369656D02*
X87118205Y-108369656D01*
X87118205Y-108369656D02*
X87213443Y-108417275D01*
X87213443Y-108417275D02*
X87261062Y-108464894D01*
X87261062Y-108464894D02*
X87308681Y-108560132D01*
X87308681Y-108560132D02*
X87308681Y-108655370D01*
X87308681Y-108655370D02*
X87261062Y-108750608D01*
X87261062Y-108750608D02*
X87213443Y-108798227D01*
X87213443Y-108798227D02*
X87118205Y-108845846D01*
X87118205Y-108845846D02*
X86784872Y-108845846D01*
X87784872Y-109369656D02*
X87784872Y-108369656D01*
X88213443Y-109369656D02*
X88213443Y-108845846D01*
X88213443Y-108845846D02*
X88165824Y-108750608D01*
X88165824Y-108750608D02*
X88070586Y-108702989D01*
X88070586Y-108702989D02*
X87927729Y-108702989D01*
X87927729Y-108702989D02*
X87832491Y-108750608D01*
X87832491Y-108750608D02*
X87784872Y-108798227D01*
X88832491Y-109369656D02*
X88737253Y-109322037D01*
X88737253Y-109322037D02*
X88689634Y-109226798D01*
X88689634Y-109226798D02*
X88689634Y-108369656D01*
X89499158Y-108369656D02*
X89499158Y-109083941D01*
X89499158Y-109083941D02*
X89451539Y-109226798D01*
X89451539Y-109226798D02*
X89356301Y-109322037D01*
X89356301Y-109322037D02*
X89213444Y-109369656D01*
X89213444Y-109369656D02*
X89118206Y-109369656D01*
X90689634Y-108322037D02*
X89832492Y-109607751D01*
X91022968Y-109369656D02*
X91022968Y-108369656D01*
X91022968Y-108369656D02*
X91403920Y-108369656D01*
X91403920Y-108369656D02*
X91499158Y-108417275D01*
X91499158Y-108417275D02*
X91546777Y-108464894D01*
X91546777Y-108464894D02*
X91594396Y-108560132D01*
X91594396Y-108560132D02*
X91594396Y-108702989D01*
X91594396Y-108702989D02*
X91546777Y-108798227D01*
X91546777Y-108798227D02*
X91499158Y-108845846D01*
X91499158Y-108845846D02*
X91403920Y-108893465D01*
X91403920Y-108893465D02*
X91022968Y-108893465D01*
X91927730Y-108702989D02*
X92118206Y-109369656D01*
X92118206Y-109369656D02*
X92308682Y-108893465D01*
X92308682Y-108893465D02*
X92499158Y-109369656D01*
X92499158Y-109369656D02*
X92689634Y-108702989D01*
X93070587Y-109369656D02*
X93070587Y-108702989D01*
X93070587Y-108798227D02*
X93118206Y-108750608D01*
X93118206Y-108750608D02*
X93213444Y-108702989D01*
X93213444Y-108702989D02*
X93356301Y-108702989D01*
X93356301Y-108702989D02*
X93451539Y-108750608D01*
X93451539Y-108750608D02*
X93499158Y-108845846D01*
X93499158Y-108845846D02*
X93499158Y-109369656D01*
X93499158Y-108845846D02*
X93546777Y-108750608D01*
X93546777Y-108750608D02*
X93642015Y-108702989D01*
X93642015Y-108702989D02*
X93784872Y-108702989D01*
X93784872Y-108702989D02*
X93880111Y-108750608D01*
X93880111Y-108750608D02*
X93927730Y-108845846D01*
X93927730Y-108845846D02*
X93927730Y-109369656D01*
X94403920Y-109369656D02*
X94403920Y-108369656D01*
X94403920Y-108369656D02*
X94784872Y-108369656D01*
X94784872Y-108369656D02*
X94880110Y-108417275D01*
X94880110Y-108417275D02*
X94927729Y-108464894D01*
X94927729Y-108464894D02*
X94975348Y-108560132D01*
X94975348Y-108560132D02*
X94975348Y-108702989D01*
X94975348Y-108702989D02*
X94927729Y-108798227D01*
X94927729Y-108798227D02*
X94880110Y-108845846D01*
X94880110Y-108845846D02*
X94784872Y-108893465D01*
X94784872Y-108893465D02*
X94403920Y-108893465D01*
X95832491Y-108702989D02*
X95832491Y-109369656D01*
X95403920Y-108702989D02*
X95403920Y-109226798D01*
X95403920Y-109226798D02*
X95451539Y-109322037D01*
X95451539Y-109322037D02*
X95546777Y-109369656D01*
X95546777Y-109369656D02*
X95689634Y-109369656D01*
X95689634Y-109369656D02*
X95784872Y-109322037D01*
X95784872Y-109322037D02*
X95832491Y-109274417D01*
X96308682Y-109369656D02*
X96308682Y-108702989D01*
X96308682Y-108798227D02*
X96356301Y-108750608D01*
X96356301Y-108750608D02*
X96451539Y-108702989D01*
X96451539Y-108702989D02*
X96594396Y-108702989D01*
X96594396Y-108702989D02*
X96689634Y-108750608D01*
X96689634Y-108750608D02*
X96737253Y-108845846D01*
X96737253Y-108845846D02*
X96737253Y-109369656D01*
X96737253Y-108845846D02*
X96784872Y-108750608D01*
X96784872Y-108750608D02*
X96880110Y-108702989D01*
X96880110Y-108702989D02*
X97022967Y-108702989D01*
X97022967Y-108702989D02*
X97118206Y-108750608D01*
X97118206Y-108750608D02*
X97165825Y-108845846D01*
X97165825Y-108845846D02*
X97165825Y-109369656D01*
X97642015Y-108702989D02*
X97642015Y-109702989D01*
X97642015Y-108750608D02*
X97737253Y-108702989D01*
X97737253Y-108702989D02*
X97927729Y-108702989D01*
X97927729Y-108702989D02*
X98022967Y-108750608D01*
X98022967Y-108750608D02*
X98070586Y-108798227D01*
X98070586Y-108798227D02*
X98118205Y-108893465D01*
X98118205Y-108893465D02*
X98118205Y-109179179D01*
X98118205Y-109179179D02*
X98070586Y-109274417D01*
X98070586Y-109274417D02*
X98022967Y-109322037D01*
X98022967Y-109322037D02*
X97927729Y-109369656D01*
X97927729Y-109369656D02*
X97737253Y-109369656D01*
X97737253Y-109369656D02*
X97642015Y-109322037D01*
X102388449Y-79979462D02*
X102431306Y-79850890D01*
X102431306Y-79850890D02*
X102474163Y-79808033D01*
X102474163Y-79808033D02*
X102559878Y-79765176D01*
X102559878Y-79765176D02*
X102688449Y-79765176D01*
X102688449Y-79765176D02*
X102774163Y-79808033D01*
X102774163Y-79808033D02*
X102817021Y-79850890D01*
X102817021Y-79850890D02*
X102859878Y-79936605D01*
X102859878Y-79936605D02*
X102859878Y-80279462D01*
X102859878Y-80279462D02*
X101959878Y-80279462D01*
X101959878Y-80279462D02*
X101959878Y-79979462D01*
X101959878Y-79979462D02*
X102002735Y-79893748D01*
X102002735Y-79893748D02*
X102045592Y-79850890D01*
X102045592Y-79850890D02*
X102131306Y-79808033D01*
X102131306Y-79808033D02*
X102217021Y-79808033D01*
X102217021Y-79808033D02*
X102302735Y-79850890D01*
X102302735Y-79850890D02*
X102345592Y-79893748D01*
X102345592Y-79893748D02*
X102388449Y-79979462D01*
X102388449Y-79979462D02*
X102388449Y-80279462D01*
X102859878Y-79379462D02*
X102259878Y-79379462D01*
X102431306Y-79379462D02*
X102345592Y-79336605D01*
X102345592Y-79336605D02*
X102302735Y-79293748D01*
X102302735Y-79293748D02*
X102259878Y-79208033D01*
X102259878Y-79208033D02*
X102259878Y-79122319D01*
X102859878Y-78693747D02*
X102817021Y-78779462D01*
X102817021Y-78779462D02*
X102774163Y-78822319D01*
X102774163Y-78822319D02*
X102688449Y-78865176D01*
X102688449Y-78865176D02*
X102431306Y-78865176D01*
X102431306Y-78865176D02*
X102345592Y-78822319D01*
X102345592Y-78822319D02*
X102302735Y-78779462D01*
X102302735Y-78779462D02*
X102259878Y-78693747D01*
X102259878Y-78693747D02*
X102259878Y-78565176D01*
X102259878Y-78565176D02*
X102302735Y-78479462D01*
X102302735Y-78479462D02*
X102345592Y-78436605D01*
X102345592Y-78436605D02*
X102431306Y-78393747D01*
X102431306Y-78393747D02*
X102688449Y-78393747D01*
X102688449Y-78393747D02*
X102774163Y-78436605D01*
X102774163Y-78436605D02*
X102817021Y-78479462D01*
X102817021Y-78479462D02*
X102859878Y-78565176D01*
X102859878Y-78565176D02*
X102859878Y-78693747D01*
X102259878Y-78093747D02*
X102859878Y-77922319D01*
X102859878Y-77922319D02*
X102431306Y-77750890D01*
X102431306Y-77750890D02*
X102859878Y-77579461D01*
X102859878Y-77579461D02*
X102259878Y-77408033D01*
X102259878Y-77065176D02*
X102859878Y-77065176D01*
X102345592Y-77065176D02*
X102302735Y-77022319D01*
X102302735Y-77022319D02*
X102259878Y-76936604D01*
X102259878Y-76936604D02*
X102259878Y-76808033D01*
X102259878Y-76808033D02*
X102302735Y-76722319D01*
X102302735Y-76722319D02*
X102388449Y-76679462D01*
X102388449Y-76679462D02*
X102859878Y-76679462D01*
X102859878Y-75565176D02*
X101959878Y-75565176D01*
X101959878Y-75565176D02*
X101959878Y-75222319D01*
X101959878Y-75222319D02*
X102002735Y-75136604D01*
X102002735Y-75136604D02*
X102045592Y-75093747D01*
X102045592Y-75093747D02*
X102131306Y-75050890D01*
X102131306Y-75050890D02*
X102259878Y-75050890D01*
X102259878Y-75050890D02*
X102345592Y-75093747D01*
X102345592Y-75093747D02*
X102388449Y-75136604D01*
X102388449Y-75136604D02*
X102431306Y-75222319D01*
X102431306Y-75222319D02*
X102431306Y-75565176D01*
X101959878Y-74750890D02*
X102859878Y-74536604D01*
X102859878Y-74536604D02*
X102217021Y-74365176D01*
X102217021Y-74365176D02*
X102859878Y-74193747D01*
X102859878Y-74193747D02*
X101959878Y-73979462D01*
X102859878Y-73636605D02*
X101959878Y-73636605D01*
X101959878Y-73636605D02*
X102602735Y-73336605D01*
X102602735Y-73336605D02*
X101959878Y-73036605D01*
X101959878Y-73036605D02*
X102859878Y-73036605D01*
X105286349Y-79979462D02*
X105329206Y-79850890D01*
X105329206Y-79850890D02*
X105372063Y-79808033D01*
X105372063Y-79808033D02*
X105457778Y-79765176D01*
X105457778Y-79765176D02*
X105586349Y-79765176D01*
X105586349Y-79765176D02*
X105672063Y-79808033D01*
X105672063Y-79808033D02*
X105714921Y-79850890D01*
X105714921Y-79850890D02*
X105757778Y-79936605D01*
X105757778Y-79936605D02*
X105757778Y-80279462D01*
X105757778Y-80279462D02*
X104857778Y-80279462D01*
X104857778Y-80279462D02*
X104857778Y-79979462D01*
X104857778Y-79979462D02*
X104900635Y-79893748D01*
X104900635Y-79893748D02*
X104943492Y-79850890D01*
X104943492Y-79850890D02*
X105029206Y-79808033D01*
X105029206Y-79808033D02*
X105114921Y-79808033D01*
X105114921Y-79808033D02*
X105200635Y-79850890D01*
X105200635Y-79850890D02*
X105243492Y-79893748D01*
X105243492Y-79893748D02*
X105286349Y-79979462D01*
X105286349Y-79979462D02*
X105286349Y-80279462D01*
X105757778Y-79250890D02*
X105714921Y-79336605D01*
X105714921Y-79336605D02*
X105629206Y-79379462D01*
X105629206Y-79379462D02*
X104857778Y-79379462D01*
X105757778Y-78522319D02*
X105286349Y-78522319D01*
X105286349Y-78522319D02*
X105200635Y-78565176D01*
X105200635Y-78565176D02*
X105157778Y-78650890D01*
X105157778Y-78650890D02*
X105157778Y-78822319D01*
X105157778Y-78822319D02*
X105200635Y-78908033D01*
X105714921Y-78522319D02*
X105757778Y-78608033D01*
X105757778Y-78608033D02*
X105757778Y-78822319D01*
X105757778Y-78822319D02*
X105714921Y-78908033D01*
X105714921Y-78908033D02*
X105629206Y-78950890D01*
X105629206Y-78950890D02*
X105543492Y-78950890D01*
X105543492Y-78950890D02*
X105457778Y-78908033D01*
X105457778Y-78908033D02*
X105414921Y-78822319D01*
X105414921Y-78822319D02*
X105414921Y-78608033D01*
X105414921Y-78608033D02*
X105372063Y-78522319D01*
X105714921Y-77708033D02*
X105757778Y-77793747D01*
X105757778Y-77793747D02*
X105757778Y-77965175D01*
X105757778Y-77965175D02*
X105714921Y-78050890D01*
X105714921Y-78050890D02*
X105672063Y-78093747D01*
X105672063Y-78093747D02*
X105586349Y-78136604D01*
X105586349Y-78136604D02*
X105329206Y-78136604D01*
X105329206Y-78136604D02*
X105243492Y-78093747D01*
X105243492Y-78093747D02*
X105200635Y-78050890D01*
X105200635Y-78050890D02*
X105157778Y-77965175D01*
X105157778Y-77965175D02*
X105157778Y-77793747D01*
X105157778Y-77793747D02*
X105200635Y-77708033D01*
X105757778Y-77322318D02*
X104857778Y-77322318D01*
X105414921Y-77236604D02*
X105757778Y-76979461D01*
X105157778Y-76979461D02*
X105500635Y-77322318D01*
X105714921Y-75950890D02*
X105757778Y-75822319D01*
X105757778Y-75822319D02*
X105757778Y-75608033D01*
X105757778Y-75608033D02*
X105714921Y-75522319D01*
X105714921Y-75522319D02*
X105672063Y-75479461D01*
X105672063Y-75479461D02*
X105586349Y-75436604D01*
X105586349Y-75436604D02*
X105500635Y-75436604D01*
X105500635Y-75436604D02*
X105414921Y-75479461D01*
X105414921Y-75479461D02*
X105372063Y-75522319D01*
X105372063Y-75522319D02*
X105329206Y-75608033D01*
X105329206Y-75608033D02*
X105286349Y-75779461D01*
X105286349Y-75779461D02*
X105243492Y-75865176D01*
X105243492Y-75865176D02*
X105200635Y-75908033D01*
X105200635Y-75908033D02*
X105114921Y-75950890D01*
X105114921Y-75950890D02*
X105029206Y-75950890D01*
X105029206Y-75950890D02*
X104943492Y-75908033D01*
X104943492Y-75908033D02*
X104900635Y-75865176D01*
X104900635Y-75865176D02*
X104857778Y-75779461D01*
X104857778Y-75779461D02*
X104857778Y-75565176D01*
X104857778Y-75565176D02*
X104900635Y-75436604D01*
X105286349Y-75050890D02*
X105286349Y-74750890D01*
X105757778Y-74622318D02*
X105757778Y-75050890D01*
X105757778Y-75050890D02*
X104857778Y-75050890D01*
X104857778Y-75050890D02*
X104857778Y-74622318D01*
X105757778Y-74236604D02*
X104857778Y-74236604D01*
X104857778Y-74236604D02*
X105757778Y-73722318D01*
X105757778Y-73722318D02*
X104857778Y-73722318D01*
X105714921Y-73336604D02*
X105757778Y-73208033D01*
X105757778Y-73208033D02*
X105757778Y-72993747D01*
X105757778Y-72993747D02*
X105714921Y-72908033D01*
X105714921Y-72908033D02*
X105672063Y-72865175D01*
X105672063Y-72865175D02*
X105586349Y-72822318D01*
X105586349Y-72822318D02*
X105500635Y-72822318D01*
X105500635Y-72822318D02*
X105414921Y-72865175D01*
X105414921Y-72865175D02*
X105372063Y-72908033D01*
X105372063Y-72908033D02*
X105329206Y-72993747D01*
X105329206Y-72993747D02*
X105286349Y-73165175D01*
X105286349Y-73165175D02*
X105243492Y-73250890D01*
X105243492Y-73250890D02*
X105200635Y-73293747D01*
X105200635Y-73293747D02*
X105114921Y-73336604D01*
X105114921Y-73336604D02*
X105029206Y-73336604D01*
X105029206Y-73336604D02*
X104943492Y-73293747D01*
X104943492Y-73293747D02*
X104900635Y-73250890D01*
X104900635Y-73250890D02*
X104857778Y-73165175D01*
X104857778Y-73165175D02*
X104857778Y-72950890D01*
X104857778Y-72950890D02*
X104900635Y-72822318D01*
X108184249Y-79979462D02*
X108227106Y-79850890D01*
X108227106Y-79850890D02*
X108269963Y-79808033D01*
X108269963Y-79808033D02*
X108355678Y-79765176D01*
X108355678Y-79765176D02*
X108484249Y-79765176D01*
X108484249Y-79765176D02*
X108569963Y-79808033D01*
X108569963Y-79808033D02*
X108612821Y-79850890D01*
X108612821Y-79850890D02*
X108655678Y-79936605D01*
X108655678Y-79936605D02*
X108655678Y-80279462D01*
X108655678Y-80279462D02*
X107755678Y-80279462D01*
X107755678Y-80279462D02*
X107755678Y-79979462D01*
X107755678Y-79979462D02*
X107798535Y-79893748D01*
X107798535Y-79893748D02*
X107841392Y-79850890D01*
X107841392Y-79850890D02*
X107927106Y-79808033D01*
X107927106Y-79808033D02*
X108012821Y-79808033D01*
X108012821Y-79808033D02*
X108098535Y-79850890D01*
X108098535Y-79850890D02*
X108141392Y-79893748D01*
X108141392Y-79893748D02*
X108184249Y-79979462D01*
X108184249Y-79979462D02*
X108184249Y-80279462D01*
X108655678Y-79250890D02*
X108612821Y-79336605D01*
X108612821Y-79336605D02*
X108527106Y-79379462D01*
X108527106Y-79379462D02*
X107755678Y-79379462D01*
X108055678Y-78522319D02*
X108655678Y-78522319D01*
X108055678Y-78908033D02*
X108527106Y-78908033D01*
X108527106Y-78908033D02*
X108612821Y-78865176D01*
X108612821Y-78865176D02*
X108655678Y-78779461D01*
X108655678Y-78779461D02*
X108655678Y-78650890D01*
X108655678Y-78650890D02*
X108612821Y-78565176D01*
X108612821Y-78565176D02*
X108569963Y-78522319D01*
X108612821Y-77750890D02*
X108655678Y-77836604D01*
X108655678Y-77836604D02*
X108655678Y-78008033D01*
X108655678Y-78008033D02*
X108612821Y-78093747D01*
X108612821Y-78093747D02*
X108527106Y-78136604D01*
X108527106Y-78136604D02*
X108184249Y-78136604D01*
X108184249Y-78136604D02*
X108098535Y-78093747D01*
X108098535Y-78093747D02*
X108055678Y-78008033D01*
X108055678Y-78008033D02*
X108055678Y-77836604D01*
X108055678Y-77836604D02*
X108098535Y-77750890D01*
X108098535Y-77750890D02*
X108184249Y-77708033D01*
X108184249Y-77708033D02*
X108269963Y-77708033D01*
X108269963Y-77708033D02*
X108355678Y-78136604D01*
X107798535Y-76165175D02*
X107755678Y-76250890D01*
X107755678Y-76250890D02*
X107755678Y-76379461D01*
X107755678Y-76379461D02*
X107798535Y-76508032D01*
X107798535Y-76508032D02*
X107884249Y-76593747D01*
X107884249Y-76593747D02*
X107969963Y-76636604D01*
X107969963Y-76636604D02*
X108141392Y-76679461D01*
X108141392Y-76679461D02*
X108269963Y-76679461D01*
X108269963Y-76679461D02*
X108441392Y-76636604D01*
X108441392Y-76636604D02*
X108527106Y-76593747D01*
X108527106Y-76593747D02*
X108612821Y-76508032D01*
X108612821Y-76508032D02*
X108655678Y-76379461D01*
X108655678Y-76379461D02*
X108655678Y-76293747D01*
X108655678Y-76293747D02*
X108612821Y-76165175D01*
X108612821Y-76165175D02*
X108569963Y-76122318D01*
X108569963Y-76122318D02*
X108269963Y-76122318D01*
X108269963Y-76122318D02*
X108269963Y-76293747D01*
X108655678Y-75736604D02*
X107755678Y-75736604D01*
X107755678Y-75736604D02*
X108655678Y-75222318D01*
X108655678Y-75222318D02*
X107755678Y-75222318D01*
X108655678Y-74793747D02*
X107755678Y-74793747D01*
X107755678Y-74793747D02*
X107755678Y-74579461D01*
X107755678Y-74579461D02*
X107798535Y-74450890D01*
X107798535Y-74450890D02*
X107884249Y-74365175D01*
X107884249Y-74365175D02*
X107969963Y-74322318D01*
X107969963Y-74322318D02*
X108141392Y-74279461D01*
X108141392Y-74279461D02*
X108269963Y-74279461D01*
X108269963Y-74279461D02*
X108441392Y-74322318D01*
X108441392Y-74322318D02*
X108527106Y-74365175D01*
X108527106Y-74365175D02*
X108612821Y-74450890D01*
X108612821Y-74450890D02*
X108655678Y-74579461D01*
X108655678Y-74579461D02*
X108655678Y-74793747D01*
X91826897Y-80026684D02*
X91826897Y-79512399D01*
X92726897Y-79769541D02*
X91826897Y-79769541D01*
X92684040Y-78869542D02*
X92726897Y-78955256D01*
X92726897Y-78955256D02*
X92726897Y-79126685D01*
X92726897Y-79126685D02*
X92684040Y-79212399D01*
X92684040Y-79212399D02*
X92598325Y-79255256D01*
X92598325Y-79255256D02*
X92255468Y-79255256D01*
X92255468Y-79255256D02*
X92169754Y-79212399D01*
X92169754Y-79212399D02*
X92126897Y-79126685D01*
X92126897Y-79126685D02*
X92126897Y-78955256D01*
X92126897Y-78955256D02*
X92169754Y-78869542D01*
X92169754Y-78869542D02*
X92255468Y-78826685D01*
X92255468Y-78826685D02*
X92341182Y-78826685D01*
X92341182Y-78826685D02*
X92426897Y-79255256D01*
X92726897Y-78440970D02*
X92126897Y-78440970D01*
X92212611Y-78440970D02*
X92169754Y-78398113D01*
X92169754Y-78398113D02*
X92126897Y-78312398D01*
X92126897Y-78312398D02*
X92126897Y-78183827D01*
X92126897Y-78183827D02*
X92169754Y-78098113D01*
X92169754Y-78098113D02*
X92255468Y-78055256D01*
X92255468Y-78055256D02*
X92726897Y-78055256D01*
X92255468Y-78055256D02*
X92169754Y-78012398D01*
X92169754Y-78012398D02*
X92126897Y-77926684D01*
X92126897Y-77926684D02*
X92126897Y-77798113D01*
X92126897Y-77798113D02*
X92169754Y-77712398D01*
X92169754Y-77712398D02*
X92255468Y-77669541D01*
X92255468Y-77669541D02*
X92726897Y-77669541D01*
X92126897Y-77240970D02*
X93026897Y-77240970D01*
X92169754Y-77240970D02*
X92126897Y-77155256D01*
X92126897Y-77155256D02*
X92126897Y-76983827D01*
X92126897Y-76983827D02*
X92169754Y-76898113D01*
X92169754Y-76898113D02*
X92212611Y-76855256D01*
X92212611Y-76855256D02*
X92298325Y-76812398D01*
X92298325Y-76812398D02*
X92555468Y-76812398D01*
X92555468Y-76812398D02*
X92641182Y-76855256D01*
X92641182Y-76855256D02*
X92684040Y-76898113D01*
X92684040Y-76898113D02*
X92726897Y-76983827D01*
X92726897Y-76983827D02*
X92726897Y-77155256D01*
X92726897Y-77155256D02*
X92684040Y-77240970D01*
X92684040Y-75783827D02*
X92726897Y-75655256D01*
X92726897Y-75655256D02*
X92726897Y-75440970D01*
X92726897Y-75440970D02*
X92684040Y-75355256D01*
X92684040Y-75355256D02*
X92641182Y-75312398D01*
X92641182Y-75312398D02*
X92555468Y-75269541D01*
X92555468Y-75269541D02*
X92469754Y-75269541D01*
X92469754Y-75269541D02*
X92384040Y-75312398D01*
X92384040Y-75312398D02*
X92341182Y-75355256D01*
X92341182Y-75355256D02*
X92298325Y-75440970D01*
X92298325Y-75440970D02*
X92255468Y-75612398D01*
X92255468Y-75612398D02*
X92212611Y-75698113D01*
X92212611Y-75698113D02*
X92169754Y-75740970D01*
X92169754Y-75740970D02*
X92084040Y-75783827D01*
X92084040Y-75783827D02*
X91998325Y-75783827D01*
X91998325Y-75783827D02*
X91912611Y-75740970D01*
X91912611Y-75740970D02*
X91869754Y-75698113D01*
X91869754Y-75698113D02*
X91826897Y-75612398D01*
X91826897Y-75612398D02*
X91826897Y-75398113D01*
X91826897Y-75398113D02*
X91869754Y-75269541D01*
X92684040Y-74540970D02*
X92726897Y-74626684D01*
X92726897Y-74626684D02*
X92726897Y-74798113D01*
X92726897Y-74798113D02*
X92684040Y-74883827D01*
X92684040Y-74883827D02*
X92598325Y-74926684D01*
X92598325Y-74926684D02*
X92255468Y-74926684D01*
X92255468Y-74926684D02*
X92169754Y-74883827D01*
X92169754Y-74883827D02*
X92126897Y-74798113D01*
X92126897Y-74798113D02*
X92126897Y-74626684D01*
X92126897Y-74626684D02*
X92169754Y-74540970D01*
X92169754Y-74540970D02*
X92255468Y-74498113D01*
X92255468Y-74498113D02*
X92341182Y-74498113D01*
X92341182Y-74498113D02*
X92426897Y-74926684D01*
X92126897Y-74112398D02*
X92726897Y-74112398D01*
X92212611Y-74112398D02*
X92169754Y-74069541D01*
X92169754Y-74069541D02*
X92126897Y-73983826D01*
X92126897Y-73983826D02*
X92126897Y-73855255D01*
X92126897Y-73855255D02*
X92169754Y-73769541D01*
X92169754Y-73769541D02*
X92255468Y-73726684D01*
X92255468Y-73726684D02*
X92726897Y-73726684D01*
X92684040Y-73340969D02*
X92726897Y-73255255D01*
X92726897Y-73255255D02*
X92726897Y-73083826D01*
X92726897Y-73083826D02*
X92684040Y-72998112D01*
X92684040Y-72998112D02*
X92598325Y-72955255D01*
X92598325Y-72955255D02*
X92555468Y-72955255D01*
X92555468Y-72955255D02*
X92469754Y-72998112D01*
X92469754Y-72998112D02*
X92426897Y-73083826D01*
X92426897Y-73083826D02*
X92426897Y-73212398D01*
X92426897Y-73212398D02*
X92384040Y-73298112D01*
X92384040Y-73298112D02*
X92298325Y-73340969D01*
X92298325Y-73340969D02*
X92255468Y-73340969D01*
X92255468Y-73340969D02*
X92169754Y-73298112D01*
X92169754Y-73298112D02*
X92126897Y-73212398D01*
X92126897Y-73212398D02*
X92126897Y-73083826D01*
X92126897Y-73083826D02*
X92169754Y-72998112D01*
X94724797Y-79983827D02*
X94724797Y-79426684D01*
X94724797Y-79426684D02*
X95067654Y-79726684D01*
X95067654Y-79726684D02*
X95067654Y-79598113D01*
X95067654Y-79598113D02*
X95110511Y-79512399D01*
X95110511Y-79512399D02*
X95153368Y-79469541D01*
X95153368Y-79469541D02*
X95239082Y-79426684D01*
X95239082Y-79426684D02*
X95453368Y-79426684D01*
X95453368Y-79426684D02*
X95539082Y-79469541D01*
X95539082Y-79469541D02*
X95581940Y-79512399D01*
X95581940Y-79512399D02*
X95624797Y-79598113D01*
X95624797Y-79598113D02*
X95624797Y-79855256D01*
X95624797Y-79855256D02*
X95581940Y-79940970D01*
X95581940Y-79940970D02*
X95539082Y-79983827D01*
X95539082Y-79040970D02*
X95581940Y-78998113D01*
X95581940Y-78998113D02*
X95624797Y-79040970D01*
X95624797Y-79040970D02*
X95581940Y-79083827D01*
X95581940Y-79083827D02*
X95539082Y-79040970D01*
X95539082Y-79040970D02*
X95624797Y-79040970D01*
X94724797Y-78698113D02*
X94724797Y-78140970D01*
X94724797Y-78140970D02*
X95067654Y-78440970D01*
X95067654Y-78440970D02*
X95067654Y-78312399D01*
X95067654Y-78312399D02*
X95110511Y-78226685D01*
X95110511Y-78226685D02*
X95153368Y-78183827D01*
X95153368Y-78183827D02*
X95239082Y-78140970D01*
X95239082Y-78140970D02*
X95453368Y-78140970D01*
X95453368Y-78140970D02*
X95539082Y-78183827D01*
X95539082Y-78183827D02*
X95581940Y-78226685D01*
X95581940Y-78226685D02*
X95624797Y-78312399D01*
X95624797Y-78312399D02*
X95624797Y-78569542D01*
X95624797Y-78569542D02*
X95581940Y-78655256D01*
X95581940Y-78655256D02*
X95539082Y-78698113D01*
X94724797Y-77883827D02*
X95624797Y-77583827D01*
X95624797Y-77583827D02*
X94724797Y-77283827D01*
X98265554Y-79940970D02*
X98265554Y-79512399D01*
X98522697Y-80026684D02*
X97622697Y-79726684D01*
X97622697Y-79726684D02*
X98522697Y-79426684D01*
X97922697Y-79126684D02*
X98522697Y-79126684D01*
X98008411Y-79126684D02*
X97965554Y-79083827D01*
X97965554Y-79083827D02*
X97922697Y-78998112D01*
X97922697Y-78998112D02*
X97922697Y-78869541D01*
X97922697Y-78869541D02*
X97965554Y-78783827D01*
X97965554Y-78783827D02*
X98051268Y-78740970D01*
X98051268Y-78740970D02*
X98522697Y-78740970D01*
X98522697Y-77926684D02*
X98051268Y-77926684D01*
X98051268Y-77926684D02*
X97965554Y-77969541D01*
X97965554Y-77969541D02*
X97922697Y-78055255D01*
X97922697Y-78055255D02*
X97922697Y-78226684D01*
X97922697Y-78226684D02*
X97965554Y-78312398D01*
X98479840Y-77926684D02*
X98522697Y-78012398D01*
X98522697Y-78012398D02*
X98522697Y-78226684D01*
X98522697Y-78226684D02*
X98479840Y-78312398D01*
X98479840Y-78312398D02*
X98394125Y-78355255D01*
X98394125Y-78355255D02*
X98308411Y-78355255D01*
X98308411Y-78355255D02*
X98222697Y-78312398D01*
X98222697Y-78312398D02*
X98179840Y-78226684D01*
X98179840Y-78226684D02*
X98179840Y-78012398D01*
X98179840Y-78012398D02*
X98136982Y-77926684D01*
X98522697Y-77369540D02*
X98479840Y-77455255D01*
X98479840Y-77455255D02*
X98394125Y-77498112D01*
X98394125Y-77498112D02*
X97622697Y-77498112D01*
X98522697Y-76898111D02*
X98479840Y-76983826D01*
X98479840Y-76983826D02*
X98436982Y-77026683D01*
X98436982Y-77026683D02*
X98351268Y-77069540D01*
X98351268Y-77069540D02*
X98094125Y-77069540D01*
X98094125Y-77069540D02*
X98008411Y-77026683D01*
X98008411Y-77026683D02*
X97965554Y-76983826D01*
X97965554Y-76983826D02*
X97922697Y-76898111D01*
X97922697Y-76898111D02*
X97922697Y-76769540D01*
X97922697Y-76769540D02*
X97965554Y-76683826D01*
X97965554Y-76683826D02*
X98008411Y-76640969D01*
X98008411Y-76640969D02*
X98094125Y-76598111D01*
X98094125Y-76598111D02*
X98351268Y-76598111D01*
X98351268Y-76598111D02*
X98436982Y-76640969D01*
X98436982Y-76640969D02*
X98479840Y-76683826D01*
X98479840Y-76683826D02*
X98522697Y-76769540D01*
X98522697Y-76769540D02*
X98522697Y-76898111D01*
X97922697Y-75826683D02*
X98651268Y-75826683D01*
X98651268Y-75826683D02*
X98736982Y-75869540D01*
X98736982Y-75869540D02*
X98779840Y-75912397D01*
X98779840Y-75912397D02*
X98822697Y-75998111D01*
X98822697Y-75998111D02*
X98822697Y-76126683D01*
X98822697Y-76126683D02*
X98779840Y-76212397D01*
X98479840Y-75826683D02*
X98522697Y-75912397D01*
X98522697Y-75912397D02*
X98522697Y-76083825D01*
X98522697Y-76083825D02*
X98479840Y-76169540D01*
X98479840Y-76169540D02*
X98436982Y-76212397D01*
X98436982Y-76212397D02*
X98351268Y-76255254D01*
X98351268Y-76255254D02*
X98094125Y-76255254D01*
X98094125Y-76255254D02*
X98008411Y-76212397D01*
X98008411Y-76212397D02*
X97965554Y-76169540D01*
X97965554Y-76169540D02*
X97922697Y-76083825D01*
X97922697Y-76083825D02*
X97922697Y-75912397D01*
X97922697Y-75912397D02*
X97965554Y-75826683D01*
X100337215Y-93431714D02*
X100294358Y-93388857D01*
X100294358Y-93388857D02*
X100208644Y-93260285D01*
X100208644Y-93260285D02*
X100165787Y-93174571D01*
X100165787Y-93174571D02*
X100122929Y-93046000D01*
X100122929Y-93046000D02*
X100080072Y-92831714D01*
X100080072Y-92831714D02*
X100080072Y-92660285D01*
X100080072Y-92660285D02*
X100122929Y-92446000D01*
X100122929Y-92446000D02*
X100165787Y-92317428D01*
X100165787Y-92317428D02*
X100208644Y-92231714D01*
X100208644Y-92231714D02*
X100294358Y-92103142D01*
X100294358Y-92103142D02*
X100337215Y-92060285D01*
X100680072Y-93088857D02*
X100680072Y-92188857D01*
X100680072Y-92617428D02*
X101194358Y-92617428D01*
X101194358Y-93088857D02*
X101194358Y-92188857D01*
X101622929Y-93088857D02*
X101622929Y-92188857D01*
X102522929Y-92231714D02*
X102437215Y-92188857D01*
X102437215Y-92188857D02*
X102308643Y-92188857D01*
X102308643Y-92188857D02*
X102180072Y-92231714D01*
X102180072Y-92231714D02*
X102094357Y-92317428D01*
X102094357Y-92317428D02*
X102051500Y-92403142D01*
X102051500Y-92403142D02*
X102008643Y-92574571D01*
X102008643Y-92574571D02*
X102008643Y-92703142D01*
X102008643Y-92703142D02*
X102051500Y-92874571D01*
X102051500Y-92874571D02*
X102094357Y-92960285D01*
X102094357Y-92960285D02*
X102180072Y-93046000D01*
X102180072Y-93046000D02*
X102308643Y-93088857D01*
X102308643Y-93088857D02*
X102394357Y-93088857D01*
X102394357Y-93088857D02*
X102522929Y-93046000D01*
X102522929Y-93046000D02*
X102565786Y-93003142D01*
X102565786Y-93003142D02*
X102565786Y-92703142D01*
X102565786Y-92703142D02*
X102394357Y-92703142D01*
X102951500Y-93088857D02*
X102951500Y-92188857D01*
X102951500Y-92617428D02*
X103465786Y-92617428D01*
X103465786Y-93088857D02*
X103465786Y-92188857D01*
X103808643Y-93431714D02*
X103851500Y-93388857D01*
X103851500Y-93388857D02*
X103937214Y-93260285D01*
X103937214Y-93260285D02*
X103980072Y-93174571D01*
X103980072Y-93174571D02*
X104022929Y-93046000D01*
X104022929Y-93046000D02*
X104065786Y-92831714D01*
X104065786Y-92831714D02*
X104065786Y-92660285D01*
X104065786Y-92660285D02*
X104022929Y-92446000D01*
X104022929Y-92446000D02*
X103980072Y-92317428D01*
X103980072Y-92317428D02*
X103937214Y-92231714D01*
X103937214Y-92231714D02*
X103851500Y-92103142D01*
X103851500Y-92103142D02*
X103808643Y-92060285D01*
X95708646Y-95986757D02*
X95280074Y-95986757D01*
X95280074Y-95986757D02*
X95280074Y-95086757D01*
X96137217Y-95986757D02*
X96051502Y-95943900D01*
X96051502Y-95943900D02*
X96008645Y-95901042D01*
X96008645Y-95901042D02*
X95965788Y-95815328D01*
X95965788Y-95815328D02*
X95965788Y-95558185D01*
X95965788Y-95558185D02*
X96008645Y-95472471D01*
X96008645Y-95472471D02*
X96051502Y-95429614D01*
X96051502Y-95429614D02*
X96137217Y-95386757D01*
X96137217Y-95386757D02*
X96265788Y-95386757D01*
X96265788Y-95386757D02*
X96351502Y-95429614D01*
X96351502Y-95429614D02*
X96394360Y-95472471D01*
X96394360Y-95472471D02*
X96437217Y-95558185D01*
X96437217Y-95558185D02*
X96437217Y-95815328D01*
X96437217Y-95815328D02*
X96394360Y-95901042D01*
X96394360Y-95901042D02*
X96351502Y-95943900D01*
X96351502Y-95943900D02*
X96265788Y-95986757D01*
X96265788Y-95986757D02*
X96137217Y-95986757D01*
X97208646Y-95386757D02*
X97208646Y-96115328D01*
X97208646Y-96115328D02*
X97165788Y-96201042D01*
X97165788Y-96201042D02*
X97122931Y-96243900D01*
X97122931Y-96243900D02*
X97037217Y-96286757D01*
X97037217Y-96286757D02*
X96908646Y-96286757D01*
X96908646Y-96286757D02*
X96822931Y-96243900D01*
X97208646Y-95943900D02*
X97122931Y-95986757D01*
X97122931Y-95986757D02*
X96951503Y-95986757D01*
X96951503Y-95986757D02*
X96865788Y-95943900D01*
X96865788Y-95943900D02*
X96822931Y-95901042D01*
X96822931Y-95901042D02*
X96780074Y-95815328D01*
X96780074Y-95815328D02*
X96780074Y-95558185D01*
X96780074Y-95558185D02*
X96822931Y-95472471D01*
X96822931Y-95472471D02*
X96865788Y-95429614D01*
X96865788Y-95429614D02*
X96951503Y-95386757D01*
X96951503Y-95386757D02*
X97122931Y-95386757D01*
X97122931Y-95386757D02*
X97208646Y-95429614D01*
X97637217Y-95986757D02*
X97637217Y-95386757D01*
X97637217Y-95086757D02*
X97594360Y-95129614D01*
X97594360Y-95129614D02*
X97637217Y-95172471D01*
X97637217Y-95172471D02*
X97680074Y-95129614D01*
X97680074Y-95129614D02*
X97637217Y-95086757D01*
X97637217Y-95086757D02*
X97637217Y-95172471D01*
X98451503Y-95943900D02*
X98365788Y-95986757D01*
X98365788Y-95986757D02*
X98194360Y-95986757D01*
X98194360Y-95986757D02*
X98108645Y-95943900D01*
X98108645Y-95943900D02*
X98065788Y-95901042D01*
X98065788Y-95901042D02*
X98022931Y-95815328D01*
X98022931Y-95815328D02*
X98022931Y-95558185D01*
X98022931Y-95558185D02*
X98065788Y-95472471D01*
X98065788Y-95472471D02*
X98108645Y-95429614D01*
X98108645Y-95429614D02*
X98194360Y-95386757D01*
X98194360Y-95386757D02*
X98365788Y-95386757D01*
X98365788Y-95386757D02*
X98451503Y-95429614D01*
X99951503Y-95986757D02*
X99522931Y-95986757D01*
X99522931Y-95986757D02*
X99522931Y-95086757D01*
X100594359Y-95943900D02*
X100508645Y-95986757D01*
X100508645Y-95986757D02*
X100337217Y-95986757D01*
X100337217Y-95986757D02*
X100251502Y-95943900D01*
X100251502Y-95943900D02*
X100208645Y-95858185D01*
X100208645Y-95858185D02*
X100208645Y-95515328D01*
X100208645Y-95515328D02*
X100251502Y-95429614D01*
X100251502Y-95429614D02*
X100337217Y-95386757D01*
X100337217Y-95386757D02*
X100508645Y-95386757D01*
X100508645Y-95386757D02*
X100594359Y-95429614D01*
X100594359Y-95429614D02*
X100637217Y-95515328D01*
X100637217Y-95515328D02*
X100637217Y-95601042D01*
X100637217Y-95601042D02*
X100208645Y-95686757D01*
X100937217Y-95386757D02*
X101151503Y-95986757D01*
X101151503Y-95986757D02*
X101365788Y-95386757D01*
X102051502Y-95943900D02*
X101965788Y-95986757D01*
X101965788Y-95986757D02*
X101794360Y-95986757D01*
X101794360Y-95986757D02*
X101708645Y-95943900D01*
X101708645Y-95943900D02*
X101665788Y-95858185D01*
X101665788Y-95858185D02*
X101665788Y-95515328D01*
X101665788Y-95515328D02*
X101708645Y-95429614D01*
X101708645Y-95429614D02*
X101794360Y-95386757D01*
X101794360Y-95386757D02*
X101965788Y-95386757D01*
X101965788Y-95386757D02*
X102051502Y-95429614D01*
X102051502Y-95429614D02*
X102094360Y-95515328D01*
X102094360Y-95515328D02*
X102094360Y-95601042D01*
X102094360Y-95601042D02*
X101665788Y-95686757D01*
X102608646Y-95986757D02*
X102522931Y-95943900D01*
X102522931Y-95943900D02*
X102480074Y-95858185D01*
X102480074Y-95858185D02*
X102480074Y-95086757D01*
X104151503Y-95901042D02*
X104108646Y-95943900D01*
X104108646Y-95943900D02*
X103980074Y-95986757D01*
X103980074Y-95986757D02*
X103894360Y-95986757D01*
X103894360Y-95986757D02*
X103765789Y-95943900D01*
X103765789Y-95943900D02*
X103680074Y-95858185D01*
X103680074Y-95858185D02*
X103637217Y-95772471D01*
X103637217Y-95772471D02*
X103594360Y-95601042D01*
X103594360Y-95601042D02*
X103594360Y-95472471D01*
X103594360Y-95472471D02*
X103637217Y-95301042D01*
X103637217Y-95301042D02*
X103680074Y-95215328D01*
X103680074Y-95215328D02*
X103765789Y-95129614D01*
X103765789Y-95129614D02*
X103894360Y-95086757D01*
X103894360Y-95086757D02*
X103980074Y-95086757D01*
X103980074Y-95086757D02*
X104108646Y-95129614D01*
X104108646Y-95129614D02*
X104151503Y-95172471D01*
X104665789Y-95986757D02*
X104580074Y-95943900D01*
X104580074Y-95943900D02*
X104537217Y-95901042D01*
X104537217Y-95901042D02*
X104494360Y-95815328D01*
X104494360Y-95815328D02*
X104494360Y-95558185D01*
X104494360Y-95558185D02*
X104537217Y-95472471D01*
X104537217Y-95472471D02*
X104580074Y-95429614D01*
X104580074Y-95429614D02*
X104665789Y-95386757D01*
X104665789Y-95386757D02*
X104794360Y-95386757D01*
X104794360Y-95386757D02*
X104880074Y-95429614D01*
X104880074Y-95429614D02*
X104922932Y-95472471D01*
X104922932Y-95472471D02*
X104965789Y-95558185D01*
X104965789Y-95558185D02*
X104965789Y-95815328D01*
X104965789Y-95815328D02*
X104922932Y-95901042D01*
X104922932Y-95901042D02*
X104880074Y-95943900D01*
X104880074Y-95943900D02*
X104794360Y-95986757D01*
X104794360Y-95986757D02*
X104665789Y-95986757D01*
X105351503Y-95386757D02*
X105351503Y-95986757D01*
X105351503Y-95472471D02*
X105394360Y-95429614D01*
X105394360Y-95429614D02*
X105480075Y-95386757D01*
X105480075Y-95386757D02*
X105608646Y-95386757D01*
X105608646Y-95386757D02*
X105694360Y-95429614D01*
X105694360Y-95429614D02*
X105737218Y-95515328D01*
X105737218Y-95515328D02*
X105737218Y-95986757D01*
X106080075Y-95386757D02*
X106294361Y-95986757D01*
X106294361Y-95986757D02*
X106508646Y-95386757D01*
X107194360Y-95943900D02*
X107108646Y-95986757D01*
X107108646Y-95986757D02*
X106937218Y-95986757D01*
X106937218Y-95986757D02*
X106851503Y-95943900D01*
X106851503Y-95943900D02*
X106808646Y-95858185D01*
X106808646Y-95858185D02*
X106808646Y-95515328D01*
X106808646Y-95515328D02*
X106851503Y-95429614D01*
X106851503Y-95429614D02*
X106937218Y-95386757D01*
X106937218Y-95386757D02*
X107108646Y-95386757D01*
X107108646Y-95386757D02*
X107194360Y-95429614D01*
X107194360Y-95429614D02*
X107237218Y-95515328D01*
X107237218Y-95515328D02*
X107237218Y-95601042D01*
X107237218Y-95601042D02*
X106808646Y-95686757D01*
X107622932Y-95986757D02*
X107622932Y-95386757D01*
X107622932Y-95558185D02*
X107665789Y-95472471D01*
X107665789Y-95472471D02*
X107708647Y-95429614D01*
X107708647Y-95429614D02*
X107794361Y-95386757D01*
X107794361Y-95386757D02*
X107880075Y-95386757D01*
X108051504Y-95386757D02*
X108394361Y-95386757D01*
X108180075Y-95086757D02*
X108180075Y-95858185D01*
X108180075Y-95858185D02*
X108222932Y-95943900D01*
X108222932Y-95943900D02*
X108308647Y-95986757D01*
X108308647Y-95986757D02*
X108394361Y-95986757D01*
X109037218Y-95943900D02*
X108951504Y-95986757D01*
X108951504Y-95986757D02*
X108780076Y-95986757D01*
X108780076Y-95986757D02*
X108694361Y-95943900D01*
X108694361Y-95943900D02*
X108651504Y-95858185D01*
X108651504Y-95858185D02*
X108651504Y-95515328D01*
X108651504Y-95515328D02*
X108694361Y-95429614D01*
X108694361Y-95429614D02*
X108780076Y-95386757D01*
X108780076Y-95386757D02*
X108951504Y-95386757D01*
X108951504Y-95386757D02*
X109037218Y-95429614D01*
X109037218Y-95429614D02*
X109080076Y-95515328D01*
X109080076Y-95515328D02*
X109080076Y-95601042D01*
X109080076Y-95601042D02*
X108651504Y-95686757D01*
X109465790Y-95986757D02*
X109465790Y-95386757D01*
X109465790Y-95558185D02*
X109508647Y-95472471D01*
X109508647Y-95472471D02*
X109551505Y-95429614D01*
X109551505Y-95429614D02*
X109637219Y-95386757D01*
X109637219Y-95386757D02*
X109722933Y-95386757D01*
X100980073Y-99227514D02*
X100937216Y-99184657D01*
X100937216Y-99184657D02*
X100851502Y-99056085D01*
X100851502Y-99056085D02*
X100808645Y-98970371D01*
X100808645Y-98970371D02*
X100765787Y-98841800D01*
X100765787Y-98841800D02*
X100722930Y-98627514D01*
X100722930Y-98627514D02*
X100722930Y-98456085D01*
X100722930Y-98456085D02*
X100765787Y-98241800D01*
X100765787Y-98241800D02*
X100808645Y-98113228D01*
X100808645Y-98113228D02*
X100851502Y-98027514D01*
X100851502Y-98027514D02*
X100937216Y-97898942D01*
X100937216Y-97898942D02*
X100980073Y-97856085D01*
X101751502Y-98884657D02*
X101322930Y-98884657D01*
X101322930Y-98884657D02*
X101322930Y-97984657D01*
X102222930Y-97984657D02*
X102394358Y-97984657D01*
X102394358Y-97984657D02*
X102480073Y-98027514D01*
X102480073Y-98027514D02*
X102565787Y-98113228D01*
X102565787Y-98113228D02*
X102608644Y-98284657D01*
X102608644Y-98284657D02*
X102608644Y-98584657D01*
X102608644Y-98584657D02*
X102565787Y-98756085D01*
X102565787Y-98756085D02*
X102480073Y-98841800D01*
X102480073Y-98841800D02*
X102394358Y-98884657D01*
X102394358Y-98884657D02*
X102222930Y-98884657D01*
X102222930Y-98884657D02*
X102137216Y-98841800D01*
X102137216Y-98841800D02*
X102051501Y-98756085D01*
X102051501Y-98756085D02*
X102008644Y-98584657D01*
X102008644Y-98584657D02*
X102008644Y-98284657D01*
X102008644Y-98284657D02*
X102051501Y-98113228D01*
X102051501Y-98113228D02*
X102137216Y-98027514D01*
X102137216Y-98027514D02*
X102222930Y-97984657D01*
X102908644Y-97984657D02*
X103122930Y-98884657D01*
X103122930Y-98884657D02*
X103294358Y-98241800D01*
X103294358Y-98241800D02*
X103465787Y-98884657D01*
X103465787Y-98884657D02*
X103680073Y-97984657D01*
X103937215Y-99227514D02*
X103980072Y-99184657D01*
X103980072Y-99184657D02*
X104065786Y-99056085D01*
X104065786Y-99056085D02*
X104108644Y-98970371D01*
X104108644Y-98970371D02*
X104151501Y-98841800D01*
X104151501Y-98841800D02*
X104194358Y-98627514D01*
X104194358Y-98627514D02*
X104194358Y-98456085D01*
X104194358Y-98456085D02*
X104151501Y-98241800D01*
X104151501Y-98241800D02*
X104108644Y-98113228D01*
X104108644Y-98113228D02*
X104065786Y-98027514D01*
X104065786Y-98027514D02*
X103980072Y-97898942D01*
X103980072Y-97898942D02*
X103937215Y-97856085D01*
D11*
X106991905Y-109414819D02*
X106991905Y-108414819D01*
X106991905Y-108414819D02*
X107230000Y-108414819D01*
X107230000Y-108414819D02*
X107372857Y-108462438D01*
X107372857Y-108462438D02*
X107468095Y-108557676D01*
X107468095Y-108557676D02*
X107515714Y-108652914D01*
X107515714Y-108652914D02*
X107563333Y-108843390D01*
X107563333Y-108843390D02*
X107563333Y-108986247D01*
X107563333Y-108986247D02*
X107515714Y-109176723D01*
X107515714Y-109176723D02*
X107468095Y-109271961D01*
X107468095Y-109271961D02*
X107372857Y-109367200D01*
X107372857Y-109367200D02*
X107230000Y-109414819D01*
X107230000Y-109414819D02*
X106991905Y-109414819D01*
X108515714Y-109414819D02*
X107944286Y-109414819D01*
X108230000Y-109414819D02*
X108230000Y-108414819D01*
X108230000Y-108414819D02*
X108134762Y-108557676D01*
X108134762Y-108557676D02*
X108039524Y-108652914D01*
X108039524Y-108652914D02*
X107944286Y-108700533D01*
X77238095Y-82454819D02*
X77238095Y-83264342D01*
X77238095Y-83264342D02*
X77285714Y-83359580D01*
X77285714Y-83359580D02*
X77333333Y-83407200D01*
X77333333Y-83407200D02*
X77428571Y-83454819D01*
X77428571Y-83454819D02*
X77619047Y-83454819D01*
X77619047Y-83454819D02*
X77714285Y-83407200D01*
X77714285Y-83407200D02*
X77761904Y-83359580D01*
X77761904Y-83359580D02*
X77809523Y-83264342D01*
X77809523Y-83264342D02*
X77809523Y-82454819D01*
X78809523Y-83454819D02*
X78238095Y-83454819D01*
X78523809Y-83454819D02*
X78523809Y-82454819D01*
X78523809Y-82454819D02*
X78428571Y-82597676D01*
X78428571Y-82597676D02*
X78333333Y-82692914D01*
X78333333Y-82692914D02*
X78238095Y-82740533D01*
X72054286Y-80674819D02*
X72292381Y-81674819D01*
X72292381Y-81674819D02*
X72482857Y-80960533D01*
X72482857Y-80960533D02*
X72673333Y-81674819D01*
X72673333Y-81674819D02*
X72911429Y-80674819D01*
X73292381Y-81151009D02*
X73625714Y-81151009D01*
X73768571Y-81674819D02*
X73292381Y-81674819D01*
X73292381Y-81674819D02*
X73292381Y-80674819D01*
X73292381Y-80674819D02*
X73768571Y-80674819D01*
X74197143Y-81674819D02*
X74197143Y-80674819D01*
X74197143Y-80674819D02*
X74530476Y-81389104D01*
X74530476Y-81389104D02*
X74863809Y-80674819D01*
X74863809Y-80674819D02*
X74863809Y-81674819D01*
X75530476Y-80674819D02*
X75720952Y-80674819D01*
X75720952Y-80674819D02*
X75816190Y-80722438D01*
X75816190Y-80722438D02*
X75911428Y-80817676D01*
X75911428Y-80817676D02*
X75959047Y-81008152D01*
X75959047Y-81008152D02*
X75959047Y-81341485D01*
X75959047Y-81341485D02*
X75911428Y-81531961D01*
X75911428Y-81531961D02*
X75816190Y-81627200D01*
X75816190Y-81627200D02*
X75720952Y-81674819D01*
X75720952Y-81674819D02*
X75530476Y-81674819D01*
X75530476Y-81674819D02*
X75435238Y-81627200D01*
X75435238Y-81627200D02*
X75340000Y-81531961D01*
X75340000Y-81531961D02*
X75292381Y-81341485D01*
X75292381Y-81341485D02*
X75292381Y-81008152D01*
X75292381Y-81008152D02*
X75340000Y-80817676D01*
X75340000Y-80817676D02*
X75435238Y-80722438D01*
X75435238Y-80722438D02*
X75530476Y-80674819D01*
X76340000Y-81627200D02*
X76482857Y-81674819D01*
X76482857Y-81674819D02*
X76720952Y-81674819D01*
X76720952Y-81674819D02*
X76816190Y-81627200D01*
X76816190Y-81627200D02*
X76863809Y-81579580D01*
X76863809Y-81579580D02*
X76911428Y-81484342D01*
X76911428Y-81484342D02*
X76911428Y-81389104D01*
X76911428Y-81389104D02*
X76863809Y-81293866D01*
X76863809Y-81293866D02*
X76816190Y-81246247D01*
X76816190Y-81246247D02*
X76720952Y-81198628D01*
X76720952Y-81198628D02*
X76530476Y-81151009D01*
X76530476Y-81151009D02*
X76435238Y-81103390D01*
X76435238Y-81103390D02*
X76387619Y-81055771D01*
X76387619Y-81055771D02*
X76340000Y-80960533D01*
X76340000Y-80960533D02*
X76340000Y-80865295D01*
X76340000Y-80865295D02*
X76387619Y-80770057D01*
X76387619Y-80770057D02*
X76435238Y-80722438D01*
X76435238Y-80722438D02*
X76530476Y-80674819D01*
X76530476Y-80674819D02*
X76768571Y-80674819D01*
X76768571Y-80674819D02*
X76911428Y-80722438D01*
X77101905Y-81770057D02*
X77863809Y-81770057D01*
X78673333Y-81579580D02*
X78625714Y-81627200D01*
X78625714Y-81627200D02*
X78482857Y-81674819D01*
X78482857Y-81674819D02*
X78387619Y-81674819D01*
X78387619Y-81674819D02*
X78244762Y-81627200D01*
X78244762Y-81627200D02*
X78149524Y-81531961D01*
X78149524Y-81531961D02*
X78101905Y-81436723D01*
X78101905Y-81436723D02*
X78054286Y-81246247D01*
X78054286Y-81246247D02*
X78054286Y-81103390D01*
X78054286Y-81103390D02*
X78101905Y-80912914D01*
X78101905Y-80912914D02*
X78149524Y-80817676D01*
X78149524Y-80817676D02*
X78244762Y-80722438D01*
X78244762Y-80722438D02*
X78387619Y-80674819D01*
X78387619Y-80674819D02*
X78482857Y-80674819D01*
X78482857Y-80674819D02*
X78625714Y-80722438D01*
X78625714Y-80722438D02*
X78673333Y-80770057D01*
X79006667Y-80674819D02*
X79625714Y-80674819D01*
X79625714Y-80674819D02*
X79292381Y-81055771D01*
X79292381Y-81055771D02*
X79435238Y-81055771D01*
X79435238Y-81055771D02*
X79530476Y-81103390D01*
X79530476Y-81103390D02*
X79578095Y-81151009D01*
X79578095Y-81151009D02*
X79625714Y-81246247D01*
X79625714Y-81246247D02*
X79625714Y-81484342D01*
X79625714Y-81484342D02*
X79578095Y-81579580D01*
X79578095Y-81579580D02*
X79530476Y-81627200D01*
X79530476Y-81627200D02*
X79435238Y-81674819D01*
X79435238Y-81674819D02*
X79149524Y-81674819D01*
X79149524Y-81674819D02*
X79054286Y-81627200D01*
X79054286Y-81627200D02*
X79006667Y-81579580D01*
X79816191Y-81770057D02*
X80578095Y-81770057D01*
X80816191Y-81674819D02*
X80816191Y-81008152D01*
X80816191Y-81103390D02*
X80863810Y-81055771D01*
X80863810Y-81055771D02*
X80959048Y-81008152D01*
X80959048Y-81008152D02*
X81101905Y-81008152D01*
X81101905Y-81008152D02*
X81197143Y-81055771D01*
X81197143Y-81055771D02*
X81244762Y-81151009D01*
X81244762Y-81151009D02*
X81244762Y-81674819D01*
X81244762Y-81151009D02*
X81292381Y-81055771D01*
X81292381Y-81055771D02*
X81387619Y-81008152D01*
X81387619Y-81008152D02*
X81530476Y-81008152D01*
X81530476Y-81008152D02*
X81625715Y-81055771D01*
X81625715Y-81055771D02*
X81673334Y-81151009D01*
X81673334Y-81151009D02*
X81673334Y-81674819D01*
X82149524Y-81674819D02*
X82149524Y-81008152D01*
X82149524Y-80674819D02*
X82101905Y-80722438D01*
X82101905Y-80722438D02*
X82149524Y-80770057D01*
X82149524Y-80770057D02*
X82197143Y-80722438D01*
X82197143Y-80722438D02*
X82149524Y-80674819D01*
X82149524Y-80674819D02*
X82149524Y-80770057D01*
X82625714Y-81008152D02*
X82625714Y-81674819D01*
X82625714Y-81103390D02*
X82673333Y-81055771D01*
X82673333Y-81055771D02*
X82768571Y-81008152D01*
X82768571Y-81008152D02*
X82911428Y-81008152D01*
X82911428Y-81008152D02*
X83006666Y-81055771D01*
X83006666Y-81055771D02*
X83054285Y-81151009D01*
X83054285Y-81151009D02*
X83054285Y-81674819D01*
X83530476Y-81674819D02*
X83530476Y-81008152D01*
X83530476Y-80674819D02*
X83482857Y-80722438D01*
X83482857Y-80722438D02*
X83530476Y-80770057D01*
X83530476Y-80770057D02*
X83578095Y-80722438D01*
X83578095Y-80722438D02*
X83530476Y-80674819D01*
X83530476Y-80674819D02*
X83530476Y-80770057D01*
X97833333Y-104084819D02*
X97500000Y-103608628D01*
X97261905Y-104084819D02*
X97261905Y-103084819D01*
X97261905Y-103084819D02*
X97642857Y-103084819D01*
X97642857Y-103084819D02*
X97738095Y-103132438D01*
X97738095Y-103132438D02*
X97785714Y-103180057D01*
X97785714Y-103180057D02*
X97833333Y-103275295D01*
X97833333Y-103275295D02*
X97833333Y-103418152D01*
X97833333Y-103418152D02*
X97785714Y-103513390D01*
X97785714Y-103513390D02*
X97738095Y-103561009D01*
X97738095Y-103561009D02*
X97642857Y-103608628D01*
X97642857Y-103608628D02*
X97261905Y-103608628D01*
X98785714Y-104084819D02*
X98214286Y-104084819D01*
X98500000Y-104084819D02*
X98500000Y-103084819D01*
X98500000Y-103084819D02*
X98404762Y-103227676D01*
X98404762Y-103227676D02*
X98309524Y-103322914D01*
X98309524Y-103322914D02*
X98214286Y-103370533D01*
X92319819Y-100006904D02*
X93129342Y-100006904D01*
X93129342Y-100006904D02*
X93224580Y-99959285D01*
X93224580Y-99959285D02*
X93272200Y-99911666D01*
X93272200Y-99911666D02*
X93319819Y-99816428D01*
X93319819Y-99816428D02*
X93319819Y-99625952D01*
X93319819Y-99625952D02*
X93272200Y-99530714D01*
X93272200Y-99530714D02*
X93224580Y-99483095D01*
X93224580Y-99483095D02*
X93129342Y-99435476D01*
X93129342Y-99435476D02*
X92319819Y-99435476D01*
X92415057Y-99006904D02*
X92367438Y-98959285D01*
X92367438Y-98959285D02*
X92319819Y-98864047D01*
X92319819Y-98864047D02*
X92319819Y-98625952D01*
X92319819Y-98625952D02*
X92367438Y-98530714D01*
X92367438Y-98530714D02*
X92415057Y-98483095D01*
X92415057Y-98483095D02*
X92510295Y-98435476D01*
X92510295Y-98435476D02*
X92605533Y-98435476D01*
X92605533Y-98435476D02*
X92748390Y-98483095D01*
X92748390Y-98483095D02*
X93319819Y-99054523D01*
X93319819Y-99054523D02*
X93319819Y-98435476D01*
D12*
%TO.C,D1*%
X109290000Y-104920000D02*
X109290000Y-104764000D01*
X109290000Y-107236000D02*
X109290000Y-107080000D01*
X106058563Y-104920000D02*
G75*
G02*
X109290000Y-104764484I1671437J-1080000D01*
G01*
X106689039Y-104920000D02*
G75*
G02*
X108770961Y-104920000I1040961J-1080000D01*
G01*
X108770961Y-107080000D02*
G75*
G02*
X106689039Y-107080000I-1040961J1080000D01*
G01*
X109290000Y-107235516D02*
G75*
G02*
X106058563Y-107080000I-1560000J1235516D01*
G01*
%TO.C,U1*%
X64740000Y-77572969D02*
X64740000Y-100370000D01*
X66740000Y-100970000D02*
X64740000Y-100370000D01*
X66740000Y-100970000D02*
X66740000Y-106767031D01*
X67890000Y-107917030D02*
X89290000Y-107917030D01*
X86340000Y-73320000D02*
X68890000Y-73320000D01*
X90440000Y-106767031D02*
X90440000Y-77467031D01*
X64740000Y-77570000D02*
G75*
G02*
X68890000Y-73315753I4150000J102970D01*
G01*
X67890000Y-107920000D02*
G75*
G02*
X66737030Y-106767030I0J1152970D01*
G01*
X86290000Y-73320000D02*
G75*
G02*
X90437000Y-77467031I0J-4147000D01*
G01*
X90440000Y-106767031D02*
G75*
G02*
X89290000Y-107917030I-1150000J1D01*
G01*
X64235000Y-81220000D02*
X63600000Y-81855000D01*
X63600000Y-80585000D01*
X64235000Y-81220000D01*
G36*
X64235000Y-81220000D02*
G01*
X63600000Y-81855000D01*
X63600000Y-80585000D01*
X64235000Y-81220000D01*
G37*
D13*
%TO.C,J1*%
X100250000Y-81400000D02*
X110750000Y-81400000D01*
X100250000Y-82200000D02*
X100250000Y-81400000D01*
X100250000Y-82200000D02*
X110750000Y-82200000D01*
X100250000Y-88400000D02*
X100250000Y-82200000D01*
X110750000Y-81400000D02*
X110750000Y-82200000D01*
X110750000Y-82200000D02*
X110750000Y-88400000D01*
X110750000Y-88400000D02*
X100250000Y-88400000D01*
D14*
%TO.C,G\u002A\u002A\u002A*%
G36*
X76156632Y-91564490D02*
G01*
X76463468Y-91564744D01*
X76782575Y-91565157D01*
X77068384Y-91565648D01*
X79862384Y-91571000D01*
X79862384Y-92313461D01*
X79862384Y-93055923D01*
X78968500Y-93061005D01*
X78074615Y-93066086D01*
X78074615Y-95015828D01*
X78074506Y-95352893D01*
X78074166Y-95652638D01*
X78073574Y-95916821D01*
X78072709Y-96147199D01*
X78071550Y-96345528D01*
X78070075Y-96513565D01*
X78068265Y-96653067D01*
X78066099Y-96765792D01*
X78063555Y-96853496D01*
X78060613Y-96917936D01*
X78057251Y-96960869D01*
X78053450Y-96984052D01*
X78051169Y-96989015D01*
X78035489Y-96994586D01*
X77998934Y-96999291D01*
X77939165Y-97003183D01*
X77853845Y-97006316D01*
X77740636Y-97008743D01*
X77597199Y-97010517D01*
X77421198Y-97011691D01*
X77210295Y-97012318D01*
X77018887Y-97012461D01*
X76823943Y-97012216D01*
X76640906Y-97011512D01*
X76473478Y-97010397D01*
X76325362Y-97008917D01*
X76200262Y-97007120D01*
X76101881Y-97005053D01*
X76033922Y-97002763D01*
X76000089Y-97000298D01*
X75997025Y-96999436D01*
X75995209Y-96978488D01*
X75993468Y-96921099D01*
X75991819Y-96829902D01*
X75990281Y-96707533D01*
X75988869Y-96556626D01*
X75987603Y-96379816D01*
X75986499Y-96179737D01*
X75985574Y-95959026D01*
X75984846Y-95720316D01*
X75984332Y-95466243D01*
X75984051Y-95199440D01*
X75984000Y-95026248D01*
X75984000Y-93066086D01*
X75090115Y-93061005D01*
X74196231Y-93055923D01*
X74195485Y-92948461D01*
X74284154Y-92948461D01*
X75159477Y-92948461D01*
X75382566Y-92948742D01*
X75569050Y-92949625D01*
X75721396Y-92951177D01*
X75842071Y-92953460D01*
X75933543Y-92956540D01*
X75998281Y-92960481D01*
X76038750Y-92965347D01*
X76057420Y-92971203D01*
X76058246Y-92971907D01*
X76062298Y-92984999D01*
X76065898Y-93016877D01*
X76069068Y-93069297D01*
X76071828Y-93144016D01*
X76074199Y-93242792D01*
X76076201Y-93367381D01*
X76077857Y-93519539D01*
X76079187Y-93701025D01*
X76080211Y-93913594D01*
X76080951Y-94159004D01*
X76081427Y-94439012D01*
X76081660Y-94755373D01*
X76081692Y-94945292D01*
X76081692Y-96895231D01*
X77019538Y-96895231D01*
X77957384Y-96895231D01*
X77957384Y-94952549D01*
X77957431Y-94631598D01*
X77957594Y-94347474D01*
X77957909Y-94097927D01*
X77958411Y-93880707D01*
X77959134Y-93693563D01*
X77960113Y-93534245D01*
X77961384Y-93400504D01*
X77962982Y-93290090D01*
X77964942Y-93200752D01*
X77967298Y-93130240D01*
X77970086Y-93076305D01*
X77973341Y-93036696D01*
X77977097Y-93009163D01*
X77981390Y-92991457D01*
X77986254Y-92981326D01*
X77988088Y-92979165D01*
X77999121Y-92971800D01*
X78018417Y-92965695D01*
X78049367Y-92960736D01*
X78095364Y-92956808D01*
X78159800Y-92953796D01*
X78246068Y-92951585D01*
X78357558Y-92950061D01*
X78497665Y-92949109D01*
X78669779Y-92948614D01*
X78877293Y-92948462D01*
X78896383Y-92948461D01*
X79773975Y-92948461D01*
X79769333Y-92318346D01*
X79764692Y-91688231D01*
X77024423Y-91683278D01*
X74284154Y-91678326D01*
X74284154Y-92313394D01*
X74284154Y-92948461D01*
X74195485Y-92948461D01*
X74191111Y-92318777D01*
X74191074Y-92313394D01*
X74185992Y-91581631D01*
X74230188Y-91570964D01*
X74254612Y-91569750D01*
X74315879Y-91568648D01*
X74411755Y-91567663D01*
X74540006Y-91566800D01*
X74698399Y-91566061D01*
X74884699Y-91565451D01*
X75096673Y-91564975D01*
X75332087Y-91564637D01*
X75588708Y-91564441D01*
X75864301Y-91564390D01*
X76156632Y-91564490D01*
G37*
G36*
X78460189Y-91150841D02*
G01*
X78735479Y-91151077D01*
X78980650Y-91151551D01*
X79197492Y-91152330D01*
X79387799Y-91153481D01*
X79553361Y-91155074D01*
X79695969Y-91157174D01*
X79817416Y-91159850D01*
X79919492Y-91163169D01*
X80003990Y-91167200D01*
X80072700Y-91172009D01*
X80127415Y-91177664D01*
X80169926Y-91184232D01*
X80202024Y-91191782D01*
X80225500Y-91200381D01*
X80242147Y-91210097D01*
X80253756Y-91220996D01*
X80262118Y-91233147D01*
X80269025Y-91246618D01*
X80276268Y-91261476D01*
X80283252Y-91273987D01*
X80291769Y-91289390D01*
X80298915Y-91307521D01*
X80304813Y-91331728D01*
X80309580Y-91365359D01*
X80313339Y-91411764D01*
X80316208Y-91474291D01*
X80318307Y-91556289D01*
X80319757Y-91661107D01*
X80320679Y-91792092D01*
X80321190Y-91952595D01*
X80321413Y-92145963D01*
X80321465Y-92339838D01*
X80321538Y-93343138D01*
X80255107Y-93409569D01*
X80188677Y-93476000D01*
X79377272Y-93476000D01*
X79175278Y-93476143D01*
X79008826Y-93476657D01*
X78874382Y-93477672D01*
X78768410Y-93479316D01*
X78687378Y-93481719D01*
X78627750Y-93485008D01*
X78585992Y-93489314D01*
X78558571Y-93494764D01*
X78541951Y-93501488D01*
X78535165Y-93506703D01*
X78529995Y-93514848D01*
X78525432Y-93529844D01*
X78521439Y-93553986D01*
X78517980Y-93589573D01*
X78515016Y-93638901D01*
X78512511Y-93704268D01*
X78510427Y-93787971D01*
X78508727Y-93892307D01*
X78507374Y-94019573D01*
X78506331Y-94172067D01*
X78505561Y-94352086D01*
X78505026Y-94561927D01*
X78504689Y-94803887D01*
X78504513Y-95080264D01*
X78504461Y-95393354D01*
X78504461Y-95402904D01*
X78504502Y-95721632D01*
X78504530Y-96003613D01*
X78504403Y-96251180D01*
X78503980Y-96466664D01*
X78503118Y-96652394D01*
X78501674Y-96810703D01*
X78499509Y-96943920D01*
X78496478Y-97054378D01*
X78492441Y-97144407D01*
X78487256Y-97216339D01*
X78480780Y-97272503D01*
X78472871Y-97315231D01*
X78463388Y-97346855D01*
X78452188Y-97369704D01*
X78439130Y-97386111D01*
X78424072Y-97398405D01*
X78406872Y-97408919D01*
X78387387Y-97419982D01*
X78381397Y-97423560D01*
X78367681Y-97431192D01*
X78351493Y-97437730D01*
X78329894Y-97443257D01*
X78299947Y-97447855D01*
X78258712Y-97451607D01*
X78203252Y-97454596D01*
X78130629Y-97456903D01*
X78037903Y-97458612D01*
X77922137Y-97459804D01*
X77780393Y-97460564D01*
X77609732Y-97460973D01*
X77407216Y-97461113D01*
X77169906Y-97461068D01*
X77048846Y-97461008D01*
X76786729Y-97460740D01*
X76560977Y-97460203D01*
X76368877Y-97459341D01*
X76207717Y-97458096D01*
X76074786Y-97456411D01*
X75967371Y-97454228D01*
X75882760Y-97451491D01*
X75818241Y-97448143D01*
X75771103Y-97444125D01*
X75738632Y-97439381D01*
X75718118Y-97433854D01*
X75715731Y-97432878D01*
X75662226Y-97396867D01*
X75616454Y-97345902D01*
X75613227Y-97340836D01*
X75606653Y-97329350D01*
X75600854Y-97316191D01*
X75595782Y-97298970D01*
X75591387Y-97275302D01*
X75587622Y-97242798D01*
X75584436Y-97199071D01*
X75581782Y-97141734D01*
X75579611Y-97068399D01*
X75577874Y-96976680D01*
X75576523Y-96864189D01*
X75575508Y-96728539D01*
X75574781Y-96567343D01*
X75574293Y-96378212D01*
X75573996Y-96158761D01*
X75573841Y-95906601D01*
X75573779Y-95619345D01*
X75573765Y-95406818D01*
X75573704Y-95092292D01*
X75573522Y-94814548D01*
X75573182Y-94571291D01*
X75572646Y-94360227D01*
X75571878Y-94179060D01*
X75570840Y-94025497D01*
X75569495Y-93897243D01*
X75567807Y-93792002D01*
X75565737Y-93707481D01*
X75563249Y-93641384D01*
X75560305Y-93591417D01*
X75556868Y-93555285D01*
X75552902Y-93530693D01*
X75548369Y-93515346D01*
X75543232Y-93506951D01*
X75542989Y-93506703D01*
X75531635Y-93499107D01*
X75511850Y-93492855D01*
X75480123Y-93487820D01*
X75432942Y-93483874D01*
X75366793Y-93480893D01*
X75278164Y-93478748D01*
X75163545Y-93477314D01*
X75019421Y-93476464D01*
X74842282Y-93476071D01*
X74691112Y-93476000D01*
X73869938Y-93476000D01*
X73803508Y-93409569D01*
X73737077Y-93343138D01*
X73737077Y-92353522D01*
X73737076Y-92329689D01*
X73922692Y-92329689D01*
X73923032Y-92514615D01*
X73924004Y-92687598D01*
X73925540Y-92844710D01*
X73927570Y-92982022D01*
X73930027Y-93095607D01*
X73932839Y-93181536D01*
X73935940Y-93235881D01*
X73938945Y-93254568D01*
X73961356Y-93258261D01*
X74018708Y-93262118D01*
X74106867Y-93266013D01*
X74221697Y-93269815D01*
X74359064Y-93273399D01*
X74514833Y-93276634D01*
X74684871Y-93279393D01*
X74779099Y-93280615D01*
X74983074Y-93283174D01*
X75151649Y-93285685D01*
X75288503Y-93288327D01*
X75397312Y-93291279D01*
X75481753Y-93294722D01*
X75545504Y-93298834D01*
X75592241Y-93303795D01*
X75625643Y-93309784D01*
X75649385Y-93316981D01*
X75664016Y-93323794D01*
X75710448Y-93359098D01*
X75740280Y-93399414D01*
X75741275Y-93401948D01*
X75743655Y-93427530D01*
X75746055Y-93489433D01*
X75748441Y-93584902D01*
X75750782Y-93711182D01*
X75753046Y-93865518D01*
X75755201Y-94045154D01*
X75757215Y-94247335D01*
X75759056Y-94469306D01*
X75760692Y-94708311D01*
X75762092Y-94961594D01*
X75763222Y-95226402D01*
X75763552Y-95322384D01*
X75769587Y-97198077D01*
X75810574Y-97232269D01*
X75821133Y-97239316D01*
X75836583Y-97245328D01*
X75859885Y-97250385D01*
X75894001Y-97254570D01*
X75941891Y-97257965D01*
X76006516Y-97260651D01*
X76090838Y-97262709D01*
X76197816Y-97264221D01*
X76330413Y-97265269D01*
X76491590Y-97265935D01*
X76684306Y-97266300D01*
X76911524Y-97266445D01*
X77051011Y-97266461D01*
X77297285Y-97266431D01*
X77507456Y-97266278D01*
X77684499Y-97265909D01*
X77831388Y-97265229D01*
X77951098Y-97264145D01*
X78046602Y-97262562D01*
X78120876Y-97260388D01*
X78176892Y-97257528D01*
X78217627Y-97253888D01*
X78246053Y-97249374D01*
X78265146Y-97243894D01*
X78277879Y-97237352D01*
X78287227Y-97229655D01*
X78289538Y-97227384D01*
X78296021Y-97220244D01*
X78301743Y-97211017D01*
X78306754Y-97197364D01*
X78311099Y-97176947D01*
X78314827Y-97147424D01*
X78317985Y-97106456D01*
X78320620Y-97051705D01*
X78322779Y-96980829D01*
X78324510Y-96891489D01*
X78325859Y-96781346D01*
X78326876Y-96648060D01*
X78327605Y-96489292D01*
X78328096Y-96302700D01*
X78328395Y-96085947D01*
X78328550Y-95836692D01*
X78328607Y-95552596D01*
X78328615Y-95295241D01*
X78328538Y-94974521D01*
X78328417Y-94690610D01*
X78328418Y-94441238D01*
X78328709Y-94224138D01*
X78329456Y-94037042D01*
X78330825Y-93877682D01*
X78332983Y-93743789D01*
X78336096Y-93633095D01*
X78340331Y-93543332D01*
X78345855Y-93472232D01*
X78352833Y-93417527D01*
X78361433Y-93376948D01*
X78371822Y-93348228D01*
X78384164Y-93329098D01*
X78398628Y-93317291D01*
X78415380Y-93310537D01*
X78434586Y-93306569D01*
X78456412Y-93303118D01*
X78475154Y-93299377D01*
X78511984Y-93295272D01*
X78583072Y-93291541D01*
X78683597Y-93288284D01*
X78808740Y-93285602D01*
X78953682Y-93283594D01*
X79113604Y-93282363D01*
X79283687Y-93282008D01*
X79305624Y-93282031D01*
X79474406Y-93281937D01*
X79631708Y-93281223D01*
X79773061Y-93279956D01*
X79893995Y-93278202D01*
X79990041Y-93276030D01*
X80056727Y-93273507D01*
X80089585Y-93270700D01*
X80091516Y-93270188D01*
X80118322Y-93243327D01*
X80136158Y-93196539D01*
X80136315Y-93195690D01*
X80138534Y-93163626D01*
X80140347Y-93096796D01*
X80141729Y-92999509D01*
X80142655Y-92876075D01*
X80143100Y-92730803D01*
X80143038Y-92568003D01*
X80142445Y-92391982D01*
X80141731Y-92267761D01*
X80140314Y-92061340D01*
X80138960Y-91890473D01*
X80137479Y-91751636D01*
X80135686Y-91641306D01*
X80133390Y-91555960D01*
X80130405Y-91492076D01*
X80126541Y-91446130D01*
X80121612Y-91414600D01*
X80115429Y-91393962D01*
X80107803Y-91380694D01*
X80098547Y-91371272D01*
X80093655Y-91367231D01*
X80069564Y-91353204D01*
X80032583Y-91342467D01*
X79976493Y-91334161D01*
X79895080Y-91327423D01*
X79782127Y-91321394D01*
X79753510Y-91320124D01*
X79680966Y-91317914D01*
X79572550Y-91315918D01*
X79431467Y-91314137D01*
X79260920Y-91312571D01*
X79064113Y-91311219D01*
X78844252Y-91310081D01*
X78604539Y-91309158D01*
X78348180Y-91308448D01*
X78078378Y-91307953D01*
X77798339Y-91307672D01*
X77511265Y-91307605D01*
X77220362Y-91307752D01*
X76928833Y-91308113D01*
X76639883Y-91308688D01*
X76356717Y-91309476D01*
X76082537Y-91310479D01*
X75820549Y-91311694D01*
X75573957Y-91313124D01*
X75345965Y-91314767D01*
X75139777Y-91316623D01*
X74958598Y-91318693D01*
X74851317Y-91320222D01*
X74650088Y-91323424D01*
X74484246Y-91326267D01*
X74350107Y-91328991D01*
X74243984Y-91331835D01*
X74162194Y-91335038D01*
X74101051Y-91338839D01*
X74056870Y-91343476D01*
X74025966Y-91349190D01*
X74004654Y-91356219D01*
X73989249Y-91364802D01*
X73976066Y-91375178D01*
X73973767Y-91377150D01*
X73922692Y-91421087D01*
X73922692Y-92329689D01*
X73737076Y-92329689D01*
X73737071Y-92124397D01*
X73737282Y-91931002D01*
X73738053Y-91769990D01*
X73739727Y-91638014D01*
X73742648Y-91531729D01*
X73747157Y-91447786D01*
X73749805Y-91421087D01*
X73753599Y-91382840D01*
X73762316Y-91333544D01*
X73773652Y-91296550D01*
X73787949Y-91268512D01*
X73805551Y-91246084D01*
X73826800Y-91225919D01*
X73852040Y-91204669D01*
X73855105Y-91202096D01*
X73915921Y-91150923D01*
X77022008Y-91150923D01*
X77435690Y-91150884D01*
X77812086Y-91150812D01*
X78152989Y-91150776D01*
X78460189Y-91150841D01*
G37*
G36*
X75774161Y-86336037D02*
G01*
X75836233Y-86368035D01*
X75864751Y-86418899D01*
X75858597Y-86486614D01*
X75816653Y-86569162D01*
X75815832Y-86570376D01*
X75789592Y-86606467D01*
X75740755Y-86670930D01*
X75671049Y-86761554D01*
X75582202Y-86876128D01*
X75475942Y-87012441D01*
X75353996Y-87168282D01*
X75218094Y-87341440D01*
X75069962Y-87529705D01*
X74911330Y-87730864D01*
X74743924Y-87942709D01*
X74688870Y-88012285D01*
X74596643Y-88129252D01*
X74484627Y-88272056D01*
X74356833Y-88435538D01*
X74217268Y-88614540D01*
X74069943Y-88803905D01*
X73918866Y-88998474D01*
X73768048Y-89193090D01*
X73621497Y-89382593D01*
X73483223Y-89561827D01*
X73368204Y-89711347D01*
X73303183Y-89795877D01*
X73221455Y-89901919D01*
X73130252Y-90020103D01*
X73036807Y-90141054D01*
X72953574Y-90248655D01*
X72834516Y-90403013D01*
X72711874Y-90563030D01*
X72588803Y-90724514D01*
X72468454Y-90883275D01*
X72353981Y-91035122D01*
X72248536Y-91175863D01*
X72155272Y-91301308D01*
X72077341Y-91407265D01*
X72017898Y-91489543D01*
X71988210Y-91531923D01*
X71878351Y-91711460D01*
X71788401Y-91897250D01*
X71721164Y-92081669D01*
X71679444Y-92257094D01*
X71666000Y-92407771D01*
X71668079Y-92469292D01*
X71674771Y-92539382D01*
X71686752Y-92620801D01*
X71704702Y-92716312D01*
X71729300Y-92828675D01*
X71761223Y-92960653D01*
X71801150Y-93115007D01*
X71849761Y-93294498D01*
X71907732Y-93501889D01*
X71975744Y-93739941D01*
X72054474Y-94011415D01*
X72089282Y-94130538D01*
X72197521Y-94494445D01*
X72310202Y-94862243D01*
X72426179Y-95230668D01*
X72544304Y-95596456D01*
X72663432Y-95956344D01*
X72782415Y-96307067D01*
X72900106Y-96645360D01*
X73015360Y-96967961D01*
X73127028Y-97271605D01*
X73233965Y-97553027D01*
X73335024Y-97808964D01*
X73429058Y-98036151D01*
X73514920Y-98231325D01*
X73573316Y-98354838D01*
X73682811Y-98539436D01*
X73815063Y-98692933D01*
X73971412Y-98816340D01*
X74153198Y-98910671D01*
X74361762Y-98976938D01*
X74410970Y-98987769D01*
X74440118Y-98993493D01*
X74469920Y-98998604D01*
X74502606Y-99003131D01*
X74540408Y-99007102D01*
X74585557Y-99010547D01*
X74640286Y-99013494D01*
X74706825Y-99015971D01*
X74787407Y-99018008D01*
X74884261Y-99019633D01*
X74999621Y-99020875D01*
X75135717Y-99021762D01*
X75294781Y-99022324D01*
X75479044Y-99022589D01*
X75690738Y-99022585D01*
X75932095Y-99022342D01*
X76205345Y-99021888D01*
X76512720Y-99021252D01*
X76856453Y-99020463D01*
X76936778Y-99020272D01*
X77294071Y-99019458D01*
X77614492Y-99018737D01*
X77900248Y-99018008D01*
X78153543Y-99017169D01*
X78376582Y-99016117D01*
X78571572Y-99014750D01*
X78740717Y-99012967D01*
X78886222Y-99010664D01*
X79010293Y-99007740D01*
X79115135Y-99004093D01*
X79202953Y-98999620D01*
X79275953Y-98994219D01*
X79336340Y-98987788D01*
X79386319Y-98980225D01*
X79428095Y-98971428D01*
X79463874Y-98961294D01*
X79495861Y-98949721D01*
X79526261Y-98936607D01*
X79557279Y-98921851D01*
X79591122Y-98905348D01*
X79609778Y-98896417D01*
X79683919Y-98859453D01*
X79750485Y-98820978D01*
X79812794Y-98777456D01*
X79874164Y-98725348D01*
X79937911Y-98661115D01*
X80007353Y-98581220D01*
X80085807Y-98482124D01*
X80176592Y-98360290D01*
X80283024Y-98212178D01*
X80379516Y-98075451D01*
X80507267Y-97894115D01*
X80655274Y-97685031D01*
X80820787Y-97452037D01*
X81001055Y-97198971D01*
X81193328Y-96929671D01*
X81394855Y-96647974D01*
X81602885Y-96357719D01*
X81814668Y-96062744D01*
X82027453Y-95766885D01*
X82238489Y-95473983D01*
X82445025Y-95187873D01*
X82644312Y-94912395D01*
X82831183Y-94654710D01*
X82923239Y-94527930D01*
X83029814Y-94381130D01*
X83142482Y-94225918D01*
X83252814Y-94073904D01*
X83352385Y-93936697D01*
X83360594Y-93925384D01*
X83601744Y-93593418D01*
X83824171Y-93287998D01*
X84027483Y-93009653D01*
X84211289Y-92758910D01*
X84375197Y-92536297D01*
X84518818Y-92342344D01*
X84641759Y-92177577D01*
X84743629Y-92042526D01*
X84824038Y-91937719D01*
X84882594Y-91863683D01*
X84918905Y-91820947D01*
X84919684Y-91820115D01*
X84982743Y-91770473D01*
X85042758Y-91759607D01*
X85100686Y-91787422D01*
X85115219Y-91800674D01*
X85143677Y-91845703D01*
X85175674Y-91925107D01*
X85210226Y-92034447D01*
X85246351Y-92169284D01*
X85283066Y-92325179D01*
X85319388Y-92497692D01*
X85354335Y-92682385D01*
X85386922Y-92874818D01*
X85416169Y-93070552D01*
X85441091Y-93265148D01*
X85442878Y-93280615D01*
X85460831Y-93472941D01*
X85474375Y-93692062D01*
X85483393Y-93928059D01*
X85487763Y-94171016D01*
X85487365Y-94411015D01*
X85482081Y-94638138D01*
X85471790Y-94842468D01*
X85463053Y-94951154D01*
X85394505Y-95474217D01*
X85288778Y-95999674D01*
X85147270Y-96523676D01*
X84971378Y-97042377D01*
X84762498Y-97551927D01*
X84522028Y-98048479D01*
X84251365Y-98528184D01*
X84049720Y-98844381D01*
X83728447Y-99289259D01*
X83375780Y-99711948D01*
X82993707Y-100110565D01*
X82584219Y-100483231D01*
X82149305Y-100828065D01*
X81690954Y-101143185D01*
X81480488Y-101273061D01*
X80987515Y-101545990D01*
X80485309Y-101782076D01*
X79971812Y-101981989D01*
X79444966Y-102146402D01*
X78902710Y-102275985D01*
X78342987Y-102371409D01*
X77979070Y-102414428D01*
X77827057Y-102426060D01*
X77645337Y-102434451D01*
X77443144Y-102439609D01*
X77229712Y-102441540D01*
X77014277Y-102440253D01*
X76806072Y-102435755D01*
X76614332Y-102428052D01*
X76448292Y-102417152D01*
X76404077Y-102413183D01*
X75832829Y-102339602D01*
X75277944Y-102230936D01*
X74737543Y-102086660D01*
X74209752Y-101906248D01*
X73692692Y-101689176D01*
X73512384Y-101603697D01*
X73010822Y-101337170D01*
X72530190Y-101038193D01*
X72071871Y-100708152D01*
X71637248Y-100348432D01*
X71227704Y-99960421D01*
X70844621Y-99545503D01*
X70489382Y-99105066D01*
X70163369Y-98640495D01*
X69867966Y-98153176D01*
X69643688Y-97725615D01*
X69399183Y-97189416D01*
X69192875Y-96658301D01*
X69024485Y-96130522D01*
X68893736Y-95604331D01*
X68800348Y-95077982D01*
X68744043Y-94549726D01*
X68724543Y-94017818D01*
X68726402Y-93959143D01*
X68921221Y-93959143D01*
X68921808Y-94158531D01*
X68925035Y-94348651D01*
X68930950Y-94521455D01*
X68939599Y-94668900D01*
X68946567Y-94746000D01*
X68993454Y-95099331D01*
X69057668Y-95461610D01*
X69136424Y-95819659D01*
X69226939Y-96160297D01*
X69284858Y-96348154D01*
X69486917Y-96907837D01*
X69720228Y-97445518D01*
X69984243Y-97960388D01*
X70278414Y-98451642D01*
X70602193Y-98918473D01*
X70955030Y-99360074D01*
X71336379Y-99775639D01*
X71745690Y-100164360D01*
X72056769Y-100426659D01*
X72513428Y-100770555D01*
X72979444Y-101076950D01*
X73456725Y-101346706D01*
X73947180Y-101580683D01*
X74452719Y-101779742D01*
X74975249Y-101944743D01*
X75516679Y-102076546D01*
X75860866Y-102141659D01*
X76031488Y-102168073D01*
X76226646Y-102194159D01*
X76431823Y-102218241D01*
X76632502Y-102238641D01*
X76814167Y-102253683D01*
X76853461Y-102256319D01*
X76949416Y-102259696D01*
X77075560Y-102260152D01*
X77223139Y-102257985D01*
X77383399Y-102253491D01*
X77547584Y-102246969D01*
X77706941Y-102238716D01*
X77852715Y-102229030D01*
X77976151Y-102218208D01*
X77976923Y-102218128D01*
X78541003Y-102140688D01*
X79092479Y-102026539D01*
X79630663Y-101875885D01*
X80154872Y-101688924D01*
X80664419Y-101465858D01*
X80839308Y-101379223D01*
X80996583Y-101298152D01*
X81128325Y-101228109D01*
X81244283Y-101163326D01*
X81354206Y-101098037D01*
X81467845Y-101026475D01*
X81594950Y-100942872D01*
X81723551Y-100856209D01*
X82182667Y-100521356D01*
X82615222Y-100158158D01*
X83020217Y-99767829D01*
X83396653Y-99351582D01*
X83743530Y-98910630D01*
X84059850Y-98446186D01*
X84344614Y-97959461D01*
X84596822Y-97451670D01*
X84675931Y-97272210D01*
X84757391Y-97077891D01*
X84825497Y-96906578D01*
X84884501Y-96746389D01*
X84938658Y-96585444D01*
X84992222Y-96411865D01*
X85028417Y-96287741D01*
X85165630Y-95738962D01*
X85264082Y-95186039D01*
X85323754Y-94629949D01*
X85344626Y-94071671D01*
X85326675Y-93512182D01*
X85269884Y-92952460D01*
X85174230Y-92393483D01*
X85115015Y-92127846D01*
X85089353Y-92024796D01*
X85068965Y-91955402D01*
X85051424Y-91915012D01*
X85034299Y-91898971D01*
X85015163Y-91902627D01*
X85002283Y-91911858D01*
X84978343Y-91938240D01*
X84933797Y-91994067D01*
X84870482Y-92076796D01*
X84790231Y-92183882D01*
X84694880Y-92312780D01*
X84586265Y-92460946D01*
X84466220Y-92625834D01*
X84336581Y-92804900D01*
X84199183Y-92995599D01*
X84055861Y-93195387D01*
X83908451Y-93401719D01*
X83758788Y-93612050D01*
X83608706Y-93823836D01*
X83460042Y-94034531D01*
X83314630Y-94241591D01*
X83174306Y-94442472D01*
X83096460Y-94554446D01*
X83014695Y-94672156D01*
X82915292Y-94815052D01*
X82803014Y-94976299D01*
X82682624Y-95149064D01*
X82558883Y-95326511D01*
X82436555Y-95501808D01*
X82321304Y-95666827D01*
X82206277Y-95831568D01*
X82086163Y-96003820D01*
X81965521Y-96177027D01*
X81848911Y-96344635D01*
X81740894Y-96500089D01*
X81646028Y-96636837D01*
X81568874Y-96748322D01*
X81566878Y-96751211D01*
X81479270Y-96877899D01*
X81375552Y-97027631D01*
X81261970Y-97191404D01*
X81144773Y-97360215D01*
X81030208Y-97525060D01*
X80924639Y-97676769D01*
X80828290Y-97815180D01*
X80731421Y-97954449D01*
X80638360Y-98088348D01*
X80553430Y-98210651D01*
X80480958Y-98315131D01*
X80425268Y-98395561D01*
X80413032Y-98413272D01*
X80306856Y-98561748D01*
X80212649Y-98680925D01*
X80125049Y-98776529D01*
X80038694Y-98854282D01*
X79948222Y-98919912D01*
X79924277Y-98935131D01*
X79775909Y-99015651D01*
X79624634Y-99072445D01*
X79456818Y-99110068D01*
X79361055Y-99123274D01*
X79309995Y-99126894D01*
X79223607Y-99130048D01*
X79101518Y-99132738D01*
X78943357Y-99134965D01*
X78748751Y-99136732D01*
X78517328Y-99138041D01*
X78248715Y-99138894D01*
X77942542Y-99139293D01*
X77598435Y-99139240D01*
X77216023Y-99138737D01*
X76794934Y-99137787D01*
X76765538Y-99137708D01*
X76404628Y-99136688D01*
X76080720Y-99135672D01*
X75791737Y-99134628D01*
X75535605Y-99133524D01*
X75310248Y-99132331D01*
X75113590Y-99131015D01*
X74943556Y-99129547D01*
X74798071Y-99127895D01*
X74675059Y-99126027D01*
X74572445Y-99123912D01*
X74488153Y-99121519D01*
X74420107Y-99118816D01*
X74366233Y-99115773D01*
X74324455Y-99112358D01*
X74292696Y-99108539D01*
X74268883Y-99104286D01*
X74251694Y-99099804D01*
X74043896Y-99017358D01*
X73858565Y-98907197D01*
X73699714Y-98772040D01*
X73604257Y-98661130D01*
X73555862Y-98585658D01*
X73496987Y-98475322D01*
X73428576Y-98332628D01*
X73351572Y-98160081D01*
X73266920Y-97960188D01*
X73175563Y-97735453D01*
X73078446Y-97488382D01*
X72976513Y-97221482D01*
X72870707Y-96937257D01*
X72761972Y-96638214D01*
X72651253Y-96326859D01*
X72539493Y-96005696D01*
X72427637Y-95677232D01*
X72316627Y-95343973D01*
X72207409Y-95008424D01*
X72100926Y-94673090D01*
X72096223Y-94658077D01*
X71992866Y-94327179D01*
X71900979Y-94031041D01*
X71820019Y-93767241D01*
X71749442Y-93533354D01*
X71688703Y-93326957D01*
X71637259Y-93145626D01*
X71594565Y-92986939D01*
X71560077Y-92848472D01*
X71533251Y-92727800D01*
X71513544Y-92622501D01*
X71500411Y-92530152D01*
X71493307Y-92448328D01*
X71491690Y-92374607D01*
X71495014Y-92306564D01*
X71502736Y-92241776D01*
X71514312Y-92177821D01*
X71526858Y-92121958D01*
X71543433Y-92056131D01*
X71561617Y-91992630D01*
X71582669Y-91929649D01*
X71607847Y-91865379D01*
X71638412Y-91798015D01*
X71675623Y-91725750D01*
X71720739Y-91646775D01*
X71775021Y-91559285D01*
X71839726Y-91461473D01*
X71916116Y-91351531D01*
X72005449Y-91227652D01*
X72108985Y-91088030D01*
X72227983Y-90930858D01*
X72363703Y-90754328D01*
X72517404Y-90556634D01*
X72690346Y-90335968D01*
X72883788Y-90090524D01*
X73098990Y-89818495D01*
X73337211Y-89518074D01*
X73374877Y-89470615D01*
X73474411Y-89345147D01*
X73572951Y-89220811D01*
X73665930Y-89103378D01*
X73748781Y-88998623D01*
X73816934Y-88912316D01*
X73865823Y-88850231D01*
X73869628Y-88845384D01*
X73904079Y-88801724D01*
X73960508Y-88730518D01*
X74036525Y-88634772D01*
X74129740Y-88517488D01*
X74237764Y-88381672D01*
X74358206Y-88230327D01*
X74488678Y-88066457D01*
X74626789Y-87893067D01*
X74770149Y-87713161D01*
X74841036Y-87624231D01*
X75011823Y-87409962D01*
X75159846Y-87224155D01*
X75286722Y-87064735D01*
X75394070Y-86929627D01*
X75483509Y-86816756D01*
X75556656Y-86724049D01*
X75615130Y-86649429D01*
X75660550Y-86590822D01*
X75694532Y-86546153D01*
X75718697Y-86513348D01*
X75734661Y-86490331D01*
X75744044Y-86475029D01*
X75748463Y-86465365D01*
X75749538Y-86459435D01*
X75731386Y-86442638D01*
X75679825Y-86435244D01*
X75599198Y-86436568D01*
X75493848Y-86445925D01*
X75368119Y-86462628D01*
X75226353Y-86485993D01*
X75072893Y-86515335D01*
X74912084Y-86549967D01*
X74748267Y-86589204D01*
X74585786Y-86632360D01*
X74503209Y-86656140D01*
X73959683Y-86835222D01*
X73442090Y-87042891D01*
X72948770Y-87280066D01*
X72478061Y-87547665D01*
X72028301Y-87846609D01*
X71597829Y-88177815D01*
X71322098Y-88415775D01*
X70979535Y-88746986D01*
X70655285Y-89104923D01*
X70353342Y-89484161D01*
X70077703Y-89879276D01*
X69832363Y-90284842D01*
X69621318Y-90695436D01*
X69585378Y-90773676D01*
X69422126Y-91163631D01*
X69283345Y-91556330D01*
X69167091Y-91958969D01*
X69071424Y-92378744D01*
X68994400Y-92822850D01*
X68956231Y-93104769D01*
X68944328Y-93229815D01*
X68934828Y-93385822D01*
X68927778Y-93564742D01*
X68923227Y-93758531D01*
X68921221Y-93959143D01*
X68726402Y-93959143D01*
X68741570Y-93480509D01*
X68794844Y-92936052D01*
X68835830Y-92655384D01*
X68925598Y-92186377D01*
X69040207Y-91740703D01*
X69182535Y-91309373D01*
X69355464Y-90883397D01*
X69505604Y-90564769D01*
X69756626Y-90098823D01*
X70031645Y-89661956D01*
X70333240Y-89250561D01*
X70663989Y-88861034D01*
X70903500Y-88610175D01*
X71281394Y-88258451D01*
X71689556Y-87928467D01*
X72124436Y-87622381D01*
X72582484Y-87342353D01*
X73060150Y-87090542D01*
X73553883Y-86869108D01*
X74060134Y-86680209D01*
X74096003Y-86668243D01*
X74302128Y-86603422D01*
X74516396Y-86542273D01*
X74732750Y-86486110D01*
X74945134Y-86436244D01*
X75147493Y-86393988D01*
X75333771Y-86360656D01*
X75497912Y-86337561D01*
X75633860Y-86326014D01*
X75679656Y-86324923D01*
X75774161Y-86336037D01*
G37*
G36*
X76663820Y-85858020D02*
G01*
X76705454Y-85862965D01*
X76734543Y-85871774D01*
X76754609Y-85882751D01*
X76792836Y-85921337D01*
X76804570Y-85977057D01*
X76804615Y-85982118D01*
X76801975Y-86001434D01*
X76792740Y-86026564D01*
X76774937Y-86060290D01*
X76746595Y-86105395D01*
X76705740Y-86164662D01*
X76650400Y-86240873D01*
X76578604Y-86336811D01*
X76488377Y-86455259D01*
X76377749Y-86598999D01*
X76254435Y-86758322D01*
X76137770Y-86908716D01*
X76025042Y-87053896D01*
X75919225Y-87190038D01*
X75823297Y-87313319D01*
X75740234Y-87419914D01*
X75673013Y-87506002D01*
X75624609Y-87567759D01*
X75603151Y-87594923D01*
X75555574Y-87655266D01*
X75491138Y-87737802D01*
X75416721Y-87833681D01*
X75339200Y-87934055D01*
X75299482Y-87985692D01*
X75232632Y-88072571D01*
X75147342Y-88183157D01*
X75049139Y-88310296D01*
X74943552Y-88446834D01*
X74836112Y-88585617D01*
X74733205Y-88718384D01*
X74634037Y-88846417D01*
X74526711Y-88985339D01*
X74409586Y-89137288D01*
X74281023Y-89304400D01*
X74139384Y-89488811D01*
X73983027Y-89692659D01*
X73810315Y-89918081D01*
X73619607Y-90167212D01*
X73409264Y-90442191D01*
X73177646Y-90745153D01*
X73064224Y-90893561D01*
X72896712Y-91112833D01*
X72751322Y-91303553D01*
X72626446Y-91468214D01*
X72520474Y-91609311D01*
X72431800Y-91729337D01*
X72358815Y-91830787D01*
X72299909Y-91916155D01*
X72253476Y-91987933D01*
X72217905Y-92048617D01*
X72191590Y-92100701D01*
X72172922Y-92146678D01*
X72160292Y-92189042D01*
X72152092Y-92230287D01*
X72146714Y-92272907D01*
X72142549Y-92319397D01*
X72142231Y-92323231D01*
X72138326Y-92388245D01*
X72138729Y-92450397D01*
X72144567Y-92515796D01*
X72156965Y-92590556D01*
X72177050Y-92680788D01*
X72205948Y-92792604D01*
X72244784Y-92932116D01*
X72271728Y-93026127D01*
X72364550Y-93344224D01*
X72462710Y-93673721D01*
X72565234Y-94011690D01*
X72671150Y-94355203D01*
X72779482Y-94701333D01*
X72889259Y-95047151D01*
X72999507Y-95389731D01*
X73109253Y-95726144D01*
X73217523Y-96053463D01*
X73323344Y-96368760D01*
X73425742Y-96669107D01*
X73523745Y-96951577D01*
X73616379Y-97213242D01*
X73702670Y-97451173D01*
X73781646Y-97662445D01*
X73852333Y-97844128D01*
X73913758Y-97993295D01*
X73951149Y-98077723D01*
X74036239Y-98232622D01*
X74135105Y-98354140D01*
X74252970Y-98447026D01*
X74395060Y-98516028D01*
X74456344Y-98536929D01*
X74476540Y-98542872D01*
X74497970Y-98548173D01*
X74522871Y-98552867D01*
X74553481Y-98556992D01*
X74592035Y-98560584D01*
X74640770Y-98563680D01*
X74701923Y-98566317D01*
X74777731Y-98568532D01*
X74870430Y-98570361D01*
X74982256Y-98571841D01*
X75115447Y-98573009D01*
X75272238Y-98573902D01*
X75454867Y-98574557D01*
X75665570Y-98575009D01*
X75906584Y-98575297D01*
X76180145Y-98575457D01*
X76488489Y-98575525D01*
X76804615Y-98575538D01*
X77146780Y-98575524D01*
X77452107Y-98575456D01*
X77722836Y-98575297D01*
X77961204Y-98575009D01*
X78169451Y-98574555D01*
X78349816Y-98573897D01*
X78504538Y-98572999D01*
X78635856Y-98571821D01*
X78746009Y-98570327D01*
X78837236Y-98568480D01*
X78911775Y-98566241D01*
X78971867Y-98563574D01*
X79019749Y-98560440D01*
X79057661Y-98556803D01*
X79087842Y-98552624D01*
X79112530Y-98547866D01*
X79133965Y-98542493D01*
X79154386Y-98536465D01*
X79155385Y-98536157D01*
X79292818Y-98476676D01*
X79425705Y-98387681D01*
X79541232Y-98277850D01*
X79547452Y-98270647D01*
X79572059Y-98239639D01*
X79617160Y-98180587D01*
X79680157Y-98096970D01*
X79758455Y-97992269D01*
X79849457Y-97869965D01*
X79950566Y-97733539D01*
X80059187Y-97586472D01*
X80165326Y-97442308D01*
X80260435Y-97312918D01*
X80348680Y-97192871D01*
X80431171Y-97080678D01*
X80509021Y-96974850D01*
X80583343Y-96873899D01*
X80655250Y-96776337D01*
X80725853Y-96680676D01*
X80796265Y-96585426D01*
X80867598Y-96489099D01*
X80940965Y-96390207D01*
X81017479Y-96287261D01*
X81098251Y-96178773D01*
X81184395Y-96063255D01*
X81277022Y-95939218D01*
X81377244Y-95805173D01*
X81486175Y-95659632D01*
X81604927Y-95501107D01*
X81734612Y-95328109D01*
X81876343Y-95139149D01*
X82031232Y-94932740D01*
X82200391Y-94707393D01*
X82384933Y-94461619D01*
X82585970Y-94193930D01*
X82804615Y-93902837D01*
X83041980Y-93586852D01*
X83299177Y-93244487D01*
X83577319Y-92874253D01*
X83877519Y-92474661D01*
X83961926Y-92362308D01*
X84120902Y-92150789D01*
X84273776Y-91947570D01*
X84418844Y-91754907D01*
X84554401Y-91575055D01*
X84678741Y-91410271D01*
X84790160Y-91262811D01*
X84886953Y-91134932D01*
X84967414Y-91028890D01*
X85029838Y-90946941D01*
X85072520Y-90891341D01*
X85093756Y-90864348D01*
X85095143Y-90862731D01*
X85149992Y-90825413D01*
X85210589Y-90825830D01*
X85273279Y-90863789D01*
X85282604Y-90872675D01*
X85310346Y-90914528D01*
X85345415Y-90989749D01*
X85386366Y-91093627D01*
X85431755Y-91221451D01*
X85480138Y-91368509D01*
X85530071Y-91530090D01*
X85580111Y-91701481D01*
X85628813Y-91877972D01*
X85674732Y-92054852D01*
X85716426Y-92227408D01*
X85752450Y-92390929D01*
X85761424Y-92434953D01*
X85806917Y-92670156D01*
X85844234Y-92882193D01*
X85874115Y-93079004D01*
X85897301Y-93268532D01*
X85914533Y-93458716D01*
X85926552Y-93657497D01*
X85934099Y-93872817D01*
X85937915Y-94112617D01*
X85938780Y-94335692D01*
X85938220Y-94553260D01*
X85936200Y-94738916D01*
X85932146Y-94899816D01*
X85925482Y-95043116D01*
X85915632Y-95175971D01*
X85902021Y-95305537D01*
X85884074Y-95438970D01*
X85861214Y-95583424D01*
X85832866Y-95746055D01*
X85819347Y-95820615D01*
X85707375Y-96337585D01*
X85561237Y-96854749D01*
X85383053Y-97367687D01*
X85174941Y-97871978D01*
X84939020Y-98363204D01*
X84677410Y-98836943D01*
X84392228Y-99288776D01*
X84085595Y-99714284D01*
X83768039Y-100099538D01*
X83393528Y-100499804D01*
X83003888Y-100868578D01*
X82595582Y-101208482D01*
X82165073Y-101522138D01*
X81708825Y-101812166D01*
X81223299Y-102081189D01*
X80839308Y-102270049D01*
X80344381Y-102480677D01*
X79827548Y-102660232D01*
X79291587Y-102807930D01*
X78739277Y-102922990D01*
X78270000Y-102993197D01*
X78146934Y-103006917D01*
X78020280Y-103017740D01*
X77882829Y-103026027D01*
X77727375Y-103032138D01*
X77546708Y-103036434D01*
X77351692Y-103039095D01*
X77196532Y-103040398D01*
X77048474Y-103041133D01*
X76913580Y-103041309D01*
X76797909Y-103040934D01*
X76707523Y-103040016D01*
X76648481Y-103038566D01*
X76638538Y-103038074D01*
X76058736Y-102983810D01*
X75487196Y-102892005D01*
X74925529Y-102763625D01*
X74375349Y-102599638D01*
X73838267Y-102401010D01*
X73315896Y-102168706D01*
X72809846Y-101903694D01*
X72321730Y-101606939D01*
X71853161Y-101279409D01*
X71405749Y-100922068D01*
X70981108Y-100535885D01*
X70580849Y-100121824D01*
X70206584Y-99680853D01*
X69859924Y-99213938D01*
X69601948Y-98819769D01*
X69298853Y-98295234D01*
X69031556Y-97762031D01*
X68800562Y-97221649D01*
X68606376Y-96675578D01*
X68449502Y-96125308D01*
X68330445Y-95572327D01*
X68249709Y-95018126D01*
X68225012Y-94755940D01*
X68217624Y-94624170D01*
X68213108Y-94463057D01*
X68211316Y-94280752D01*
X68212098Y-94085404D01*
X68214974Y-93905846D01*
X68391759Y-93905846D01*
X68392275Y-94418277D01*
X68429566Y-94937971D01*
X68502714Y-95461889D01*
X68610798Y-95986994D01*
X68752900Y-96510249D01*
X68928099Y-97028616D01*
X69135475Y-97539058D01*
X69374111Y-98038538D01*
X69643085Y-98524018D01*
X69923721Y-98966308D01*
X70139104Y-99273355D01*
X70354594Y-99556216D01*
X70577395Y-99823162D01*
X70814710Y-100082467D01*
X71073740Y-100342404D01*
X71333846Y-100585963D01*
X71623144Y-100836488D01*
X71933651Y-101081774D01*
X72257804Y-101316680D01*
X72588040Y-101536064D01*
X72916795Y-101734787D01*
X73236506Y-101907706D01*
X73385057Y-101980278D01*
X73935465Y-102218593D01*
X74490460Y-102418141D01*
X75050567Y-102579020D01*
X75616315Y-102701329D01*
X76188231Y-102785166D01*
X76766842Y-102830630D01*
X77352675Y-102837820D01*
X77849923Y-102814413D01*
X78417986Y-102753138D01*
X78978756Y-102653798D01*
X79530693Y-102516981D01*
X80072255Y-102343272D01*
X80601902Y-102133260D01*
X81118093Y-101887530D01*
X81619287Y-101606670D01*
X82103943Y-101291266D01*
X82382846Y-101088199D01*
X82654876Y-100869621D01*
X82934107Y-100622215D01*
X83213184Y-100353418D01*
X83484753Y-100070669D01*
X83741461Y-99781402D01*
X83975953Y-99493057D01*
X84029720Y-99422680D01*
X84338340Y-98982259D01*
X84621450Y-98515134D01*
X84877438Y-98025520D01*
X85104687Y-97517634D01*
X85301583Y-96995692D01*
X85466512Y-96463910D01*
X85597858Y-95926505D01*
X85694007Y-95387692D01*
X85746015Y-94941384D01*
X85758623Y-94751578D01*
X85766147Y-94535691D01*
X85768722Y-94303859D01*
X85766485Y-94066217D01*
X85759573Y-93832898D01*
X85748122Y-93614039D01*
X85732268Y-93419773D01*
X85724594Y-93350139D01*
X85683835Y-93050695D01*
X85633878Y-92747864D01*
X85576719Y-92451855D01*
X85514352Y-92172879D01*
X85448773Y-91921143D01*
X85438230Y-91884470D01*
X85393921Y-91735491D01*
X85349470Y-91591396D01*
X85306471Y-91456880D01*
X85266517Y-91336640D01*
X85231202Y-91235372D01*
X85202119Y-91157771D01*
X85180864Y-91108534D01*
X85169379Y-91092308D01*
X85153063Y-91106956D01*
X85120086Y-91145982D01*
X85076565Y-91202012D01*
X85060034Y-91224192D01*
X85033441Y-91260041D01*
X84985389Y-91324591D01*
X84917817Y-91415247D01*
X84832662Y-91529411D01*
X84731862Y-91664488D01*
X84617357Y-91817880D01*
X84491083Y-91986992D01*
X84354980Y-92169226D01*
X84210984Y-92361987D01*
X84061035Y-92562677D01*
X83977156Y-92674923D01*
X83571891Y-93217630D01*
X83181081Y-93741818D01*
X82805754Y-94246101D01*
X82446938Y-94729090D01*
X82105661Y-95189397D01*
X81782951Y-95625635D01*
X81479836Y-96036415D01*
X81197343Y-96420351D01*
X80936500Y-96776052D01*
X80698336Y-97102133D01*
X80692492Y-97110154D01*
X80494688Y-97380998D01*
X80318641Y-97620671D01*
X80163707Y-97830020D01*
X80029240Y-98009892D01*
X79914596Y-98161134D01*
X79819128Y-98284592D01*
X79742193Y-98381113D01*
X79683145Y-98451545D01*
X79641338Y-98496733D01*
X79624897Y-98511582D01*
X79509033Y-98589478D01*
X79380209Y-98653477D01*
X79266461Y-98691983D01*
X79238260Y-98695528D01*
X79183378Y-98698653D01*
X79100723Y-98701367D01*
X78989202Y-98703676D01*
X78847723Y-98705587D01*
X78675195Y-98707108D01*
X78470524Y-98708244D01*
X78232619Y-98709005D01*
X77960387Y-98709396D01*
X77652736Y-98709424D01*
X77308573Y-98709098D01*
X76926808Y-98708423D01*
X76785077Y-98708108D01*
X74391615Y-98702538D01*
X74264022Y-98642210D01*
X74101270Y-98545254D01*
X73964194Y-98419927D01*
X73851551Y-98264880D01*
X73775727Y-98112666D01*
X73698365Y-97922224D01*
X73611588Y-97699736D01*
X73517289Y-97450560D01*
X73417364Y-97180054D01*
X73313708Y-96893575D01*
X73208216Y-96596482D01*
X73102783Y-96294132D01*
X72999304Y-95991883D01*
X72899674Y-95695094D01*
X72805789Y-95409122D01*
X72719542Y-95139325D01*
X72685180Y-95029308D01*
X72650158Y-94916523D01*
X72606720Y-94777004D01*
X72558155Y-94621299D01*
X72507755Y-94459957D01*
X72458811Y-94303525D01*
X72441343Y-94247769D01*
X72352528Y-93964192D01*
X72274754Y-93715233D01*
X72207290Y-93498249D01*
X72149404Y-93310598D01*
X72100363Y-93149635D01*
X72059436Y-93012719D01*
X72025890Y-92897207D01*
X71998994Y-92800455D01*
X71978015Y-92719820D01*
X71962223Y-92652659D01*
X71950884Y-92596331D01*
X71943266Y-92548190D01*
X71938639Y-92505596D01*
X71936269Y-92465904D01*
X71935424Y-92426472D01*
X71935387Y-92420923D01*
X71942787Y-92276057D01*
X71968572Y-92140216D01*
X72015608Y-92005842D01*
X72086762Y-91865380D01*
X72184900Y-91711276D01*
X72227647Y-91650643D01*
X72272679Y-91589282D01*
X72338730Y-91500914D01*
X72422851Y-91389391D01*
X72522090Y-91258566D01*
X72633495Y-91112293D01*
X72754116Y-90954423D01*
X72881001Y-90788811D01*
X73011198Y-90619309D01*
X73141758Y-90449770D01*
X73269728Y-90284046D01*
X73392157Y-90125991D01*
X73506094Y-89979458D01*
X73590684Y-89871154D01*
X73678350Y-89759023D01*
X73783382Y-89624416D01*
X73899221Y-89475753D01*
X74019309Y-89321457D01*
X74137088Y-89169948D01*
X74237373Y-89040769D01*
X74368947Y-88871515D01*
X74510928Y-88689534D01*
X74661307Y-88497359D01*
X74818076Y-88297522D01*
X74979226Y-88092555D01*
X75142749Y-87884989D01*
X75306637Y-87677357D01*
X75468881Y-87472190D01*
X75627473Y-87272020D01*
X75780405Y-87079381D01*
X75925668Y-86896802D01*
X76061254Y-86726817D01*
X76185154Y-86571957D01*
X76295360Y-86434755D01*
X76389864Y-86317741D01*
X76466657Y-86223449D01*
X76523731Y-86154411D01*
X76559078Y-86113157D01*
X76562929Y-86108931D01*
X76595096Y-86071871D01*
X76610001Y-86045135D01*
X76603955Y-86027411D01*
X76573271Y-86017388D01*
X76514262Y-86013755D01*
X76423239Y-86015201D01*
X76311993Y-86019712D01*
X75727455Y-86063199D01*
X75161682Y-86140316D01*
X74612762Y-86251536D01*
X74078780Y-86397332D01*
X73557826Y-86578175D01*
X73047984Y-86794539D01*
X72909538Y-86860297D01*
X72410955Y-87123348D01*
X71936560Y-87416365D01*
X71485109Y-87740303D01*
X71055356Y-88096113D01*
X70646059Y-88484749D01*
X70293680Y-88863914D01*
X69950585Y-89283513D01*
X69641709Y-89721235D01*
X69366963Y-90177320D01*
X69126256Y-90652004D01*
X68919499Y-91145525D01*
X68746603Y-91658122D01*
X68607477Y-92190033D01*
X68502031Y-92741494D01*
X68430177Y-93312744D01*
X68391824Y-93904021D01*
X68391759Y-93905846D01*
X68214974Y-93905846D01*
X68215305Y-93885166D01*
X68220788Y-93688187D01*
X68228398Y-93502618D01*
X68237986Y-93336610D01*
X68249403Y-93198313D01*
X68254323Y-93153615D01*
X68334264Y-92613028D01*
X68440998Y-92097904D01*
X68575705Y-91604197D01*
X68739565Y-91127859D01*
X68933757Y-90664840D01*
X69051101Y-90420017D01*
X69131863Y-90260194D01*
X69201642Y-90126372D01*
X69265886Y-90009098D01*
X69330042Y-89898917D01*
X69399558Y-89786376D01*
X69479879Y-89662021D01*
X69541839Y-89568308D01*
X69867022Y-89114395D01*
X70221062Y-88686445D01*
X70603050Y-88285100D01*
X71012080Y-87910999D01*
X71447246Y-87564785D01*
X71907640Y-87247097D01*
X72392356Y-86958578D01*
X72900487Y-86699867D01*
X73431126Y-86471606D01*
X73983367Y-86274436D01*
X74362308Y-86160794D01*
X74830488Y-86047450D01*
X75326347Y-85959995D01*
X75850495Y-85898341D01*
X76397498Y-85862646D01*
X76516457Y-85858233D01*
X76603026Y-85856566D01*
X76663820Y-85858020D01*
G37*
D12*
%TO.C,R1*%
X93960000Y-106000000D02*
X94730000Y-106000000D01*
X102040000Y-106000000D02*
X101270000Y-106000000D01*
X94730000Y-104630000D02*
X101270000Y-104630000D01*
X101270000Y-107370000D01*
X94730000Y-107370000D01*
X94730000Y-104630000D01*
D15*
%TO.C,U2*%
X93975000Y-89255000D02*
X110025000Y-89255000D01*
X93975000Y-102585000D02*
X93975000Y-89255000D01*
X110025000Y-89255000D02*
X110025000Y-102585000D01*
X110025000Y-102585000D02*
X93975000Y-102585000D01*
D13*
%TO.C,J2*%
X92750000Y-81400000D02*
X99750000Y-81400000D01*
X92750000Y-82200000D02*
X92750000Y-81400000D01*
X92750000Y-82200000D02*
X99750000Y-82200000D01*
X92750000Y-88400000D02*
X92750000Y-82200000D01*
X99750000Y-81400000D02*
X99750000Y-82200000D01*
X99750000Y-82200000D02*
X99750000Y-88400000D01*
X99750000Y-88400000D02*
X92750000Y-88400000D01*
%TD*%
M02*
