%TF.GenerationSoftware,KiCad,Pcbnew,9.0.4*%
%TF.CreationDate,2026-03-01T14:56:35+01:00*%
%TF.ProjectId,PwmPump,50776d50-756d-4702-9e6b-696361645f70,rev?*%
%TF.SameCoordinates,Original*%
%TF.FileFunction,Copper,L1,Top*%
%TF.FilePolarity,Positive*%
%FSLAX46Y46*%
G04 Gerber Fmt 4.6, Leading zero omitted, Abs format (unit mm)*
G04 Created by KiCad (PCBNEW 9.0.4) date 2026-03-01 14:56:35*
%MOMM*%
%LPD*%
G01*
G04 APERTURE LIST*
%TA.AperFunction,ComponentPad*%
%ADD10R,1.800000X1.800000*%
%TD*%
%TA.AperFunction,ComponentPad*%
%ADD11C,1.800000*%
%TD*%
%TA.AperFunction,ComponentPad*%
%ADD12R,2.000000X2.000000*%
%TD*%
%TA.AperFunction,ComponentPad*%
%ADD13O,2.000000X1.600000*%
%TD*%
%TA.AperFunction,ComponentPad*%
%ADD14R,2.500000X2.500000*%
%TD*%
%TA.AperFunction,ComponentPad*%
%ADD15C,2.500000*%
%TD*%
%TA.AperFunction,ComponentPad*%
%ADD16C,1.600000*%
%TD*%
%TA.AperFunction,ComponentPad*%
%ADD17C,1.524000*%
%TD*%
%TA.AperFunction,ComponentPad*%
%ADD18R,1.524000X1.524000*%
%TD*%
%TA.AperFunction,Conductor*%
%ADD19C,0.200000*%
%TD*%
G04 APERTURE END LIST*
D10*
%TO.P,D1,1,K*%
%TO.N,GND*%
X109000000Y-106000000D03*
D11*
%TO.P,D1,2,A*%
%TO.N,Net-(D1-A)*%
X106460000Y-106000000D03*
%TD*%
D12*
%TO.P,U1,1,EN*%
%TO.N,unconnected-(U1-EN-Pad1)*%
X66140000Y-81220000D03*
D13*
%TO.P,U1,2,D3*%
%TO.N,Net-(U1-D3)*%
X66140000Y-83760000D03*
%TO.P,U1,3,D2*%
%TO.N,OLED_SDA*%
X66140000Y-86300000D03*
%TO.P,U1,4,D1*%
%TO.N,OLED_SCL*%
X66140000Y-88840000D03*
%TO.P,U1,5,D0*%
%TO.N,Net-(U1-D0)*%
X66140000Y-91380000D03*
%TO.P,U1,6,D4*%
%TO.N,Net-(U1-D4)*%
X66140000Y-93920000D03*
%TO.P,U1,7,D5*%
%TO.N,EC11_B*%
X66140000Y-96460000D03*
%TO.P,U1,8,3V3*%
%TO.N,+3.3V*%
X66140000Y-99000000D03*
%TO.P,U1,9,VBus*%
%TO.N,+5V*%
X89000000Y-99000000D03*
%TO.P,U1,10,GND*%
%TO.N,GND*%
X89000000Y-96460000D03*
%TO.P,U1,11,D6*%
%TO.N,EC11_A*%
X89000000Y-93920000D03*
%TO.P,U1,12,D7*%
%TO.N,EC11_BTN*%
X89000000Y-91380000D03*
%TO.P,U1,13,D8*%
%TO.N,unconnected-(U1-D8-Pad13)*%
X89000000Y-88840000D03*
%TO.P,U1,14,D10*%
%TO.N,Net-(J2-Pin_1)*%
X89000000Y-86300000D03*
%TO.P,U1,15,RX*%
%TO.N,unconnected-(U1-RX-Pad15)*%
X89000000Y-83760000D03*
%TO.P,U1,16,TX*%
%TO.N,unconnected-(U1-TX-Pad16)*%
X89000000Y-81220000D03*
%TD*%
D14*
%TO.P,J1,1,Pin_1*%
%TO.N,GND*%
X109000000Y-85000000D03*
D15*
%TO.P,J1,2,Pin_2*%
%TO.N,Net-(J1-Pin_2)*%
X105500000Y-85000000D03*
%TO.P,J1,3,Pin_3*%
%TO.N,Net-(J1-Pin_3)*%
X102000000Y-85000000D03*
%TD*%
D16*
%TO.P,R1,1*%
%TO.N,Net-(U1-D3)*%
X92920000Y-106000000D03*
%TO.P,R1,2*%
%TO.N,Net-(D1-A)*%
X103080000Y-106000000D03*
%TD*%
D17*
%TO.P,U2,GND_1,GND*%
%TO.N,GND*%
X103270000Y-90840000D03*
%TO.P,U2,GND_2,GND__1*%
X103270000Y-101000000D03*
%TO.P,U2,HV,HV*%
%TO.N,+5V*%
X100730000Y-90840000D03*
D18*
%TO.P,U2,HV1,HV1*%
%TO.N,Net-(J1-Pin_3)*%
X95650000Y-90840000D03*
D17*
%TO.P,U2,HV2,HV2*%
%TO.N,Net-(J1-Pin_2)*%
X98190000Y-90840000D03*
%TO.P,U2,HV3,HV3*%
%TO.N,unconnected-(U2-PadHV3)*%
X105810000Y-90840000D03*
%TO.P,U2,HV4,HV4*%
%TO.N,unconnected-(U2-PadHV4)*%
X108350000Y-90840000D03*
%TO.P,U2,LV,LV*%
%TO.N,+3.3V*%
X100730000Y-101000000D03*
D18*
%TO.P,U2,LV1,LV1*%
%TO.N,Net-(U1-D0)*%
X95650000Y-101000000D03*
D17*
%TO.P,U2,LV2,LV2*%
%TO.N,Net-(U1-D4)*%
X98190000Y-101000000D03*
%TO.P,U2,LV3,LV3*%
%TO.N,unconnected-(U2-PadLV3)*%
X105810000Y-101000000D03*
%TO.P,U2,LV4,LV4*%
%TO.N,unconnected-(U2-PadLV4)*%
X108350000Y-101000000D03*
%TD*%
D14*
%TO.P,J2,1,Pin_1*%
%TO.N,Net-(J2-Pin_1)*%
X98000000Y-85000000D03*
D15*
%TO.P,J2,2,Pin_2*%
%TO.N,+3.3V*%
X94500000Y-85000000D03*
%TD*%
D19*
%TO.N,Net-(U1-D3)*%
X88379999Y-106000000D02*
X92920000Y-106000000D01*
%TO.N,Net-(D1-A)*%
X103080000Y-106000000D02*
X106460000Y-106000000D01*
%TO.N,Net-(J1-Pin_2)*%
X103500000Y-87000000D02*
X105500000Y-85000000D01*
X102030000Y-87000000D02*
X103500000Y-87000000D01*
X98190000Y-90840000D02*
X102030000Y-87000000D01*
%TO.N,Net-(J1-Pin_3)*%
X99462900Y-89000000D02*
X98000000Y-89000000D01*
X102000000Y-85000000D02*
X102000000Y-86462900D01*
X96160000Y-90840000D02*
X95650000Y-90840000D01*
X102000000Y-86462900D02*
X99462900Y-89000000D01*
X98000000Y-89000000D02*
X96160000Y-90840000D01*
%TO.N,Net-(J2-Pin_1)*%
X89000000Y-86300000D02*
X92300000Y-83000000D01*
X96000000Y-83000000D02*
X98000000Y-85000000D01*
X92300000Y-83000000D02*
X96000000Y-83000000D01*
%TO.N,Net-(U1-D3)*%
X66140000Y-83760000D02*
X88379999Y-106000000D01*
%TO.N,+5V*%
X92570000Y-99000000D02*
X100730000Y-90840000D01*
X89000000Y-99000000D02*
X92570000Y-99000000D01*
%TO.N,Net-(U1-D0)*%
X66140000Y-91380000D02*
X72380000Y-91380000D01*
X89000000Y-108000000D02*
X94000000Y-108000000D01*
X95650000Y-106350000D02*
X95650000Y-101000000D01*
X72380000Y-91380000D02*
X89000000Y-108000000D01*
X94000000Y-108000000D02*
X95650000Y-106350000D01*
%TO.N,Net-(U1-D4)*%
X68060000Y-92000000D02*
X72000000Y-92000000D01*
X66140000Y-93920000D02*
X68060000Y-92000000D01*
X88401000Y-108401000D02*
X94166100Y-108401000D01*
X72000000Y-92000000D02*
X88401000Y-108401000D01*
X94166100Y-108401000D02*
X96051000Y-106516100D01*
X96051000Y-106516100D02*
X96051000Y-103139000D01*
X96051000Y-103139000D02*
X98190000Y-101000000D01*
%TD*%
%TA.AperFunction,Conductor*%
%TO.N,GND*%
G36*
X109808363Y-72520185D02*
G01*
X109829005Y-72536819D01*
X112463181Y-75170995D01*
X112496666Y-75232318D01*
X112499500Y-75258676D01*
X112499500Y-105741324D01*
X112479815Y-105808363D01*
X112463181Y-105829005D01*
X108829005Y-109463181D01*
X108767682Y-109496666D01*
X108741324Y-109499500D01*
X67258675Y-109499500D01*
X67191636Y-109479815D01*
X67170994Y-109463181D01*
X63536819Y-105829005D01*
X63503334Y-105767682D01*
X63500500Y-105741324D01*
X63500500Y-80124000D01*
X63520185Y-80056961D01*
X63572989Y-80011206D01*
X63624500Y-80000000D01*
X64519960Y-80000000D01*
X64586999Y-80019685D01*
X64632754Y-80072489D01*
X64643249Y-80137252D01*
X64639500Y-80172127D01*
X64639500Y-80172134D01*
X64639500Y-80172135D01*
X64639500Y-82267870D01*
X64639501Y-82267876D01*
X64645908Y-82327483D01*
X64696202Y-82462328D01*
X64696206Y-82462335D01*
X64782452Y-82577544D01*
X64782455Y-82577547D01*
X64897664Y-82663793D01*
X64897673Y-82663798D01*
X64934914Y-82677688D01*
X64990848Y-82719559D01*
X65015266Y-82785023D01*
X65000415Y-82853296D01*
X64979265Y-82881550D01*
X64948027Y-82912787D01*
X64827715Y-83078386D01*
X64734781Y-83260776D01*
X64671522Y-83455465D01*
X64639500Y-83657648D01*
X64639500Y-83862351D01*
X64671522Y-84064534D01*
X64734781Y-84259223D01*
X64783987Y-84355794D01*
X64824912Y-84436113D01*
X64827715Y-84441613D01*
X64948028Y-84607213D01*
X65092786Y-84751971D01*
X65247749Y-84864556D01*
X65258390Y-84872287D01*
X65349840Y-84918883D01*
X65351080Y-84919515D01*
X65401876Y-84967490D01*
X65418671Y-85035311D01*
X65396134Y-85101446D01*
X65351080Y-85140485D01*
X65258386Y-85187715D01*
X65092786Y-85308028D01*
X64948028Y-85452786D01*
X64827715Y-85618386D01*
X64734781Y-85800776D01*
X64671522Y-85995465D01*
X64639500Y-86197648D01*
X64639500Y-86402351D01*
X64671522Y-86604534D01*
X64734781Y-86799223D01*
X64827715Y-86981613D01*
X64948028Y-87147213D01*
X65092786Y-87291971D01*
X65198419Y-87368716D01*
X65258390Y-87412287D01*
X65349840Y-87458883D01*
X65351080Y-87459515D01*
X65401876Y-87507490D01*
X65418671Y-87575311D01*
X65396134Y-87641446D01*
X65351080Y-87680485D01*
X65258386Y-87727715D01*
X65092786Y-87848028D01*
X64948028Y-87992786D01*
X64827715Y-88158386D01*
X64734781Y-88340776D01*
X64671522Y-88535465D01*
X64639500Y-88737648D01*
X64639500Y-88942351D01*
X64671522Y-89144534D01*
X64734781Y-89339223D01*
X64827715Y-89521613D01*
X64948028Y-89687213D01*
X65092786Y-89831971D01*
X65247749Y-89944556D01*
X65258390Y-89952287D01*
X65349840Y-89998883D01*
X65351080Y-89999515D01*
X65401876Y-90047490D01*
X65418671Y-90115311D01*
X65396134Y-90181446D01*
X65351080Y-90220485D01*
X65258386Y-90267715D01*
X65092786Y-90388028D01*
X64948028Y-90532786D01*
X64827715Y-90698386D01*
X64734781Y-90880776D01*
X64671522Y-91075465D01*
X64651647Y-91200954D01*
X64639500Y-91277648D01*
X64639500Y-91482352D01*
X64642043Y-91498405D01*
X64671522Y-91684534D01*
X64734781Y-91879223D01*
X64775709Y-91959547D01*
X64821894Y-92050190D01*
X64827715Y-92061613D01*
X64948028Y-92227213D01*
X65092786Y-92371971D01*
X65247749Y-92484556D01*
X65258390Y-92492287D01*
X65349840Y-92538883D01*
X65351080Y-92539515D01*
X65401876Y-92587490D01*
X65418671Y-92655311D01*
X65396134Y-92721446D01*
X65351080Y-92760485D01*
X65258386Y-92807715D01*
X65092786Y-92928028D01*
X64948028Y-93072786D01*
X64827715Y-93238386D01*
X64734781Y-93420776D01*
X64671522Y-93615465D01*
X64639500Y-93817648D01*
X64639500Y-94022351D01*
X64671522Y-94224534D01*
X64734781Y-94419223D01*
X64827715Y-94601613D01*
X64948028Y-94767213D01*
X65092786Y-94911971D01*
X65247749Y-95024556D01*
X65258390Y-95032287D01*
X65349840Y-95078883D01*
X65351080Y-95079515D01*
X65401876Y-95127490D01*
X65418671Y-95195311D01*
X65396134Y-95261446D01*
X65351080Y-95300485D01*
X65258386Y-95347715D01*
X65092786Y-95468028D01*
X64948028Y-95612786D01*
X64827715Y-95778386D01*
X64734781Y-95960776D01*
X64671522Y-96155465D01*
X64639500Y-96357648D01*
X64639500Y-96562351D01*
X64671522Y-96764534D01*
X64734781Y-96959223D01*
X64827715Y-97141613D01*
X64948028Y-97307213D01*
X65092786Y-97451971D01*
X65247749Y-97564556D01*
X65258390Y-97572287D01*
X65349840Y-97618883D01*
X65351080Y-97619515D01*
X65401876Y-97667490D01*
X65418671Y-97735311D01*
X65396134Y-97801446D01*
X65351080Y-97840485D01*
X65258386Y-97887715D01*
X65092786Y-98008028D01*
X64948028Y-98152786D01*
X64827715Y-98318386D01*
X64734781Y-98500776D01*
X64671522Y-98695465D01*
X64639500Y-98897648D01*
X64639500Y-99102351D01*
X64671522Y-99304534D01*
X64734781Y-99499223D01*
X64827715Y-99681613D01*
X64948028Y-99847213D01*
X65092786Y-99991971D01*
X65247749Y-100104556D01*
X65258390Y-100112287D01*
X65374607Y-100171503D01*
X65440776Y-100205218D01*
X65440778Y-100205218D01*
X65440781Y-100205220D01*
X65513359Y-100228802D01*
X65635465Y-100268477D01*
X65736557Y-100284488D01*
X65837648Y-100300500D01*
X65837649Y-100300500D01*
X66442351Y-100300500D01*
X66442352Y-100300500D01*
X66644534Y-100268477D01*
X66839219Y-100205220D01*
X67021610Y-100112287D01*
X67125208Y-100037019D01*
X67187213Y-99991971D01*
X67187215Y-99991968D01*
X67187219Y-99991966D01*
X67331966Y-99847219D01*
X67331968Y-99847215D01*
X67331971Y-99847213D01*
X67407025Y-99743908D01*
X67452287Y-99681610D01*
X67545220Y-99499219D01*
X67608477Y-99304534D01*
X67640500Y-99102352D01*
X67640500Y-98897648D01*
X67608477Y-98695466D01*
X67545220Y-98500781D01*
X67545218Y-98500778D01*
X67545218Y-98500776D01*
X67511503Y-98434607D01*
X67452287Y-98318390D01*
X67444556Y-98307749D01*
X67331971Y-98152786D01*
X67187213Y-98008028D01*
X67021614Y-97887715D01*
X67015006Y-97884348D01*
X66928917Y-97840483D01*
X66878123Y-97792511D01*
X66861328Y-97724690D01*
X66883865Y-97658555D01*
X66928917Y-97619516D01*
X67021610Y-97572287D01*
X67042770Y-97556913D01*
X67187213Y-97451971D01*
X67187215Y-97451968D01*
X67187219Y-97451966D01*
X67331966Y-97307219D01*
X67331968Y-97307215D01*
X67331971Y-97307213D01*
X67384732Y-97234590D01*
X67452287Y-97141610D01*
X67545220Y-96959219D01*
X67608477Y-96764534D01*
X67640500Y-96562352D01*
X67640500Y-96357648D01*
X67629200Y-96286306D01*
X67608477Y-96155465D01*
X67579127Y-96065137D01*
X67545220Y-95960781D01*
X67545218Y-95960778D01*
X67545218Y-95960776D01*
X67452419Y-95778650D01*
X67452287Y-95778390D01*
X67444556Y-95767749D01*
X67331971Y-95612786D01*
X67187213Y-95468028D01*
X67021614Y-95347715D01*
X67015006Y-95344348D01*
X66928917Y-95300483D01*
X66878123Y-95252511D01*
X66861328Y-95184690D01*
X66883865Y-95118555D01*
X66928917Y-95079516D01*
X67021610Y-95032287D01*
X67042770Y-95016913D01*
X67187213Y-94911971D01*
X67187215Y-94911968D01*
X67187219Y-94911966D01*
X67331966Y-94767219D01*
X67331968Y-94767215D01*
X67331971Y-94767213D01*
X67384732Y-94694590D01*
X67452287Y-94601610D01*
X67545220Y-94419219D01*
X67608477Y-94224534D01*
X67640500Y-94022352D01*
X67640500Y-93817648D01*
X67608477Y-93615466D01*
X67608476Y-93615462D01*
X67608476Y-93615461D01*
X67554780Y-93450202D01*
X67552785Y-93380361D01*
X67585028Y-93324205D01*
X68272416Y-92636819D01*
X68333739Y-92603334D01*
X68360097Y-92600500D01*
X71699903Y-92600500D01*
X71766942Y-92620185D01*
X71787583Y-92636818D01*
X88032284Y-108881520D01*
X88032286Y-108881521D01*
X88032290Y-108881524D01*
X88169209Y-108960573D01*
X88169216Y-108960577D01*
X88321943Y-109001501D01*
X88321945Y-109001501D01*
X88487654Y-109001501D01*
X88487670Y-109001500D01*
X94079431Y-109001500D01*
X94079447Y-109001501D01*
X94087043Y-109001501D01*
X94245154Y-109001501D01*
X94245157Y-109001501D01*
X94397885Y-108960577D01*
X94448004Y-108931639D01*
X94534816Y-108881520D01*
X94646620Y-108769716D01*
X94646620Y-108769714D01*
X94656828Y-108759507D01*
X94656830Y-108759504D01*
X96419713Y-106996621D01*
X96419716Y-106996620D01*
X96531520Y-106884816D01*
X96581639Y-106798004D01*
X96610577Y-106747885D01*
X96651500Y-106595157D01*
X96651500Y-106437043D01*
X96651500Y-105897648D01*
X101779500Y-105897648D01*
X101779500Y-106102351D01*
X101811522Y-106304534D01*
X101874781Y-106499223D01*
X101923662Y-106595155D01*
X101960882Y-106668204D01*
X101967715Y-106681613D01*
X102088028Y-106847213D01*
X102232786Y-106991971D01*
X102387749Y-107104556D01*
X102398390Y-107112287D01*
X102514607Y-107171503D01*
X102580776Y-107205218D01*
X102580778Y-107205218D01*
X102580781Y-107205220D01*
X102604695Y-107212990D01*
X102775465Y-107268477D01*
X102876557Y-107284488D01*
X102977648Y-107300500D01*
X102977649Y-107300500D01*
X103182351Y-107300500D01*
X103182352Y-107300500D01*
X103384534Y-107268477D01*
X103579219Y-107205220D01*
X103761610Y-107112287D01*
X103906005Y-107007379D01*
X103927213Y-106991971D01*
X103927215Y-106991968D01*
X103927219Y-106991966D01*
X104071966Y-106847219D01*
X104071968Y-106847215D01*
X104071971Y-106847213D01*
X104192284Y-106681614D01*
X104192285Y-106681613D01*
X104192287Y-106681610D01*
X104199117Y-106668204D01*
X104247091Y-106617409D01*
X104309602Y-106600500D01*
X105118164Y-106600500D01*
X105185203Y-106620185D01*
X105228648Y-106668204D01*
X105262185Y-106734023D01*
X105391752Y-106912358D01*
X105391756Y-106912363D01*
X105547636Y-107068243D01*
X105547641Y-107068247D01*
X105680832Y-107165015D01*
X105725978Y-107197815D01*
X105842501Y-107257187D01*
X105922393Y-107297895D01*
X105922396Y-107297896D01*
X106012005Y-107327011D01*
X106132049Y-107366015D01*
X106349778Y-107400500D01*
X106349779Y-107400500D01*
X106570221Y-107400500D01*
X106570222Y-107400500D01*
X106787951Y-107366015D01*
X106997606Y-107297895D01*
X107194022Y-107197815D01*
X107372365Y-107068242D01*
X107422924Y-107017682D01*
X107484245Y-106984198D01*
X107553936Y-106989182D01*
X107609870Y-107031053D01*
X107626786Y-107062030D01*
X107656646Y-107142087D01*
X107656649Y-107142093D01*
X107742809Y-107257187D01*
X107742812Y-107257190D01*
X107857906Y-107343350D01*
X107857913Y-107343354D01*
X107992620Y-107393596D01*
X107992627Y-107393598D01*
X108052155Y-107399999D01*
X108052172Y-107400000D01*
X108750000Y-107400000D01*
X108750000Y-106375277D01*
X108826306Y-106419333D01*
X108940756Y-106450000D01*
X109059244Y-106450000D01*
X109173694Y-106419333D01*
X109250000Y-106375277D01*
X109250000Y-107400000D01*
X109947828Y-107400000D01*
X109947844Y-107399999D01*
X110007372Y-107393598D01*
X110007379Y-107393596D01*
X110142086Y-107343354D01*
X110142093Y-107343350D01*
X110257187Y-107257190D01*
X110257190Y-107257187D01*
X110343350Y-107142093D01*
X110343354Y-107142086D01*
X110393596Y-107007379D01*
X110393598Y-107007372D01*
X110399999Y-106947844D01*
X110400000Y-106947827D01*
X110400000Y-106250000D01*
X109375278Y-106250000D01*
X109419333Y-106173694D01*
X109450000Y-106059244D01*
X109450000Y-105940756D01*
X109419333Y-105826306D01*
X109375278Y-105750000D01*
X110400000Y-105750000D01*
X110400000Y-105052172D01*
X110399999Y-105052155D01*
X110393598Y-104992627D01*
X110393596Y-104992620D01*
X110343354Y-104857913D01*
X110343350Y-104857906D01*
X110257190Y-104742812D01*
X110257187Y-104742809D01*
X110142093Y-104656649D01*
X110142086Y-104656645D01*
X110007379Y-104606403D01*
X110007372Y-104606401D01*
X109947844Y-104600000D01*
X109250000Y-104600000D01*
X109250000Y-105624722D01*
X109173694Y-105580667D01*
X109059244Y-105550000D01*
X108940756Y-105550000D01*
X108826306Y-105580667D01*
X108750000Y-105624722D01*
X108750000Y-104600000D01*
X108052155Y-104600000D01*
X107992627Y-104606401D01*
X107992620Y-104606403D01*
X107857913Y-104656645D01*
X107857906Y-104656649D01*
X107742812Y-104742809D01*
X107742809Y-104742812D01*
X107656649Y-104857906D01*
X107656643Y-104857918D01*
X107626785Y-104937969D01*
X107584914Y-104993903D01*
X107519449Y-105018319D01*
X107451176Y-105003467D01*
X107422923Y-104982316D01*
X107372363Y-104931756D01*
X107372358Y-104931752D01*
X107194025Y-104802187D01*
X107194024Y-104802186D01*
X107194022Y-104802185D01*
X107131096Y-104770122D01*
X106997606Y-104702104D01*
X106997603Y-104702103D01*
X106787952Y-104633985D01*
X106679086Y-104616742D01*
X106570222Y-104599500D01*
X106349778Y-104599500D01*
X106277201Y-104610995D01*
X106132047Y-104633985D01*
X105922396Y-104702103D01*
X105922393Y-104702104D01*
X105725974Y-104802187D01*
X105547641Y-104931752D01*
X105547636Y-104931756D01*
X105391756Y-105087636D01*
X105391752Y-105087641D01*
X105262185Y-105265976D01*
X105228648Y-105331796D01*
X105180674Y-105382591D01*
X105118164Y-105399500D01*
X104309602Y-105399500D01*
X104242563Y-105379815D01*
X104199117Y-105331795D01*
X104192284Y-105318385D01*
X104071971Y-105152786D01*
X103927213Y-105008028D01*
X103761613Y-104887715D01*
X103761612Y-104887714D01*
X103761610Y-104887713D01*
X103703111Y-104857906D01*
X103579223Y-104794781D01*
X103384534Y-104731522D01*
X103198799Y-104702105D01*
X103182352Y-104699500D01*
X102977648Y-104699500D01*
X102961201Y-104702105D01*
X102775465Y-104731522D01*
X102580776Y-104794781D01*
X102398386Y-104887715D01*
X102232786Y-105008028D01*
X102088028Y-105152786D01*
X101967715Y-105318386D01*
X101874781Y-105500776D01*
X101811522Y-105695465D01*
X101779500Y-105897648D01*
X96651500Y-105897648D01*
X96651500Y-103439096D01*
X96671185Y-103372057D01*
X96687814Y-103351419D01*
X97775472Y-102263761D01*
X97836795Y-102230277D01*
X97889521Y-102230842D01*
X97889552Y-102230651D01*
X97890849Y-102230856D01*
X97892104Y-102230870D01*
X97894358Y-102231411D01*
X97894364Y-102231413D01*
X98090639Y-102262500D01*
X98090640Y-102262500D01*
X98289360Y-102262500D01*
X98289361Y-102262500D01*
X98485636Y-102231413D01*
X98674632Y-102170005D01*
X98851694Y-102079787D01*
X99012464Y-101962981D01*
X99152981Y-101822464D01*
X99269787Y-101661694D01*
X99349515Y-101505218D01*
X99397490Y-101454423D01*
X99465311Y-101437628D01*
X99531446Y-101460165D01*
X99570484Y-101505218D01*
X99650213Y-101661694D01*
X99767019Y-101822464D01*
X99907536Y-101962981D01*
X100068306Y-102079787D01*
X100146333Y-102119544D01*
X100245367Y-102170005D01*
X100245370Y-102170006D01*
X100339866Y-102200709D01*
X100434364Y-102231413D01*
X100630639Y-102262500D01*
X100630640Y-102262500D01*
X100829360Y-102262500D01*
X100829361Y-102262500D01*
X101025636Y-102231413D01*
X101214632Y-102170005D01*
X101391694Y-102079787D01*
X101552464Y-101962981D01*
X101692981Y-101822464D01*
X101809787Y-101661694D01*
X101889796Y-101504667D01*
X101937769Y-101453872D01*
X102005590Y-101437077D01*
X102071725Y-101459614D01*
X102110765Y-101504668D01*
X102190641Y-101661432D01*
X102217730Y-101698715D01*
X102217731Y-101698716D01*
X102780504Y-101135942D01*
X102796619Y-101196081D01*
X102863498Y-101311920D01*
X102958080Y-101406502D01*
X103073919Y-101473381D01*
X103134057Y-101489494D01*
X102571283Y-102052268D01*
X102571283Y-102052269D01*
X102608567Y-102079358D01*
X102785562Y-102169542D01*
X102974477Y-102230924D01*
X103170679Y-102262000D01*
X103369321Y-102262000D01*
X103565520Y-102230924D01*
X103565523Y-102230924D01*
X103754437Y-102169542D01*
X103931425Y-102079362D01*
X103968716Y-102052268D01*
X103405942Y-101489494D01*
X103466081Y-101473381D01*
X103581920Y-101406502D01*
X103676502Y-101311920D01*
X103743381Y-101196081D01*
X103759495Y-101135942D01*
X104322268Y-101698715D01*
X104349364Y-101661422D01*
X104429234Y-101504669D01*
X104477208Y-101453872D01*
X104545029Y-101437077D01*
X104611164Y-101459614D01*
X104650203Y-101504667D01*
X104730213Y-101661694D01*
X104847019Y-101822464D01*
X104987536Y-101962981D01*
X105148306Y-102079787D01*
X105226333Y-102119544D01*
X105325367Y-102170005D01*
X105325370Y-102170006D01*
X105419866Y-102200709D01*
X105514364Y-102231413D01*
X105710639Y-102262500D01*
X105710640Y-102262500D01*
X105909360Y-102262500D01*
X105909361Y-102262500D01*
X106105636Y-102231413D01*
X106294632Y-102170005D01*
X106471694Y-102079787D01*
X106632464Y-101962981D01*
X106772981Y-101822464D01*
X106889787Y-101661694D01*
X106969515Y-101505218D01*
X107017490Y-101454423D01*
X107085311Y-101437628D01*
X107151446Y-101460165D01*
X107190484Y-101505218D01*
X107270213Y-101661694D01*
X107387019Y-101822464D01*
X107527536Y-101962981D01*
X107688306Y-102079787D01*
X107766333Y-102119544D01*
X107865367Y-102170005D01*
X107865370Y-102170006D01*
X107959866Y-102200709D01*
X108054364Y-102231413D01*
X108250639Y-102262500D01*
X108250640Y-102262500D01*
X108449360Y-102262500D01*
X108449361Y-102262500D01*
X108645636Y-102231413D01*
X108834632Y-102170005D01*
X109011694Y-102079787D01*
X109172464Y-101962981D01*
X109312981Y-101822464D01*
X109429787Y-101661694D01*
X109520005Y-101484632D01*
X109581413Y-101295636D01*
X109612500Y-101099361D01*
X109612500Y-100900639D01*
X109581413Y-100704364D01*
X109520005Y-100515368D01*
X109520005Y-100515367D01*
X109474035Y-100425149D01*
X109429787Y-100338306D01*
X109312981Y-100177536D01*
X109172464Y-100037019D01*
X109011694Y-99920213D01*
X108834632Y-99829994D01*
X108834629Y-99829993D01*
X108645637Y-99768587D01*
X108547498Y-99753043D01*
X108449361Y-99737500D01*
X108250639Y-99737500D01*
X108185214Y-99747862D01*
X108054362Y-99768587D01*
X107865370Y-99829993D01*
X107865367Y-99829994D01*
X107688305Y-99920213D01*
X107527533Y-100037021D01*
X107387021Y-100177533D01*
X107270213Y-100338305D01*
X107190485Y-100494780D01*
X107142510Y-100545576D01*
X107074689Y-100562371D01*
X107008554Y-100539833D01*
X106969515Y-100494780D01*
X106950179Y-100456832D01*
X106889787Y-100338306D01*
X106772981Y-100177536D01*
X106632464Y-100037019D01*
X106471694Y-99920213D01*
X106294632Y-99829994D01*
X106294629Y-99829993D01*
X106105637Y-99768587D01*
X106007498Y-99753043D01*
X105909361Y-99737500D01*
X105710639Y-99737500D01*
X105645214Y-99747862D01*
X105514362Y-99768587D01*
X105325370Y-99829993D01*
X105325367Y-99829994D01*
X105148305Y-99920213D01*
X104987533Y-100037021D01*
X104847021Y-100177533D01*
X104730213Y-100338305D01*
X104650204Y-100495331D01*
X104602229Y-100546127D01*
X104534408Y-100562922D01*
X104468273Y-100540384D01*
X104429234Y-100495331D01*
X104349358Y-100338567D01*
X104322268Y-100301283D01*
X103759494Y-100864057D01*
X103743381Y-100803919D01*
X103676502Y-100688080D01*
X103581920Y-100593498D01*
X103466081Y-100526619D01*
X103405942Y-100510504D01*
X103968716Y-99947731D01*
X103968715Y-99947730D01*
X103931432Y-99920641D01*
X103754437Y-99830457D01*
X103565522Y-99769075D01*
X103369321Y-99738000D01*
X103170679Y-99738000D01*
X102974479Y-99769075D01*
X102974476Y-99769075D01*
X102785562Y-99830457D01*
X102608564Y-99920643D01*
X102571283Y-99947729D01*
X102571282Y-99947730D01*
X103134058Y-100510504D01*
X103073919Y-100526619D01*
X102958080Y-100593498D01*
X102863498Y-100688080D01*
X102796619Y-100803919D01*
X102780504Y-100864057D01*
X102217730Y-100301282D01*
X102217729Y-100301283D01*
X102190641Y-100338566D01*
X102110764Y-100495332D01*
X102062790Y-100546127D01*
X101994969Y-100562922D01*
X101928834Y-100540384D01*
X101889796Y-100495332D01*
X101809787Y-100338306D01*
X101692981Y-100177536D01*
X101552464Y-100037019D01*
X101391694Y-99920213D01*
X101214632Y-99829994D01*
X101214629Y-99829993D01*
X101025637Y-99768587D01*
X100927498Y-99753043D01*
X100829361Y-99737500D01*
X100630639Y-99737500D01*
X100565214Y-99747862D01*
X100434362Y-99768587D01*
X100245370Y-99829993D01*
X100245367Y-99829994D01*
X100068305Y-99920213D01*
X99907533Y-100037021D01*
X99767021Y-100177533D01*
X99650213Y-100338305D01*
X99570485Y-100494780D01*
X99522510Y-100545576D01*
X99454689Y-100562371D01*
X99388554Y-100539833D01*
X99349515Y-100494780D01*
X99330179Y-100456832D01*
X99269787Y-100338306D01*
X99152981Y-100177536D01*
X99012464Y-100037019D01*
X98851694Y-99920213D01*
X98674632Y-99829994D01*
X98674629Y-99829993D01*
X98485637Y-99768587D01*
X98387498Y-99753043D01*
X98289361Y-99737500D01*
X98090639Y-99737500D01*
X98025214Y-99747862D01*
X97894362Y-99768587D01*
X97705370Y-99829993D01*
X97705367Y-99829994D01*
X97528305Y-99920213D01*
X97367533Y-100037021D01*
X97227021Y-100177533D01*
X97227021Y-100177534D01*
X97227019Y-100177536D01*
X97189772Y-100228802D01*
X97136817Y-100301688D01*
X97081487Y-100344353D01*
X97011873Y-100350332D01*
X96950078Y-100317726D01*
X96915721Y-100256887D01*
X96912499Y-100228802D01*
X96912499Y-100190129D01*
X96912498Y-100190123D01*
X96912497Y-100190116D01*
X96906091Y-100130517D01*
X96871219Y-100037021D01*
X96855797Y-99995671D01*
X96855793Y-99995664D01*
X96769547Y-99880455D01*
X96769544Y-99880452D01*
X96654335Y-99794206D01*
X96654328Y-99794202D01*
X96519482Y-99743908D01*
X96519483Y-99743908D01*
X96459883Y-99737501D01*
X96459881Y-99737500D01*
X96459873Y-99737500D01*
X96459864Y-99737500D01*
X94840129Y-99737500D01*
X94840123Y-99737501D01*
X94780516Y-99743908D01*
X94645671Y-99794202D01*
X94645664Y-99794206D01*
X94530455Y-99880452D01*
X94530452Y-99880455D01*
X94444206Y-99995664D01*
X94444202Y-99995671D01*
X94393908Y-100130517D01*
X94387501Y-100190116D01*
X94387501Y-100190123D01*
X94387500Y-100190135D01*
X94387500Y-101809870D01*
X94387501Y-101809876D01*
X94393908Y-101869483D01*
X94444202Y-102004328D01*
X94444206Y-102004335D01*
X94530452Y-102119544D01*
X94530455Y-102119547D01*
X94645664Y-102205793D01*
X94645671Y-102205797D01*
X94657447Y-102210189D01*
X94780517Y-102256091D01*
X94840127Y-102262500D01*
X94925501Y-102262499D01*
X94992538Y-102282183D01*
X95038294Y-102334986D01*
X95049500Y-102386499D01*
X95049500Y-106049903D01*
X95029815Y-106116942D01*
X95013181Y-106137584D01*
X93787584Y-107363181D01*
X93726261Y-107396666D01*
X93699903Y-107399500D01*
X93554421Y-107399500D01*
X93487382Y-107379815D01*
X93441627Y-107327011D01*
X93431683Y-107257853D01*
X93460708Y-107194297D01*
X93498126Y-107165015D01*
X93509785Y-107159073D01*
X93601610Y-107112287D01*
X93746005Y-107007379D01*
X93767213Y-106991971D01*
X93767215Y-106991968D01*
X93767219Y-106991966D01*
X93911966Y-106847219D01*
X93911968Y-106847215D01*
X93911971Y-106847213D01*
X93984136Y-106747885D01*
X94032287Y-106681610D01*
X94125220Y-106499219D01*
X94188477Y-106304534D01*
X94220500Y-106102352D01*
X94220500Y-105897648D01*
X94188477Y-105695465D01*
X94159127Y-105605137D01*
X94125220Y-105500781D01*
X94125218Y-105500778D01*
X94125218Y-105500776D01*
X94091503Y-105434607D01*
X94032287Y-105318390D01*
X93994208Y-105265978D01*
X93911971Y-105152786D01*
X93767213Y-105008028D01*
X93601613Y-104887715D01*
X93601612Y-104887714D01*
X93601610Y-104887713D01*
X93543111Y-104857906D01*
X93419223Y-104794781D01*
X93224534Y-104731522D01*
X93038799Y-104702105D01*
X93022352Y-104699500D01*
X92817648Y-104699500D01*
X92801201Y-104702105D01*
X92615465Y-104731522D01*
X92420776Y-104794781D01*
X92238386Y-104887715D01*
X92072786Y-105008028D01*
X91928028Y-105152786D01*
X91807715Y-105318385D01*
X91800883Y-105331795D01*
X91752909Y-105382591D01*
X91690398Y-105399500D01*
X88680096Y-105399500D01*
X88613057Y-105379815D01*
X88592415Y-105363181D01*
X82209691Y-98980457D01*
X77996453Y-94767219D01*
X67585029Y-84355794D01*
X67551544Y-84294471D01*
X67554778Y-84229800D01*
X67608477Y-84064534D01*
X67640500Y-83862352D01*
X67640500Y-83657648D01*
X67631897Y-83603334D01*
X67608477Y-83455465D01*
X67579127Y-83365137D01*
X67545220Y-83260781D01*
X67545218Y-83260778D01*
X67545218Y-83260776D01*
X67511503Y-83194607D01*
X67452287Y-83078390D01*
X67444556Y-83067749D01*
X67331971Y-82912786D01*
X67300736Y-82881551D01*
X67267251Y-82820228D01*
X67272235Y-82750536D01*
X67314107Y-82694603D01*
X67345080Y-82677689D01*
X67382331Y-82663796D01*
X67497546Y-82577546D01*
X67583796Y-82462331D01*
X67634091Y-82327483D01*
X67640500Y-82267873D01*
X67640499Y-80172128D01*
X67636750Y-80137253D01*
X67649157Y-80068494D01*
X67696767Y-80017358D01*
X67760040Y-80000000D01*
X87885009Y-80000000D01*
X87952048Y-80019685D01*
X87997803Y-80072489D01*
X88007747Y-80141647D01*
X87978722Y-80205203D01*
X87957896Y-80224317D01*
X87952784Y-80228031D01*
X87952782Y-80228032D01*
X87808028Y-80372786D01*
X87687715Y-80538386D01*
X87594781Y-80720776D01*
X87531522Y-80915465D01*
X87499500Y-81117648D01*
X87499500Y-81322351D01*
X87531522Y-81524534D01*
X87594781Y-81719223D01*
X87687715Y-81901613D01*
X87808028Y-82067213D01*
X87952786Y-82211971D01*
X88107749Y-82324556D01*
X88118390Y-82332287D01*
X88209840Y-82378883D01*
X88211080Y-82379515D01*
X88261876Y-82427490D01*
X88278671Y-82495311D01*
X88256134Y-82561446D01*
X88211080Y-82600485D01*
X88118386Y-82647715D01*
X87952786Y-82768028D01*
X87808028Y-82912786D01*
X87687715Y-83078386D01*
X87594781Y-83260776D01*
X87531522Y-83455465D01*
X87499500Y-83657648D01*
X87499500Y-83862351D01*
X87531522Y-84064534D01*
X87594781Y-84259223D01*
X87643987Y-84355794D01*
X87684912Y-84436113D01*
X87687715Y-84441613D01*
X87808028Y-84607213D01*
X87952786Y-84751971D01*
X88107749Y-84864556D01*
X88118390Y-84872287D01*
X88209840Y-84918883D01*
X88211080Y-84919515D01*
X88261876Y-84967490D01*
X88278671Y-85035311D01*
X88256134Y-85101446D01*
X88211080Y-85140485D01*
X88118386Y-85187715D01*
X87952786Y-85308028D01*
X87808028Y-85452786D01*
X87687715Y-85618386D01*
X87594781Y-85800776D01*
X87531522Y-85995465D01*
X87499500Y-86197648D01*
X87499500Y-86402351D01*
X87531522Y-86604534D01*
X87594781Y-86799223D01*
X87687715Y-86981613D01*
X87808028Y-87147213D01*
X87952786Y-87291971D01*
X88058419Y-87368716D01*
X88118390Y-87412287D01*
X88209840Y-87458883D01*
X88211080Y-87459515D01*
X88261876Y-87507490D01*
X88278671Y-87575311D01*
X88256134Y-87641446D01*
X88211080Y-87680485D01*
X88118386Y-87727715D01*
X87952786Y-87848028D01*
X87808028Y-87992786D01*
X87687715Y-88158386D01*
X87594781Y-88340776D01*
X87531522Y-88535465D01*
X87499500Y-88737648D01*
X87499500Y-88942351D01*
X87531522Y-89144534D01*
X87594781Y-89339223D01*
X87687715Y-89521613D01*
X87808028Y-89687213D01*
X87952786Y-89831971D01*
X88107749Y-89944556D01*
X88118390Y-89952287D01*
X88209840Y-89998883D01*
X88211080Y-89999515D01*
X88261876Y-90047490D01*
X88278671Y-90115311D01*
X88256134Y-90181446D01*
X88211080Y-90220485D01*
X88118386Y-90267715D01*
X87952786Y-90388028D01*
X87808028Y-90532786D01*
X87687715Y-90698386D01*
X87594781Y-90880776D01*
X87531522Y-91075465D01*
X87511647Y-91200954D01*
X87499500Y-91277648D01*
X87499500Y-91482352D01*
X87502043Y-91498405D01*
X87531522Y-91684534D01*
X87594781Y-91879223D01*
X87635709Y-91959547D01*
X87681894Y-92050190D01*
X87687715Y-92061613D01*
X87808028Y-92227213D01*
X87952786Y-92371971D01*
X88107749Y-92484556D01*
X88118390Y-92492287D01*
X88209840Y-92538883D01*
X88211080Y-92539515D01*
X88261876Y-92587490D01*
X88278671Y-92655311D01*
X88256134Y-92721446D01*
X88211080Y-92760485D01*
X88118386Y-92807715D01*
X87952786Y-92928028D01*
X87808028Y-93072786D01*
X87687715Y-93238386D01*
X87594781Y-93420776D01*
X87531522Y-93615465D01*
X87499500Y-93817648D01*
X87499500Y-94022351D01*
X87531522Y-94224534D01*
X87594781Y-94419223D01*
X87687715Y-94601613D01*
X87808028Y-94767213D01*
X87952786Y-94911971D01*
X88107749Y-95024556D01*
X88118390Y-95032287D01*
X88190424Y-95068990D01*
X88211629Y-95079795D01*
X88262425Y-95127770D01*
X88279220Y-95195591D01*
X88256682Y-95261726D01*
X88211629Y-95300765D01*
X88118650Y-95348140D01*
X87953105Y-95468417D01*
X87953104Y-95468417D01*
X87808417Y-95613104D01*
X87808417Y-95613105D01*
X87688140Y-95778650D01*
X87595244Y-95960970D01*
X87532009Y-96155586D01*
X87523391Y-96210000D01*
X88624722Y-96210000D01*
X88580667Y-96286306D01*
X88550000Y-96400756D01*
X88550000Y-96519244D01*
X88580667Y-96633694D01*
X88624722Y-96710000D01*
X87523391Y-96710000D01*
X87532009Y-96764413D01*
X87595244Y-96959029D01*
X87688140Y-97141349D01*
X87808417Y-97306894D01*
X87808417Y-97306895D01*
X87953104Y-97451582D01*
X88118652Y-97571861D01*
X88211628Y-97619234D01*
X88262425Y-97667208D01*
X88279220Y-97735029D01*
X88256683Y-97801164D01*
X88211630Y-97840203D01*
X88118388Y-97887713D01*
X87952786Y-98008028D01*
X87808028Y-98152786D01*
X87687715Y-98318386D01*
X87594781Y-98500776D01*
X87531522Y-98695465D01*
X87499500Y-98897648D01*
X87499500Y-99102351D01*
X87531522Y-99304534D01*
X87594781Y-99499223D01*
X87687715Y-99681613D01*
X87808028Y-99847213D01*
X87952786Y-99991971D01*
X88107749Y-100104556D01*
X88118390Y-100112287D01*
X88234607Y-100171503D01*
X88300776Y-100205218D01*
X88300778Y-100205218D01*
X88300781Y-100205220D01*
X88373359Y-100228802D01*
X88495465Y-100268477D01*
X88596557Y-100284488D01*
X88697648Y-100300500D01*
X88697649Y-100300500D01*
X89302351Y-100300500D01*
X89302352Y-100300500D01*
X89504534Y-100268477D01*
X89699219Y-100205220D01*
X89881610Y-100112287D01*
X89985208Y-100037019D01*
X90047213Y-99991971D01*
X90047215Y-99991968D01*
X90047219Y-99991966D01*
X90191966Y-99847219D01*
X90191968Y-99847215D01*
X90191971Y-99847213D01*
X90312284Y-99681614D01*
X90312285Y-99681613D01*
X90312287Y-99681610D01*
X90319117Y-99668204D01*
X90367091Y-99617409D01*
X90429602Y-99600500D01*
X92483331Y-99600500D01*
X92483347Y-99600501D01*
X92490943Y-99600501D01*
X92649054Y-99600501D01*
X92649057Y-99600501D01*
X92801785Y-99559577D01*
X92851904Y-99530639D01*
X92938716Y-99480520D01*
X93050520Y-99368716D01*
X93050520Y-99368714D01*
X93060728Y-99358507D01*
X93060729Y-99358504D01*
X100315474Y-92103760D01*
X100376795Y-92070277D01*
X100429521Y-92070842D01*
X100429552Y-92070651D01*
X100430849Y-92070856D01*
X100432104Y-92070870D01*
X100434358Y-92071411D01*
X100434364Y-92071413D01*
X100630639Y-92102500D01*
X100630640Y-92102500D01*
X100829360Y-92102500D01*
X100829361Y-92102500D01*
X101025636Y-92071413D01*
X101214632Y-92010005D01*
X101391694Y-91919787D01*
X101552464Y-91802981D01*
X101692981Y-91662464D01*
X101809787Y-91501694D01*
X101889796Y-91344667D01*
X101937769Y-91293872D01*
X102005590Y-91277077D01*
X102071725Y-91299614D01*
X102110765Y-91344668D01*
X102190641Y-91501432D01*
X102217730Y-91538715D01*
X102217731Y-91538716D01*
X102780504Y-90975942D01*
X102796619Y-91036081D01*
X102863498Y-91151920D01*
X102958080Y-91246502D01*
X103073919Y-91313381D01*
X103134057Y-91329494D01*
X102571283Y-91892268D01*
X102571283Y-91892269D01*
X102608567Y-91919358D01*
X102785562Y-92009542D01*
X102974477Y-92070924D01*
X103170679Y-92102000D01*
X103369321Y-92102000D01*
X103565520Y-92070924D01*
X103565523Y-92070924D01*
X103754437Y-92009542D01*
X103931425Y-91919362D01*
X103968716Y-91892268D01*
X103405942Y-91329494D01*
X103466081Y-91313381D01*
X103581920Y-91246502D01*
X103676502Y-91151920D01*
X103743381Y-91036081D01*
X103759495Y-90975942D01*
X104322268Y-91538715D01*
X104349364Y-91501422D01*
X104429234Y-91344669D01*
X104477208Y-91293872D01*
X104545029Y-91277077D01*
X104611164Y-91299614D01*
X104650203Y-91344667D01*
X104730213Y-91501694D01*
X104847019Y-91662464D01*
X104987536Y-91802981D01*
X105148306Y-91919787D01*
X105226333Y-91959544D01*
X105325367Y-92010005D01*
X105325370Y-92010006D01*
X105419866Y-92040709D01*
X105514364Y-92071413D01*
X105710639Y-92102500D01*
X105710640Y-92102500D01*
X105909360Y-92102500D01*
X105909361Y-92102500D01*
X106105636Y-92071413D01*
X106294632Y-92010005D01*
X106471694Y-91919787D01*
X106632464Y-91802981D01*
X106772981Y-91662464D01*
X106889787Y-91501694D01*
X106969515Y-91345218D01*
X107017490Y-91294423D01*
X107085311Y-91277628D01*
X107151446Y-91300165D01*
X107190484Y-91345218D01*
X107270213Y-91501694D01*
X107387019Y-91662464D01*
X107527536Y-91802981D01*
X107688306Y-91919787D01*
X107766333Y-91959544D01*
X107865367Y-92010005D01*
X107865370Y-92010006D01*
X107959866Y-92040709D01*
X108054364Y-92071413D01*
X108250639Y-92102500D01*
X108250640Y-92102500D01*
X108449360Y-92102500D01*
X108449361Y-92102500D01*
X108645636Y-92071413D01*
X108834632Y-92010005D01*
X109011694Y-91919787D01*
X109172464Y-91802981D01*
X109312981Y-91662464D01*
X109429787Y-91501694D01*
X109520005Y-91324632D01*
X109581413Y-91135636D01*
X109612500Y-90939361D01*
X109612500Y-90740639D01*
X109581413Y-90544364D01*
X109520005Y-90355368D01*
X109520005Y-90355367D01*
X109451278Y-90220485D01*
X109429787Y-90178306D01*
X109312981Y-90017536D01*
X109172464Y-89877019D01*
X109011694Y-89760213D01*
X108834632Y-89669994D01*
X108834629Y-89669993D01*
X108645637Y-89608587D01*
X108547498Y-89593043D01*
X108449361Y-89577500D01*
X108250639Y-89577500D01*
X108185214Y-89587862D01*
X108054362Y-89608587D01*
X107865370Y-89669993D01*
X107865367Y-89669994D01*
X107688305Y-89760213D01*
X107527533Y-89877021D01*
X107387021Y-90017533D01*
X107270213Y-90178305D01*
X107190485Y-90334780D01*
X107142510Y-90385576D01*
X107074689Y-90402371D01*
X107008554Y-90379833D01*
X106969515Y-90334780D01*
X106911278Y-90220485D01*
X106889787Y-90178306D01*
X106772981Y-90017536D01*
X106632464Y-89877019D01*
X106471694Y-89760213D01*
X106294632Y-89669994D01*
X106294629Y-89669993D01*
X106105637Y-89608587D01*
X106007498Y-89593043D01*
X105909361Y-89577500D01*
X105710639Y-89577500D01*
X105645214Y-89587862D01*
X105514362Y-89608587D01*
X105325370Y-89669993D01*
X105325367Y-89669994D01*
X105148305Y-89760213D01*
X104987533Y-89877021D01*
X104847021Y-90017533D01*
X104730213Y-90178305D01*
X104650204Y-90335331D01*
X104602229Y-90386127D01*
X104534408Y-90402922D01*
X104468273Y-90380384D01*
X104429234Y-90335331D01*
X104349358Y-90178567D01*
X104322268Y-90141283D01*
X103759494Y-90704057D01*
X103743381Y-90643919D01*
X103676502Y-90528080D01*
X103581920Y-90433498D01*
X103466081Y-90366619D01*
X103405942Y-90350504D01*
X103968716Y-89787731D01*
X103968715Y-89787730D01*
X103931432Y-89760641D01*
X103754437Y-89670457D01*
X103565522Y-89609075D01*
X103369321Y-89578000D01*
X103170679Y-89578000D01*
X102974479Y-89609075D01*
X102974476Y-89609075D01*
X102785562Y-89670457D01*
X102608564Y-89760643D01*
X102571283Y-89787729D01*
X102571282Y-89787730D01*
X103134058Y-90350504D01*
X103073919Y-90366619D01*
X102958080Y-90433498D01*
X102863498Y-90528080D01*
X102796619Y-90643919D01*
X102780504Y-90704057D01*
X102217730Y-90141282D01*
X102217729Y-90141283D01*
X102190641Y-90178566D01*
X102110764Y-90335332D01*
X102062790Y-90386127D01*
X101994969Y-90402922D01*
X101928834Y-90380384D01*
X101889796Y-90335332D01*
X101809787Y-90178306D01*
X101692981Y-90017536D01*
X101552464Y-89877019D01*
X101391694Y-89760213D01*
X101214632Y-89669994D01*
X101214629Y-89669993D01*
X101025637Y-89608587D01*
X100927498Y-89593043D01*
X100829361Y-89577500D01*
X100630639Y-89577500D01*
X100627482Y-89578000D01*
X100616765Y-89579697D01*
X100547472Y-89570739D01*
X100494022Y-89525741D01*
X100473385Y-89458989D01*
X100492113Y-89391676D01*
X100509686Y-89369547D01*
X102242416Y-87636819D01*
X102303739Y-87603334D01*
X102330097Y-87600500D01*
X103413331Y-87600500D01*
X103413347Y-87600501D01*
X103420943Y-87600501D01*
X103579054Y-87600501D01*
X103579057Y-87600501D01*
X103731785Y-87559577D01*
X103781904Y-87530639D01*
X103868716Y-87480520D01*
X103980520Y-87368716D01*
X103980520Y-87368714D01*
X103990728Y-87358507D01*
X103990730Y-87358504D01*
X104702139Y-86647094D01*
X104763460Y-86613611D01*
X104833152Y-86618595D01*
X104837271Y-86620216D01*
X104860491Y-86629834D01*
X104936113Y-86661158D01*
X105157762Y-86720548D01*
X105374312Y-86749057D01*
X105385250Y-86750498D01*
X105385266Y-86750500D01*
X105385273Y-86750500D01*
X105614727Y-86750500D01*
X105614734Y-86750500D01*
X105842238Y-86720548D01*
X106063887Y-86661158D01*
X106275888Y-86573344D01*
X106474612Y-86458611D01*
X106656661Y-86318919D01*
X106656665Y-86318914D01*
X106656670Y-86318911D01*
X106818911Y-86156670D01*
X106818914Y-86156665D01*
X106818919Y-86156661D01*
X106958611Y-85974612D01*
X107018614Y-85870682D01*
X107069180Y-85822469D01*
X107137787Y-85809245D01*
X107202652Y-85835213D01*
X107243180Y-85892127D01*
X107250000Y-85932684D01*
X107250000Y-86297844D01*
X107256401Y-86357372D01*
X107256403Y-86357379D01*
X107306645Y-86492086D01*
X107306649Y-86492093D01*
X107392809Y-86607187D01*
X107392812Y-86607190D01*
X107507906Y-86693350D01*
X107507913Y-86693354D01*
X107642620Y-86743596D01*
X107642627Y-86743598D01*
X107702155Y-86749999D01*
X107702172Y-86750000D01*
X108750000Y-86750000D01*
X108750000Y-85548482D01*
X108768409Y-85559111D01*
X108921009Y-85600000D01*
X109078991Y-85600000D01*
X109231591Y-85559111D01*
X109250000Y-85548482D01*
X109250000Y-86750000D01*
X110297828Y-86750000D01*
X110297844Y-86749999D01*
X110357372Y-86743598D01*
X110357379Y-86743596D01*
X110492086Y-86693354D01*
X110492093Y-86693350D01*
X110607187Y-86607190D01*
X110607190Y-86607187D01*
X110693350Y-86492093D01*
X110693354Y-86492086D01*
X110743596Y-86357379D01*
X110743598Y-86357372D01*
X110749999Y-86297844D01*
X110750000Y-86297827D01*
X110750000Y-85250000D01*
X109548482Y-85250000D01*
X109559111Y-85231591D01*
X109600000Y-85078991D01*
X109600000Y-84921009D01*
X109559111Y-84768409D01*
X109548482Y-84750000D01*
X110750000Y-84750000D01*
X110750000Y-83702172D01*
X110749999Y-83702155D01*
X110743598Y-83642627D01*
X110743596Y-83642620D01*
X110693354Y-83507913D01*
X110693350Y-83507906D01*
X110607190Y-83392812D01*
X110607187Y-83392809D01*
X110492093Y-83306649D01*
X110492086Y-83306645D01*
X110357379Y-83256403D01*
X110357372Y-83256401D01*
X110297844Y-83250000D01*
X109250000Y-83250000D01*
X109250000Y-84451517D01*
X109231591Y-84440889D01*
X109078991Y-84400000D01*
X108921009Y-84400000D01*
X108768409Y-84440889D01*
X108750000Y-84451517D01*
X108750000Y-83250000D01*
X107702155Y-83250000D01*
X107642627Y-83256401D01*
X107642620Y-83256403D01*
X107507913Y-83306645D01*
X107507906Y-83306649D01*
X107392812Y-83392809D01*
X107392809Y-83392812D01*
X107306649Y-83507906D01*
X107306645Y-83507913D01*
X107256403Y-83642620D01*
X107256401Y-83642627D01*
X107250000Y-83702155D01*
X107250000Y-84067315D01*
X107230315Y-84134354D01*
X107177511Y-84180109D01*
X107108353Y-84190053D01*
X107044797Y-84161028D01*
X107018613Y-84129315D01*
X106981212Y-84064534D01*
X106958611Y-84025388D01*
X106958608Y-84025385D01*
X106958607Y-84025382D01*
X106833508Y-83862352D01*
X106818919Y-83843339D01*
X106818918Y-83843338D01*
X106818911Y-83843330D01*
X106656670Y-83681089D01*
X106656661Y-83681081D01*
X106474617Y-83541392D01*
X106416210Y-83507671D01*
X106275888Y-83426656D01*
X106275876Y-83426650D01*
X106063887Y-83338842D01*
X105842238Y-83279452D01*
X105804215Y-83274446D01*
X105614741Y-83249500D01*
X105614734Y-83249500D01*
X105385266Y-83249500D01*
X105385258Y-83249500D01*
X105168715Y-83278009D01*
X105157762Y-83279452D01*
X105064076Y-83304554D01*
X104936112Y-83338842D01*
X104724123Y-83426650D01*
X104724109Y-83426657D01*
X104525382Y-83541392D01*
X104343338Y-83681081D01*
X104181081Y-83843338D01*
X104041392Y-84025382D01*
X103926657Y-84224109D01*
X103926650Y-84224123D01*
X103864561Y-84374022D01*
X103820720Y-84428426D01*
X103754426Y-84450491D01*
X103686727Y-84433212D01*
X103639116Y-84382075D01*
X103635439Y-84374022D01*
X103573349Y-84224123D01*
X103573346Y-84224117D01*
X103573344Y-84224112D01*
X103458611Y-84025388D01*
X103458608Y-84025385D01*
X103458607Y-84025382D01*
X103333508Y-83862352D01*
X103318919Y-83843339D01*
X103318918Y-83843338D01*
X103318911Y-83843330D01*
X103156670Y-83681089D01*
X103156661Y-83681081D01*
X102974617Y-83541392D01*
X102916210Y-83507671D01*
X102775888Y-83426656D01*
X102775876Y-83426650D01*
X102563887Y-83338842D01*
X102342238Y-83279452D01*
X102304215Y-83274446D01*
X102114741Y-83249500D01*
X102114734Y-83249500D01*
X101885266Y-83249500D01*
X101885258Y-83249500D01*
X101668715Y-83278009D01*
X101657762Y-83279452D01*
X101564076Y-83304554D01*
X101436112Y-83338842D01*
X101224123Y-83426650D01*
X101224109Y-83426657D01*
X101025382Y-83541392D01*
X100843338Y-83681081D01*
X100681081Y-83843338D01*
X100541392Y-84025382D01*
X100426657Y-84224109D01*
X100426650Y-84224123D01*
X100338842Y-84436112D01*
X100338842Y-84436113D01*
X100292997Y-84607213D01*
X100279453Y-84657759D01*
X100279451Y-84657770D01*
X100249500Y-84885258D01*
X100249500Y-85114741D01*
X100267308Y-85250000D01*
X100279452Y-85342238D01*
X100309072Y-85452781D01*
X100338842Y-85563887D01*
X100426650Y-85775876D01*
X100426657Y-85775890D01*
X100541392Y-85974617D01*
X100681081Y-86156661D01*
X100681089Y-86156670D01*
X100843330Y-86318911D01*
X100843338Y-86318918D01*
X100986580Y-86428833D01*
X101027782Y-86485261D01*
X101031937Y-86555007D01*
X100998774Y-86614889D01*
X99250484Y-88363181D01*
X99189161Y-88396666D01*
X99162803Y-88399500D01*
X98086669Y-88399500D01*
X98086653Y-88399499D01*
X98079057Y-88399499D01*
X97920943Y-88399499D01*
X97813587Y-88428265D01*
X97768210Y-88440424D01*
X97768209Y-88440425D01*
X97718096Y-88469359D01*
X97718095Y-88469360D01*
X97674689Y-88494420D01*
X97631285Y-88519479D01*
X97631282Y-88519481D01*
X97519478Y-88631286D01*
X96604206Y-89546557D01*
X96542883Y-89580042D01*
X96503271Y-89582166D01*
X96459873Y-89577500D01*
X96459866Y-89577500D01*
X94840129Y-89577500D01*
X94840123Y-89577501D01*
X94780516Y-89583908D01*
X94645671Y-89634202D01*
X94645664Y-89634206D01*
X94530455Y-89720452D01*
X94530452Y-89720455D01*
X94444206Y-89835664D01*
X94444202Y-89835671D01*
X94393908Y-89970517D01*
X94387501Y-90030116D01*
X94387500Y-90030135D01*
X94387500Y-91649870D01*
X94387501Y-91649876D01*
X94393908Y-91709483D01*
X94444202Y-91844328D01*
X94444206Y-91844335D01*
X94530452Y-91959544D01*
X94530455Y-91959547D01*
X94645664Y-92045793D01*
X94645671Y-92045797D01*
X94780517Y-92096091D01*
X94780516Y-92096091D01*
X94787444Y-92096835D01*
X94840127Y-92102500D01*
X96459872Y-92102499D01*
X96519483Y-92096091D01*
X96654331Y-92045796D01*
X96769546Y-91959546D01*
X96855796Y-91844331D01*
X96906091Y-91709483D01*
X96912500Y-91649873D01*
X96912499Y-91611197D01*
X96932182Y-91544161D01*
X96984985Y-91498405D01*
X97054143Y-91488460D01*
X97117699Y-91517483D01*
X97136817Y-91538312D01*
X97227019Y-91662464D01*
X97367536Y-91802981D01*
X97528306Y-91919787D01*
X97606333Y-91959544D01*
X97705367Y-92010005D01*
X97705370Y-92010006D01*
X97799866Y-92040709D01*
X97894364Y-92071413D01*
X98090639Y-92102500D01*
X98090640Y-92102500D01*
X98289360Y-92102500D01*
X98289361Y-92102500D01*
X98303223Y-92100304D01*
X98372515Y-92109255D01*
X98425968Y-92154249D01*
X98446611Y-92221000D01*
X98427889Y-92288314D01*
X98410305Y-92310457D01*
X92357584Y-98363181D01*
X92296261Y-98396666D01*
X92269903Y-98399500D01*
X90429602Y-98399500D01*
X90362563Y-98379815D01*
X90319117Y-98331795D01*
X90312284Y-98318385D01*
X90191971Y-98152786D01*
X90047213Y-98008028D01*
X89881611Y-97887713D01*
X89788369Y-97840203D01*
X89737574Y-97792229D01*
X89720779Y-97724407D01*
X89743317Y-97658273D01*
X89788371Y-97619234D01*
X89881347Y-97571861D01*
X90046894Y-97451582D01*
X90046895Y-97451582D01*
X90191582Y-97306895D01*
X90191582Y-97306894D01*
X90311859Y-97141349D01*
X90404755Y-96959029D01*
X90467990Y-96764413D01*
X90476609Y-96710000D01*
X89375278Y-96710000D01*
X89419333Y-96633694D01*
X89450000Y-96519244D01*
X89450000Y-96400756D01*
X89419333Y-96286306D01*
X89375278Y-96210000D01*
X90476609Y-96210000D01*
X90467990Y-96155586D01*
X90404755Y-95960970D01*
X90311859Y-95778650D01*
X90191582Y-95613105D01*
X90191582Y-95613104D01*
X90046895Y-95468417D01*
X89881349Y-95348140D01*
X89788370Y-95300765D01*
X89737574Y-95252790D01*
X89720779Y-95184969D01*
X89743316Y-95118835D01*
X89788370Y-95079795D01*
X89788920Y-95079515D01*
X89881610Y-95032287D01*
X89902770Y-95016913D01*
X90047213Y-94911971D01*
X90047215Y-94911968D01*
X90047219Y-94911966D01*
X90191966Y-94767219D01*
X90191968Y-94767215D01*
X90191971Y-94767213D01*
X90244732Y-94694590D01*
X90312287Y-94601610D01*
X90405220Y-94419219D01*
X90468477Y-94224534D01*
X90500500Y-94022352D01*
X90500500Y-93817648D01*
X90468477Y-93615466D01*
X90468476Y-93615464D01*
X90405218Y-93420776D01*
X90356011Y-93324203D01*
X90312287Y-93238390D01*
X90304556Y-93227749D01*
X90191971Y-93072786D01*
X90047213Y-92928028D01*
X89881614Y-92807715D01*
X89875006Y-92804348D01*
X89788917Y-92760483D01*
X89738123Y-92712511D01*
X89721328Y-92644690D01*
X89743865Y-92578555D01*
X89788917Y-92539516D01*
X89881610Y-92492287D01*
X89902770Y-92476913D01*
X90047213Y-92371971D01*
X90047215Y-92371968D01*
X90047219Y-92371966D01*
X90191966Y-92227219D01*
X90191968Y-92227215D01*
X90191971Y-92227213D01*
X90281662Y-92103762D01*
X90312287Y-92061610D01*
X90405220Y-91879219D01*
X90468477Y-91684534D01*
X90500500Y-91482352D01*
X90500500Y-91277648D01*
X90488353Y-91200954D01*
X90468477Y-91075465D01*
X90424253Y-90939360D01*
X90405220Y-90880781D01*
X90405218Y-90880778D01*
X90405218Y-90880776D01*
X90371503Y-90814607D01*
X90312287Y-90698390D01*
X90261976Y-90629142D01*
X90191971Y-90532786D01*
X90047213Y-90388028D01*
X89881614Y-90267715D01*
X89875006Y-90264348D01*
X89788917Y-90220483D01*
X89738123Y-90172511D01*
X89721328Y-90104690D01*
X89743865Y-90038555D01*
X89788917Y-89999516D01*
X89881610Y-89952287D01*
X89985206Y-89877021D01*
X90047213Y-89831971D01*
X90047215Y-89831968D01*
X90047219Y-89831966D01*
X90191966Y-89687219D01*
X90191968Y-89687215D01*
X90191971Y-89687213D01*
X90249095Y-89608587D01*
X90312287Y-89521610D01*
X90405220Y-89339219D01*
X90468477Y-89144534D01*
X90500500Y-88942352D01*
X90500500Y-88737648D01*
X90468477Y-88535466D01*
X90405220Y-88340781D01*
X90405218Y-88340778D01*
X90405218Y-88340776D01*
X90371503Y-88274607D01*
X90312287Y-88158390D01*
X90304556Y-88147749D01*
X90191971Y-87992786D01*
X90047213Y-87848028D01*
X89881614Y-87727715D01*
X89875006Y-87724348D01*
X89788917Y-87680483D01*
X89738123Y-87632511D01*
X89721328Y-87564690D01*
X89743865Y-87498555D01*
X89788917Y-87459516D01*
X89881610Y-87412287D01*
X89941585Y-87368713D01*
X90047213Y-87291971D01*
X90047215Y-87291968D01*
X90047219Y-87291966D01*
X90191966Y-87147219D01*
X90191968Y-87147215D01*
X90191971Y-87147213D01*
X90244732Y-87074590D01*
X90312287Y-86981610D01*
X90405220Y-86799219D01*
X90468477Y-86604534D01*
X90500500Y-86402352D01*
X90500500Y-86197648D01*
X90468477Y-85995466D01*
X90461703Y-85974619D01*
X90448078Y-85932684D01*
X90414778Y-85830200D01*
X90412783Y-85760364D01*
X90445027Y-85704207D01*
X92512417Y-83636819D01*
X92573740Y-83603334D01*
X92600098Y-83600500D01*
X93124557Y-83600500D01*
X93191596Y-83620185D01*
X93237351Y-83672989D01*
X93247295Y-83742147D01*
X93218270Y-83805703D01*
X93212238Y-83812181D01*
X93181081Y-83843338D01*
X93041392Y-84025382D01*
X92926657Y-84224109D01*
X92926650Y-84224123D01*
X92838842Y-84436112D01*
X92838842Y-84436113D01*
X92792997Y-84607213D01*
X92779453Y-84657759D01*
X92779451Y-84657770D01*
X92749500Y-84885258D01*
X92749500Y-85114741D01*
X92767308Y-85250000D01*
X92779452Y-85342238D01*
X92809072Y-85452781D01*
X92838842Y-85563887D01*
X92926650Y-85775876D01*
X92926657Y-85775890D01*
X93041392Y-85974617D01*
X93181081Y-86156661D01*
X93181089Y-86156670D01*
X93343330Y-86318911D01*
X93343338Y-86318918D01*
X93525382Y-86458607D01*
X93525385Y-86458608D01*
X93525388Y-86458611D01*
X93724112Y-86573344D01*
X93724117Y-86573346D01*
X93724123Y-86573349D01*
X93760723Y-86588509D01*
X93936113Y-86661158D01*
X94157762Y-86720548D01*
X94374312Y-86749057D01*
X94385250Y-86750498D01*
X94385266Y-86750500D01*
X94385273Y-86750500D01*
X94614727Y-86750500D01*
X94614734Y-86750500D01*
X94842238Y-86720548D01*
X95063887Y-86661158D01*
X95275888Y-86573344D01*
X95474612Y-86458611D01*
X95656661Y-86318919D01*
X95656665Y-86318914D01*
X95656670Y-86318911D01*
X95818911Y-86156670D01*
X95818914Y-86156665D01*
X95818919Y-86156661D01*
X95958611Y-85974612D01*
X96018115Y-85871546D01*
X96068679Y-85823334D01*
X96137286Y-85810110D01*
X96202151Y-85836078D01*
X96242680Y-85892992D01*
X96249500Y-85933549D01*
X96249500Y-86297869D01*
X96249501Y-86297876D01*
X96255908Y-86357483D01*
X96306202Y-86492328D01*
X96306206Y-86492335D01*
X96392452Y-86607544D01*
X96392455Y-86607547D01*
X96507664Y-86693793D01*
X96507671Y-86693797D01*
X96642517Y-86744091D01*
X96642516Y-86744091D01*
X96649444Y-86744835D01*
X96702127Y-86750500D01*
X99297872Y-86750499D01*
X99357483Y-86744091D01*
X99492331Y-86693796D01*
X99607546Y-86607546D01*
X99693796Y-86492331D01*
X99744091Y-86357483D01*
X99750500Y-86297873D01*
X99750499Y-83702128D01*
X99744091Y-83642517D01*
X99693884Y-83507906D01*
X99693797Y-83507671D01*
X99693793Y-83507664D01*
X99607547Y-83392455D01*
X99607544Y-83392452D01*
X99492335Y-83306206D01*
X99492328Y-83306202D01*
X99357482Y-83255908D01*
X99357483Y-83255908D01*
X99297883Y-83249501D01*
X99297881Y-83249500D01*
X99297873Y-83249500D01*
X99297865Y-83249500D01*
X97150097Y-83249500D01*
X97083058Y-83229815D01*
X97062416Y-83213181D01*
X96487590Y-82638355D01*
X96487588Y-82638352D01*
X96368717Y-82519481D01*
X96368709Y-82519475D01*
X96264828Y-82459500D01*
X96264825Y-82459499D01*
X96231787Y-82440424D01*
X96231786Y-82440423D01*
X96231785Y-82440423D01*
X96079057Y-82399499D01*
X95920943Y-82399499D01*
X95913347Y-82399499D01*
X95913331Y-82399500D01*
X92386670Y-82399500D01*
X92386654Y-82399499D01*
X92379058Y-82399499D01*
X92220943Y-82399499D01*
X92149827Y-82418555D01*
X92068214Y-82440423D01*
X92068209Y-82440426D01*
X91931290Y-82519475D01*
X91931282Y-82519481D01*
X90712044Y-83738719D01*
X90650721Y-83772204D01*
X90581029Y-83767220D01*
X90525096Y-83725348D01*
X90501376Y-83662441D01*
X90501262Y-83662460D01*
X90501174Y-83661907D01*
X90500746Y-83660771D01*
X90500500Y-83657651D01*
X90498120Y-83642627D01*
X90468477Y-83455466D01*
X90459116Y-83426657D01*
X90439127Y-83365137D01*
X90405220Y-83260781D01*
X90405218Y-83260778D01*
X90405218Y-83260776D01*
X90371503Y-83194607D01*
X90312287Y-83078390D01*
X90304556Y-83067749D01*
X90191971Y-82912786D01*
X90047213Y-82768028D01*
X89881614Y-82647715D01*
X89849366Y-82631284D01*
X89788917Y-82600483D01*
X89738123Y-82552511D01*
X89721328Y-82484690D01*
X89743865Y-82418555D01*
X89788917Y-82379516D01*
X89881610Y-82332287D01*
X89902770Y-82316913D01*
X90047213Y-82211971D01*
X90047215Y-82211968D01*
X90047219Y-82211966D01*
X90191966Y-82067219D01*
X90191968Y-82067215D01*
X90191971Y-82067213D01*
X90244732Y-81994590D01*
X90312287Y-81901610D01*
X90405220Y-81719219D01*
X90468477Y-81524534D01*
X90500500Y-81322352D01*
X90500500Y-81117648D01*
X90468477Y-80915466D01*
X90405220Y-80720781D01*
X90405218Y-80720778D01*
X90405218Y-80720776D01*
X90371503Y-80654607D01*
X90312287Y-80538390D01*
X90304556Y-80527749D01*
X90191971Y-80372786D01*
X90047217Y-80228032D01*
X90047215Y-80228031D01*
X90042104Y-80224317D01*
X89999439Y-80168987D01*
X89993461Y-80099373D01*
X90026068Y-80037579D01*
X90086907Y-80003222D01*
X90114991Y-80000000D01*
X91000000Y-80000000D01*
X91000000Y-72624500D01*
X91019685Y-72557461D01*
X91072489Y-72511706D01*
X91124000Y-72500500D01*
X93934108Y-72500500D01*
X109741324Y-72500500D01*
X109808363Y-72520185D01*
G37*
%TD.AperFunction*%
%TD*%
M02*
